<svg width="20" height="20" viewBox="0 0 20 20" fill="none" xmlns="http://www.w3.org/2000/svg">
<path d="M10.137 3.28767C13.9198 3.28767 16.9863 6.35421 16.9863 10.137C16.9863 13.9198 13.9198 16.9863 10.137 16.9863C6.35422 16.9863 3.28767 13.9198 3.28767 10.137C3.28767 6.35421 6.35422 3.28767 10.137 3.28767Z" stroke="#5671F5"/>
<path d="M7.55298 7.40782C7.44543 7.43243 7.3154 7.48808 7.21854 7.55122C6.97561 7.70908 6.84879 7.94827 6.84932 8.249C6.84986 8.39776 6.87822 8.54491 6.95099 8.76965C7.05908 9.10355 7.14309 9.39733 7.16557 9.52254L7.17199 9.55785L7.13667 9.63759C7.00343 9.93617 6.94029 10.2037 6.94029 10.4713C6.94029 10.6382 6.96918 10.8202 7.03982 11.1027C7.14737 11.5324 7.31968 11.93 7.49091 12.1435C7.55298 12.2205 7.7911 12.4292 7.96769 12.5609C8.17798 12.7176 8.35457 12.8118 8.50761 12.8503C8.60606 12.8755 8.6553 12.8942 8.71683 12.9311C8.88486 13.0333 9.07161 13.2608 9.20914 13.5315C9.33809 13.7846 9.60242 13.989 9.87425 14.0452C9.97914 14.0672 10.1156 14.0693 10.2232 14.0517C10.266 14.0442 10.2766 14.0442 10.3195 14.0517C10.427 14.0693 10.5635 14.0672 10.6689 14.0452C10.9391 13.9896 11.2045 13.7852 11.3329 13.5331C11.4887 13.2292 11.6877 12.9991 11.8766 12.9049C11.9264 12.8798 11.9505 12.8717 12.035 12.8503C12.1452 12.8231 12.249 12.7754 12.3876 12.6888C12.6145 12.548 12.9704 12.2516 13.0667 12.1237C13.2759 11.8454 13.4595 11.3665 13.5638 10.8271C13.5975 10.6548 13.5997 10.6313 13.5991 10.4659C13.5991 10.3386 13.597 10.3043 13.5868 10.2385C13.5552 10.0309 13.5012 9.8511 13.4097 9.64615L13.3733 9.56481L13.3835 9.51504C13.4156 9.35933 13.4884 9.10408 13.5948 8.775C13.6698 8.54491 13.6981 8.39936 13.6986 8.249C13.6992 7.86051 13.4851 7.5737 13.0913 7.43618C12.9805 7.39765 12.919 7.39069 12.7809 7.40247C12.4834 7.42815 12.1329 7.52126 11.7493 7.67644L11.6428 7.71925L11.5673 7.68982C11.273 7.5753 10.9637 7.53357 10.6079 7.56139C10.4388 7.57423 10.1124 7.57423 9.93151 7.56086C9.57729 7.53464 9.2621 7.57744 8.9769 7.68928L8.90252 7.71817L8.79709 7.67537C8.42038 7.52286 8.0624 7.42815 7.76702 7.403C7.67445 7.39497 7.60275 7.39658 7.55298 7.40782Z" fill="#8A90AC" fill-opacity="0.85"/>
</svg>