<svg width="512" height="510" viewBox="0 0 512 510" fill="none" xmlns="http://www.w3.org/2000/svg">
<path d="M259.507 84.1644C356.346 84.1644 434.849 162.668 434.849 259.507C434.849 356.346 356.346 434.849 259.507 434.849C162.668 434.849 84.1644 356.346 84.1644 259.507C84.1644 162.668 162.668 84.1644 259.507 84.1644Z" stroke="#5671F5" stroke-width="16"/>
<path d="M193.356 189.64C190.603 190.27 187.274 191.695 184.795 193.311C178.575 197.352 175.329 203.476 175.343 211.174C175.356 214.983 176.082 218.75 177.945 224.503C180.712 233.051 182.863 240.572 183.438 243.777L183.603 244.681L182.699 246.722C179.288 254.366 177.671 261.215 177.671 268.065C177.671 272.339 178.411 276.996 180.219 284.229C182.973 295.229 187.384 305.407 191.767 310.873C193.356 312.846 199.452 318.188 203.973 321.558C209.356 325.571 213.877 327.982 217.795 328.969C220.315 329.612 221.575 330.092 223.151 331.037C227.452 333.653 232.233 339.475 235.754 346.407C239.055 352.887 245.822 358.12 252.781 359.557C255.466 360.12 258.959 360.174 261.713 359.722C262.809 359.531 263.082 359.531 264.178 359.722C266.931 360.174 270.425 360.12 273.123 359.557C280.041 358.133 286.836 352.9 290.123 346.448C294.11 338.667 299.206 332.777 304.041 330.366C305.315 329.722 305.932 329.517 308.096 328.969C310.918 328.27 313.575 327.051 317.123 324.832C322.932 321.229 332.041 313.64 334.507 310.366C339.863 303.243 344.562 290.983 347.233 277.175C348.096 272.763 348.151 272.161 348.137 267.928C348.137 264.667 348.083 263.791 347.822 262.106C347.014 256.791 345.63 252.188 343.288 246.942L342.356 244.859L342.617 243.585C343.439 239.599 345.302 233.065 348.027 224.64C349.946 218.75 350.671 215.024 350.685 211.174C350.699 201.229 345.219 193.887 335.137 190.366C332.301 189.38 330.726 189.202 327.192 189.503C319.576 190.161 310.603 192.544 300.781 196.517L298.055 197.613L296.124 196.859C288.589 193.928 280.671 192.859 271.562 193.572C267.233 193.9 258.877 193.9 254.247 193.558C245.178 192.887 237.11 193.983 229.809 196.846L227.904 197.585L225.205 196.489C215.562 192.585 206.397 190.161 198.836 189.517C196.466 189.311 194.63 189.352 193.356 189.64Z" fill="#8A90AC" fill-opacity="0.85"/>
</svg>
