<svg width="192" height="192" viewBox="0 0 192 192" fill="none" xmlns="http://www.w3.org/2000/svg">
<path d="M97.3151 31.5616C133.63 31.5616 163.068 61.0005 163.068 97.3151C163.068 133.63 133.63 163.068 97.3151 163.068C61.0005 163.068 31.5616 133.63 31.5616 97.3151C31.5616 61.0005 61.0005 31.5616 97.3151 31.5616Z" stroke="#5671F5" stroke-width="10"/>
<path d="M72.5086 71.115C71.476 71.3513 70.2278 71.8856 69.298 72.4917C66.9658 74.0071 65.7483 76.3034 65.7534 79.1904C65.7586 80.6185 66.0308 82.0311 66.7295 84.1886C67.7671 87.3941 68.5736 90.2144 68.7894 91.4163L68.851 91.7554L68.512 92.5209C67.2329 95.3872 66.6267 97.9558 66.6267 100.524C66.6267 102.127 66.9041 103.874 67.5822 106.586C68.6147 110.711 70.2689 114.528 71.9127 116.577C72.5086 117.317 74.7945 119.321 76.4897 120.584C78.5086 122.089 80.2038 122.993 81.673 123.363C82.6182 123.605 83.0908 123.785 83.6815 124.139C85.2946 125.12 87.0874 127.303 88.4077 129.903C89.6456 132.333 92.1832 134.295 94.7928 134.834C95.7997 135.045 97.1097 135.065 98.1422 134.896C98.5532 134.824 98.6558 134.824 99.0667 134.896C100.099 135.065 101.409 135.045 102.421 134.834C105.015 134.3 107.563 132.338 108.796 129.918C110.291 127 112.202 124.791 114.015 123.887C114.493 123.646 114.724 123.569 115.536 123.363C116.594 123.101 117.591 122.644 118.921 121.812C121.099 120.461 124.515 117.615 125.44 116.387C127.449 113.716 129.211 109.119 130.212 103.94C130.536 102.286 130.557 102.06 130.551 100.473C130.551 99.2503 130.531 98.9215 130.433 98.2896C130.13 96.2966 129.611 94.5706 128.733 92.6031L128.384 91.8222L128.481 91.3444C128.789 89.8496 129.488 87.3992 130.51 84.24C131.23 82.0311 131.502 80.6339 131.507 79.1904C131.512 75.4609 129.457 72.7075 125.676 71.3873C124.613 71.0174 124.022 70.9506 122.697 71.0637C119.841 71.3102 116.476 72.2041 112.793 73.6938L111.771 74.1048L111.046 73.8222C108.221 72.7229 105.252 72.3222 101.836 72.5893C100.212 72.7126 97.0788 72.7126 95.3425 72.5842C91.9419 72.3325 88.9162 72.7435 86.1782 73.8171L85.4641 74.0945L84.452 73.6835C80.8356 72.2195 77.399 71.3102 74.5634 71.0688C73.6747 70.9917 72.9863 71.0072 72.5086 71.115Z" fill="#8A90AC" fill-opacity="0.85"/>
</svg>
