<svg width="632" height="423" viewBox="0 0 632 423" fill="none" xmlns="http://www.w3.org/2000/svg">
<path d="M141.751 0.472891C138.912 1.03402 135.611 2.12326 133.499 3.14649C128.68 5.58903 100.987 24.9974 77.8486 42.1942C71.5772 46.8482 65.8009 51.0732 64.9757 51.6013C60.3877 54.5059 57.087 56.8165 56.9219 57.2125C56.8559 57.4436 56.4598 57.8397 56.0968 58.0047C55.5356 58.3018 55.3706 58.2688 55.0735 57.7076C54.6444 56.9155 55.1395 55.7272 55.8987 55.7272C56.1958 55.7272 56.3278 55.3641 56.3278 54.737C56.2948 53.3837 56.8559 52.8556 59.6285 51.5023C62.5662 50.0829 63.3254 49.2248 63.3254 47.2773C63.3254 46.4851 63.1933 45.825 62.9953 45.825C62.8303 45.825 62.6652 45.5279 62.6652 45.1649C62.6652 44.1416 62.0051 44.3727 61.51 45.627C60.8498 47.1783 59.4635 48.2345 56.7569 49.2908C55.4036 49.7859 54.1493 50.5451 53.7532 51.0072C52.796 52.2284 52.3339 54.2419 52.499 56.8165C52.565 58.2688 52.499 58.9949 52.2679 58.9289C49.9244 58.0707 48.274 57.6746 47.2508 57.7737C46.0625 57.8727 45.9635 57.9717 45.5344 59.424C45.1053 60.8103 44.9403 60.9754 43.62 61.3715C42.0026 61.8006 40.5503 62.8238 40.5503 63.4509C40.5503 63.682 39.428 64.8042 38.0747 65.8935C35.0711 68.402 34.3779 69.5243 34.906 71.2407C35.1041 71.9338 35.2691 72.693 35.2691 72.957C35.2691 73.3861 30.8131 76.8849 25.3009 80.7798C23.4525 82.1001 23.2544 82.5292 23.8486 83.7174C24.4757 84.9057 27.5454 88.0744 28.0735 88.0744C28.3046 88.0744 29.2618 87.4803 30.186 86.7871C33.1236 84.5756 37.8767 81.1759 38.6359 80.7798C39.296 80.4167 39.4611 80.5157 40.4513 81.671C41.0454 82.3641 41.9696 83.7835 42.5307 84.8067C43.4219 86.4901 43.488 86.8862 43.3229 88.6686C43.0919 90.715 43.587 94.3458 44.3461 96.1942C44.5772 96.7554 45.6994 98.2737 46.8217 99.594C48.34 101.376 49.0662 102.532 49.4953 103.951C49.8254 105.04 50.4855 106.757 50.9806 107.813C51.4427 108.836 52.2679 110.883 52.796 112.368C53.3572 113.82 54.6774 116.659 55.7997 118.639C56.8889 120.62 58.2092 123.128 58.7043 124.217C59.6946 126.363 60.4867 127.353 62.4012 128.772C63.7215 129.796 66.065 132.733 66.4281 133.823C66.8902 135.242 68.8376 136.562 73.3926 138.51C76.5943 139.863 78.6408 140.523 79.9941 140.655C81.0833 140.787 82.6347 141.084 83.4269 141.381C84.3181 141.678 86.0014 141.876 87.7838 141.876H90.6885L91.2166 143.593C92.4709 148.082 93.4281 153.033 94.6824 161.681C96.2007 172.309 96.7288 175.181 97.8181 178.911C99.4354 184.225 99.7325 188.912 99.4024 202.445L99.0723 214.658L97.686 217.892C96.9269 219.675 96.1347 221.952 95.9696 222.975C95.6726 224.527 95.3095 225.187 93.6921 227.068C91.1506 230.006 90.2924 231.524 89.1041 235.221C88.543 236.905 87.9159 238.588 87.7178 238.951C87.5198 239.347 86.2655 240.139 84.9122 240.766C83.5589 241.361 81.5124 242.648 80.3572 243.605C79.2019 244.562 77.0894 246.081 75.6371 246.939C74.2178 247.83 71.5112 249.513 69.5968 250.669C64.2166 254.002 57.7141 259.086 53.4562 263.31C48.5381 268.163 38.1078 279.385 36.0283 282.059C35.1701 283.181 33.2227 285.458 31.7703 287.109C30.285 288.759 28.7007 290.905 28.2386 291.829C26.5552 295.13 26.0271 303.711 26.0271 327.444C26.0271 345.697 26.2581 349.328 27.5124 352.364C28.4036 354.477 28.6016 356.919 28.1725 359.989C27.9415 361.573 27.6444 364.775 27.5454 367.152C27.3144 371.344 26.6212 375.304 23.6175 389.531C22.2642 395.868 22.0992 395.571 27.0833 395.901L30.6151 396.132L30.087 397.155C29.2948 398.674 23.9146 403.856 20.9109 406.001C16.719 408.972 14.7385 410.061 10.2495 411.844C6.98182 413.164 5.36446 414.055 3.05395 415.771C0.545387 417.653 0.116292 418.148 0.0172695 419.039C-0.147767 420.591 0.875461 421.449 2.8559 421.449C3.71409 421.482 5.00138 421.68 5.72754 421.944C7.60896 422.637 12.065 422.571 15.0686 421.812C16.4879 421.449 18.7985 420.987 20.2838 420.789C23.5185 420.359 24.0796 420.194 27.7434 418.676C31.6383 417.059 33.9818 416.564 41.3095 415.804C44.7422 415.474 48.175 415.012 48.9342 414.814C51.0136 414.286 52.9611 412.999 53.8193 411.646C54.5124 410.49 54.5784 410.094 54.5124 406.1C54.4464 403.394 54.1823 400.687 53.7862 398.839C53.2581 396.231 53.2251 395.802 53.6542 395.307C54.0833 394.845 54.0173 394.218 53.1921 390.026C52.3339 385.57 52.2679 384.844 52.3009 377.219C52.3339 372.763 52.499 367.449 52.697 365.402C53.0271 362.068 53.1591 361.573 54.0503 360.451C54.5784 359.791 55.6347 357.877 56.3608 356.226C57.5821 353.487 57.7471 352.793 58.0772 348.965C58.2752 346.621 58.4733 343.287 58.5063 341.571C58.5723 339.062 58.7704 338.039 59.4305 336.455C60.5528 333.88 61.0149 328.929 60.2557 327.51C59.6285 326.322 60.0907 324.737 61.0809 324.737C62.1041 324.737 63.8205 322.79 64.6127 320.644C66.164 316.485 72.1053 309.389 76.8584 306.055C78.2117 305.098 80.7863 303.084 82.6017 301.566C87.4868 297.44 98.2141 289.551 100.459 288.429C103.594 286.845 110.757 283.808 113.827 282.719C115.741 282.059 117.523 281.696 119.471 281.597C122.045 281.432 122.475 281.498 124.917 282.455C130.924 284.864 139.836 290.112 149.145 296.78C155.944 301.632 177.201 317.509 186.278 324.539C200.24 335.333 202.517 337.115 210.373 343.551C218.823 350.45 222.388 353.189 225.557 355.236C226.646 355.929 229.484 357.976 231.828 359.725C236.02 362.861 241.499 366.59 243.48 367.713C244.8 368.406 245.262 369.198 250.609 379.496C255.725 389.366 255.527 389.035 259.587 393.723C261.237 395.637 262.855 397.584 263.185 398.113C263.878 399.202 263.779 399.202 268.895 396.957C270.975 396.066 272.724 395.406 272.823 395.472C272.889 395.571 273.087 396.66 273.285 397.881C273.45 399.136 273.813 400.786 274.11 401.545C274.803 403.394 276.322 404.12 281.108 404.747C283.121 405.044 286.488 405.506 288.535 405.77C290.548 406.067 294.674 406.958 297.678 407.784C308.372 410.655 313.521 411.348 319.76 410.787C323.588 410.424 323.885 410.325 324.513 409.5C325.437 408.246 325.074 407.289 323.192 406.133C322.334 405.572 320.783 404.516 319.76 403.757C318.769 402.998 316.558 401.842 314.874 401.182C309.725 399.202 302.695 394.878 297.48 390.554C296.06 389.333 294.014 387.781 292.958 387.055C291.637 386.164 291.076 385.57 291.208 385.24C291.34 384.943 290.383 383.556 288.634 381.576C287.148 379.826 283.715 375.701 281.042 372.433C278.368 369.165 275.464 365.732 274.572 364.775C273.681 363.851 272.658 362.498 272.328 361.804C271.965 361.111 271.107 359.659 270.381 358.57C269.687 357.447 268.697 355.83 268.136 354.972C263.053 346.786 255.032 335.729 251.071 331.471C249.19 329.424 247.176 327.18 246.615 326.454C246.021 325.727 244.602 324.572 243.48 323.879C240.047 321.833 238.759 320.578 237.472 318.169C236.284 315.891 234.766 314.274 232.653 312.954C231.498 312.26 228.329 308.861 227.339 307.243C227.042 306.781 226.712 306.022 226.613 305.527C226.481 305.065 225.854 303.943 225.193 303.084C224.533 302.259 223.774 300.774 223.51 299.85C223.246 298.925 221.959 296.153 220.671 293.71C216.347 285.425 211.363 277.537 203.673 266.842C199.283 260.736 196.774 256.907 195.553 254.497C194.167 251.758 192.912 250.537 191.229 250.273C189.248 250.008 188.72 249.315 185.981 243.704C184.858 241.427 183.076 239.215 181.558 238.258C180.997 237.895 180.634 237.037 180.072 234.792C179.181 231.293 178.521 229.841 176.838 227.597C175.847 226.309 175.55 225.55 175.385 224.098C175.121 221.49 174.329 218.354 173.438 216.176C173.009 215.153 172.415 212.611 172.118 210.532C171.821 208.452 171.325 205.845 171.028 204.755C169.774 200.332 170.929 188.945 173.273 182.376C173.966 180.363 174.56 178.515 174.56 178.251C174.56 177.986 175.352 175.973 176.343 173.762C178.29 169.372 178.95 167.391 179.511 164.618C179.94 162.407 181.195 160.889 181.954 161.714C182.185 161.978 183.703 164.255 185.321 166.764C187.532 170.296 189.017 172.177 191.559 174.719C194.563 177.788 195.157 178.217 198.49 179.835C200.504 180.792 203.178 182.211 204.432 182.971C209.68 186.139 212.849 187.328 218.031 188.087C219.45 188.285 221.695 188.747 223.015 189.11C224.83 189.605 226.052 189.737 227.801 189.638C229.121 189.539 233.61 189.242 237.835 188.978C246.45 188.384 247.572 188.186 250.213 186.568C251.236 185.941 252.557 185.347 253.184 185.215C253.778 185.116 254.933 184.687 255.758 184.291C256.583 183.862 258.069 183.433 259.059 183.334C261.535 183.004 264.274 182.211 265.627 181.452C267.443 180.396 272.262 178.515 274.407 178.019C278.764 177.029 282.362 175.148 285.333 172.342C286.95 170.857 287.049 170.659 287.247 168.678C287.379 167.523 287.61 166.203 287.808 165.774C288.006 165.18 287.973 164.651 287.577 163.925C287.082 162.968 287.082 162.836 287.742 161.681C288.799 159.766 288.667 158.875 287.115 157.885C285.894 157.126 285.795 156.928 285.795 155.607C285.795 154.782 285.696 153.891 285.597 153.594C285.168 152.538 283.418 152.01 279.623 151.812C276.421 151.647 275.86 151.515 275.134 150.854C274.44 150.194 274.143 150.128 272.394 150.326C269.819 150.623 268.07 151.515 267.476 152.868C267.245 153.462 266.552 155.475 265.991 157.39C264.538 162.11 264.307 162.539 262.789 162.836C262.096 162.935 260.247 163.364 258.663 163.727C256.352 164.255 255.593 164.321 254.735 164.024C253.151 163.496 250.972 163.595 248.299 164.321C245.031 165.246 241.202 165.279 237.274 164.387C235.393 163.958 232.917 163.694 231.069 163.694C229.121 163.661 227.57 163.463 226.811 163.166C226.184 162.902 225.259 162.671 224.764 162.671C224.302 162.671 223.18 162.209 222.256 161.681C221.365 161.153 220.341 160.691 220.011 160.691C219.714 160.691 218.097 159.799 216.48 158.677C213.41 156.598 210.538 153.792 208.195 150.524C207.435 149.501 206.148 147.851 205.356 146.927C204.333 145.738 203.607 144.352 202.979 142.471C201.626 138.609 200.834 136.859 199.217 134.351C198.457 133.129 197.104 130.852 196.213 129.301C194.299 125.868 192.648 123.623 189.347 120.026C186.047 116.395 184.594 115.405 182.119 115.107C180.072 114.876 178.785 114.216 171.49 109.76C169.543 108.572 167.167 107.351 166.209 107.087C165.285 106.79 162.116 105.7 159.212 104.644L153.931 102.697L152.775 100.98C152.148 100.056 150.993 98.8348 150.234 98.2737C148.88 97.3165 148.814 97.1844 148.814 95.5671C148.814 94.6099 149.178 92.5304 149.64 90.88C150.366 88.2725 150.465 87.2492 150.465 82.5952C150.465 75.4326 149.31 67.0817 147.824 63.5169C145.514 57.9717 142.444 54.5719 137.625 52.1624L134.522 50.6111H129.538C124.686 50.6441 124.488 50.6441 122.078 51.7003C115.906 54.3409 111.516 57.7737 109.8 61.3715C108.512 64.0121 108.215 66.5206 108.215 74.4094C108.215 84.5426 108.942 87.7443 112.374 92.5964C113.332 93.9167 113.926 95.237 114.157 96.3923C114.355 97.3495 114.982 99.495 115.576 101.178C116.137 102.862 116.5 104.314 116.368 104.446C116.236 104.578 115.345 104.281 114.388 103.786C111.516 102.334 110.889 102.367 105.806 104.05C98.9403 106.36 96.1677 107.747 93.3621 110.321C92.0418 111.543 90.5564 112.731 90.0943 112.995C88.8731 113.622 83.7569 114.018 82.8987 113.556C82.5357 113.358 81.9745 112.632 81.6445 111.972C81.2814 111.213 80.6872 110.618 79.9941 110.321C79.1689 109.991 78.7728 109.529 78.4757 108.638C78.1127 107.45 75.307 104.347 73.1286 102.697C72.6004 102.301 71.2801 101.145 70.2239 100.122C68.6726 98.6368 68.2765 98.0426 68.2765 97.2505C68.2765 96.4253 67.8804 95.8642 66.296 94.3788C65.2068 93.3556 64.0515 91.8703 63.6885 91.0451C62.5332 88.5035 60.5197 85.5659 58.2422 83.0903C55.7997 80.4497 55.4696 79.6245 56.0638 77.8751C57.5821 73.4192 58.3743 70.1844 58.3743 68.5011C58.3743 67.4778 58.5063 66.6196 58.6383 66.6196C58.7704 66.6196 59.7936 66.9497 60.8498 67.3128C63.4244 68.237 66.3951 68.303 68.0454 67.4778C68.7386 67.1147 69.9268 66.0585 70.653 65.0683C72.1053 63.1869 73.3266 62.3287 74.6799 62.3287C75.142 62.3287 75.6041 62.1636 75.7031 61.9986C75.8352 61.8006 75.5051 61.6685 74.977 61.6685C74.4819 61.6685 73.8217 61.5035 73.5577 61.3055C73.1946 61.0414 73.3596 61.0084 74.3168 61.0744C74.977 61.1404 75.5381 61.1074 75.5381 61.0084C75.5381 60.5793 73.8217 60.0182 72.5014 60.0182C71.2801 60.0182 70.9831 60.2162 69.1347 62.1306C67.6163 63.715 66.8242 64.3091 65.8999 64.4742C65.2398 64.6062 64.4806 64.6062 64.2496 64.4411C64.0185 64.3091 64.1836 64.6062 64.6457 65.1013C65.3058 65.8275 65.3718 66.0585 64.9757 66.2896C64.4806 66.5866 62.8963 66.3886 61.9391 65.8935C61.3119 65.5964 61.1139 64.6392 61.675 64.6392C61.873 64.6392 62.7312 63.946 63.5894 63.0548C69.5968 57.1135 82.3706 47.5744 114.652 24.9313C132.575 12.3555 140.695 7.07436 146.999 3.87265C149.739 2.48634 150.63 1.89221 150.63 1.3971C150.63 0.0437957 146.273 -0.451315 141.751 0.472891ZM143.896 1.33108C142.972 1.52913 142.411 1.8592 142.312 2.25529C142.147 2.91544 140.629 3.44355 140.2 3.01446C139.77 2.55235 140.794 1.52913 141.949 1.26507C142.543 1.13304 143.566 1.00101 144.193 1.00101C145.316 1.00101 145.316 1.00101 143.896 1.33108ZM149.805 1.29808C150.168 1.52913 149.838 1.56213 148.649 1.3971C147.758 1.26507 146.933 1.13304 146.867 1.06702C146.537 0.769958 149.376 0.968002 149.805 1.29808ZM66.9232 56.4204C67.5503 57.1795 67.8804 57.7407 67.6823 57.6746C67.1542 57.5096 64.3156 54.0108 64.3156 53.5817C64.3486 53.2517 64.7117 53.6477 66.9232 56.4204ZM55.8327 64.4742C56.3938 65.3323 56.2948 65.2663 55.1065 64.1441C54.3474 63.4179 53.5552 62.5267 53.3572 62.1636C52.862 61.2724 54.9085 63.1539 55.8327 64.4742ZM50.1224 64.1771C50.1224 64.4411 49.9904 64.5732 49.7924 64.4742C49.6273 64.3751 49.4623 64.1441 49.4623 63.946C49.4623 63.781 49.6273 63.649 49.7924 63.649C49.9904 63.649 50.1224 63.88 50.1224 64.1771ZM137.724 78.8654C138.186 79.2945 135.876 80.1196 135.215 79.7566C134.423 79.3605 134.456 78.9974 135.38 78.5683C136.107 78.2052 137.163 78.3372 137.724 78.8654ZM138.912 84.3116C138.912 85.4008 137.823 85.3018 137.658 84.1795C137.559 83.6184 137.724 83.4534 138.219 83.4534C138.747 83.4534 138.912 83.6514 138.912 84.3116ZM275.035 157.258C275.299 157.951 275.299 158.05 274.936 158.05C274.77 158.05 274.572 157.753 274.473 157.39C274.275 156.598 274.737 156.499 275.035 157.258Z" fill="#8A90AC"/>
<path d="M556.063 29.8664C555.224 30.0872 553.899 30.7494 553.193 31.3234C551.78 32.3388 547.674 38.1224 547.674 39.0054C547.674 39.5352 547.365 39.6235 544.672 39.4911C543.657 39.4469 541.758 39.756 540.478 40.1533C537.608 41.0804 537.564 41.0804 535.975 42.14C535.268 42.6257 534.297 43.1555 533.899 43.2879C533.458 43.4645 533.105 43.6853 533.105 43.8619C533.105 43.9943 530.014 46.4226 526.262 49.204C522.509 51.9854 519.33 54.6785 519.153 55.1642C518.933 55.8264 519.286 56.4004 520.743 57.6366C523.348 59.8882 526.482 60.4621 534.518 60.1089C540.08 59.8882 540.61 59.9324 540.434 60.5946C538.27 67.6585 538.314 67.4378 538.844 69.2479C539.197 70.3075 539.418 73.8836 539.462 78.0337C539.551 85.7599 539.816 85.1418 535.975 85.6716C533.237 86.0248 526.571 87.7466 522.862 88.9828C518.094 90.6164 513.282 93.5744 510.5 96.6207C509.308 97.8569 509.22 97.9011 506.085 97.6362C504.319 97.5037 501.67 97.1947 500.213 96.9298C497.653 96.4883 493.591 95.9143 486.968 95.1196C485.291 94.8989 482.377 94.3249 480.567 93.7951C478.757 93.3095 476.461 92.6472 475.489 92.4265C474.518 92.1616 473.547 91.8084 473.326 91.5435C473.061 91.3228 472.531 91.1462 472.134 91.1462C469.662 91.1462 464.585 88.7621 462.377 86.5987C461.715 85.9365 460.037 85.0094 457.035 83.5966C454.827 82.6253 452.311 79.7997 452.311 78.3428C452.311 77.9013 451.914 77.1066 451.472 76.5326C450.633 75.5172 450.589 75.5172 449.75 76.2677C448.602 77.3273 447.631 77.0183 445.291 74.8549C443.569 73.2655 443.481 73.0006 443.922 72.0735C444.673 70.6607 446.616 68.6298 447.278 68.6298C447.543 68.6298 448.028 68.3208 448.337 67.9676C448.823 67.3936 448.691 67.3053 447.543 67.3053C445.6 67.3053 444.099 67.9676 442.642 69.4687C441.671 70.44 441.229 70.6607 440.92 70.2634C440.214 69.3804 439.419 66.4665 439.684 65.6718C439.817 65.2303 439.64 64.4798 439.287 64.0383C438.669 63.2436 438.58 63.2436 437.83 63.9058C437.079 64.5681 434.783 64.6564 414.784 64.7447L392.532 64.8771L392.135 66.8638C391.914 68.1 391.958 69.9543 392.312 71.8086L392.841 74.8108L407.676 74.8991L422.51 75.0315L422.377 76.2677C422.245 77.7247 423.084 80.6385 423.79 81.08C424.055 81.2566 425.203 81.4332 426.395 81.4332C428.161 81.4332 428.47 81.5657 428.47 82.2721C428.47 82.7577 428.956 83.729 429.574 84.4354C430.192 85.186 430.678 86.0689 430.678 86.4663C430.678 86.8636 430.987 87.3051 431.34 87.4376C432.708 87.9674 432.576 89.4243 431.075 91.0137L429.574 92.5148L429.706 96.5766C429.839 101.036 430.722 104.877 431.914 106.069C432.355 106.51 433.68 107.217 434.872 107.658C438.934 109.159 444.055 111.543 444.276 111.985C444.364 112.206 444.673 112.338 444.982 112.338C445.644 112.338 449.662 116.4 449.662 117.106C449.662 117.415 449.927 117.636 450.236 117.636C451.384 117.636 457.388 124.479 458.845 127.481C459.596 129.071 460.258 130.66 460.258 130.969C460.258 131.852 462.995 134.545 464.673 135.34C465.512 135.737 469.794 137.812 474.165 139.976C483.701 144.611 485.07 144.876 490.5 143.066C492.443 142.404 495.975 141.477 498.447 140.991C500.876 140.461 503.657 139.578 504.628 139.004C508.558 136.709 511.825 135.605 513.502 136.002C514.385 136.223 514.385 136.444 514.209 144.7C513.856 159.931 513.9 162.757 514.694 172.249L515.489 181.609L514.518 184.39C514.032 185.935 513.591 188.231 513.635 189.467C513.635 191.984 513.37 192.205 511.471 191.145C509.75 190.174 507.233 190.306 506.085 191.454C505.202 192.337 505.07 193.044 504.761 199.269C504.452 205.405 504.496 206.244 505.202 207.436C505.644 208.187 506.438 208.849 506.968 208.937C508.072 209.114 508.204 209.953 507.321 211.586C507.012 212.249 506.394 213.485 506.041 214.324C503.834 219.224 503.083 220.99 502.2 223.154C501.67 224.478 501.008 226.156 500.699 226.906C500.346 227.613 499.772 229.114 499.33 230.218C498.933 231.321 498.315 232.778 498.006 233.529C496.99 235.825 493.988 244.522 492.796 248.76C491.339 253.793 490.765 256.575 490.5 259.356C490.368 260.946 490.059 263.33 489.838 264.654C489.617 265.979 489.132 269.555 488.734 272.601C487.366 283.506 486.703 287.347 485.909 288.804C484.275 291.983 483.878 293.705 483.878 297.767C483.878 300.636 484.099 302.535 484.584 303.727C487.101 309.952 488.028 315.073 488.072 322.711C488.072 332.689 489.617 342.799 492.752 353.837C493.856 357.633 493.9 366.817 492.884 369.73C490.986 375.028 490.633 377.015 490.854 381.254C490.986 383.549 491.251 386.066 491.383 386.861C492.046 389.995 489.043 392.732 481.67 395.735C474.43 398.648 472.399 400.282 471.913 403.593C471.781 404.609 471.384 405.712 471.03 405.977C470.368 406.507 470.192 409.774 470.765 410.613C470.942 410.878 471.781 411.452 472.62 411.849C481.052 416.132 497.608 414.587 503.436 409.024C505.29 407.214 507.101 406.684 509.087 407.214C511.383 407.876 514.65 407.832 516.019 407.125C516.637 406.86 518.624 405.889 520.478 405.05L523.789 403.505L523.833 399.841C523.833 397.81 524.054 395.779 524.275 395.293C524.628 394.675 524.584 394.189 524.187 393.439C523.833 392.821 523.613 390.569 523.613 386.905C523.613 381.563 523.568 381.298 522.421 379.752C521.714 378.914 521.184 378.031 521.184 377.898C521.184 377.722 520.875 377.324 520.522 376.971C519.639 376.044 519.683 373.748 520.61 372.733C521.449 371.805 521.582 368.141 520.787 366.11C519.992 363.947 519.772 357.678 520.257 346.64C520.699 335.382 520.478 331.1 519.153 324.036C518.27 319.488 517.343 316.221 515.975 313.263C514.341 309.554 514.253 308.23 515.622 306.155C516.24 305.184 516.769 304.168 516.769 303.903C516.769 303.329 515.092 301.74 514.474 301.74C513.767 301.74 514.12 300.46 514.915 300.239C517.432 299.444 519.595 295.78 520.081 291.586C520.655 286.508 522.244 281.431 524.231 278.429C525.158 277.06 526.482 274.941 527.189 273.793C527.895 272.601 528.822 271.1 529.22 270.482C529.661 269.82 530.235 268.849 530.5 268.275C530.809 267.745 531.206 267.303 531.427 267.303C531.604 267.303 531.78 267.083 531.78 266.818C531.78 266.597 532.619 265.052 533.679 263.418C534.738 261.785 536.593 258.429 537.785 255.957C538.977 253.484 540.213 251.454 540.522 251.409C540.831 251.409 541.405 252.16 541.802 253.043C543.392 256.752 545.29 260.504 545.82 261.034C546.085 261.343 546.35 261.785 546.35 262.005C546.35 262.579 550.191 268.098 552.398 270.659C553.414 271.895 554.297 273.131 554.297 273.396C554.297 273.661 554.473 273.926 554.694 274.014C555.224 274.191 558.27 280.813 558.27 281.784C558.27 282.182 558.8 283.904 559.418 285.625C560.036 287.303 560.654 289.113 560.787 289.599C560.919 290.084 561.581 291.762 562.332 293.352C563.038 294.941 563.921 296.928 564.319 297.767C564.672 298.605 565.157 299.621 565.334 300.018C565.864 301.078 566.968 305.669 567.321 308.142C567.806 312.115 569.219 315.559 572.31 320.371C573.325 322.005 574.164 323.506 574.164 323.771C574.164 323.991 574.296 324.256 574.517 324.345C575.047 324.565 579.285 331.762 580.698 334.852C581.449 336.442 582.155 338.428 582.287 339.267C582.42 340.106 582.641 341.386 582.773 342.137C582.861 342.843 583.082 344.035 583.259 344.742C583.391 345.448 583.568 346.508 583.656 347.17C583.833 348.848 585.378 354.146 586.57 357.148C586.747 357.633 587.232 358.826 587.63 359.797C590.014 365.625 590.19 366.508 590.146 374.587C590.146 382.843 590.19 383.152 592.619 385.624C594.296 387.346 595.356 389.819 595.356 392.114C595.356 394.234 596.592 397.589 597.519 398.163C597.784 398.339 598.005 399.885 598.005 401.916C598.005 406.507 599.064 408.803 601.36 409.244C604.053 409.73 604.627 410.304 604.627 412.556C604.627 416.176 607.1 418.692 613.678 421.695C615.047 422.313 616.503 422.489 620.3 422.445C624.848 422.445 625.333 422.357 628.027 421.032C631.559 419.311 632 418.472 632 413.527C632 407.434 631.47 406.375 625.775 401.386C621.139 397.28 620.609 396.662 620.124 394.675C619.506 392.203 619.506 389.289 620.124 388.891C621.139 388.273 619.373 381.563 617.74 380.061C616.724 379.134 616.548 378.605 616.548 376.53C616.548 374.499 616.194 373.307 614.605 369.995C611.824 364.256 611.647 363.594 611.25 356.706C611.029 353.307 610.676 349.024 610.411 347.214C610.146 345.404 609.528 341.033 609.042 337.501C607.938 329.334 607.1 326.287 605.201 323.727C604.186 322.314 603.7 321.21 603.788 320.415C603.833 319.709 603.7 318.782 603.523 318.296C603.214 317.413 599.815 310.57 597.21 305.493C593.943 299.091 593.237 295.206 592.972 281.873C592.795 271.718 592.265 267.083 590.676 260.548C589.263 254.853 588.645 252.425 588.115 250.526C586.835 246.244 586.129 243.595 585.466 241.034C585.113 239.577 584.539 237.193 584.142 235.736C583.48 232.955 582.464 227.171 581.625 221.167C581.36 219.224 581.051 213.441 580.919 208.275C580.698 199.225 580.698 198.915 581.625 197.723C582.464 196.664 582.552 196.002 582.552 190.13C582.552 180.991 582.994 179.048 586.747 171.278C591.647 161.079 593.943 154.192 596.018 143.022C596.46 140.638 597.078 138.695 597.563 138.166C598.755 136.841 599.02 135.252 598.27 133.53C597.784 132.338 597.696 130.881 597.872 127.216C598.226 121.168 597.078 114.943 594.649 109.38C594.296 108.629 594.031 107.791 594.031 107.526C594.031 107.261 593.855 107.04 593.59 107.04C593.369 107.04 593.148 106.819 593.148 106.51C593.148 105.583 585.775 95.1196 585.113 95.1196C584.936 95.1196 584.76 94.8989 584.76 94.6781C584.76 94.4132 583.921 93.4419 582.95 92.4706C581.228 90.793 581.14 90.6164 581.405 88.7621C581.758 86.4663 581.228 85.186 578.491 81.5215C577.519 80.2412 576.813 78.8284 576.901 78.4311C576.99 78.0337 577.828 77.3273 578.8 76.8417C579.771 76.4002 580.698 75.8262 580.875 75.5172C581.051 75.2523 581.095 73.5304 580.963 71.6762C580.742 68.9389 580.786 68.2325 581.405 67.6585C581.802 67.2612 582.111 66.8197 582.111 66.6431C582.111 66.5106 582.641 65.8926 583.259 65.3186C584.407 64.259 584.627 64.2149 588.689 64.4798C594.208 64.833 605.952 63.7292 605.952 62.8904C605.952 62.6696 605.51 62.3606 604.98 62.184C604.451 62.0515 602.552 61.0361 600.742 59.9765C598.976 58.9169 597.387 58.0339 597.254 58.0339C596.548 58.0339 584.318 49.513 584.142 48.8508C584.053 48.4534 583.789 46.2901 583.656 44.1268C583.215 37.7251 581.493 35.341 576.195 33.7516C568.16 31.3675 559.683 29.2925 558.27 29.3808C557.917 29.3808 556.901 29.6015 556.063 29.8664ZM461.847 104.17C463.172 104.788 464.805 105.406 465.556 105.539C466.836 105.804 466.88 105.892 466.88 108.188C466.88 109.512 466.792 110.572 466.66 110.572C466.571 110.572 465.6 110.086 464.496 109.468C463.392 108.85 461.936 108.365 461.185 108.365C459.684 108.365 457.035 106.113 456.329 104.259C455.887 103.067 455.887 103.067 457.697 103.067C458.713 103.067 460.523 103.552 461.847 104.17ZM484.496 117.018C485.688 117.503 485.865 117.768 485.467 118.254C484.761 119.093 482.686 119.446 480.964 118.96C479.507 118.519 477.476 116.93 477.476 116.179C477.476 115.649 482.598 116.267 484.496 117.018Z" fill="#C1C4D3"/>
<path d="M243 64.1295C245.2 65.648 247.395 67.341 249.565 69.0421C251.734 70.7433 253.893 72.5053 256.042 74.3283C258.191 76.1512 260.34 77.9742 262.496 79.9108C264.634 81.7946 266.763 83.7394 268.892 85.6841C277.397 93.524 285.838 101.904 294.192 110.657C302.545 119.41 310.854 128.582 319.082 138.241C321.13 140.673 323.178 143.105 325.216 145.597C326.235 146.844 327.254 148.09 328.273 149.337L331.319 153.137C333.347 155.691 335.365 158.305 337.372 160.981C339.38 163.656 341.403 166.385 343.38 169.243C341.181 167.724 339.001 166.084 336.816 164.33C334.646 162.629 332.487 160.867 330.338 159.044L327.12 156.279C326.05 155.337 324.981 154.395 323.911 153.453C321.772 151.57 319.643 149.625 317.515 147.68C309.009 139.84 300.595 131.452 292.199 122.654C283.845 113.901 275.536 104.729 267.335 95.0625C265.287 92.6306 263.239 90.1987 261.201 87.7058C259.163 85.213 257.125 82.7202 255.081 80.1137C253.054 77.5599 251.036 74.9453 249.029 72.2698C246.974 69.7242 244.977 66.9878 243 64.1295Z" fill="black"/>
<path d="M252.088 68.4424C253.735 69.6537 255.379 70.9279 257.014 72.2097C259.428 74.1031 261.831 76.0644 264.224 78.0936C266.621 80.1276 269.013 82.1563 271.411 84.3109L271.415 84.3142C273.796 86.4115 276.167 88.5772 278.541 90.7466C288.019 99.4824 297.425 108.821 306.737 118.578C316.048 128.335 325.309 138.557 334.48 149.322C336.764 152.035 339.045 154.744 341.315 157.521L343.02 159.607L344.722 161.688L344.725 161.692L348.118 165.925C348.119 165.925 348.119 165.925 348.119 165.926C350.377 168.77 352.625 171.683 354.861 174.663C356.536 176.896 358.219 179.158 359.882 181.488C358.237 180.289 356.597 179.028 354.954 177.709L354.949 177.706C352.535 175.812 350.132 173.851 347.74 171.822C347.74 171.822 347.739 171.822 347.739 171.822L344.156 168.744L344.152 168.74L342.367 167.168L340.578 165.592C338.196 163.495 335.825 161.329 333.451 159.159C323.974 150.424 314.597 141.076 305.237 131.269C295.926 121.512 286.665 111.29 277.524 100.516C275.24 97.8032 272.958 95.0938 270.688 92.317C268.415 89.5359 266.145 86.7593 263.869 83.8567L263.867 83.8543C261.608 81.0096 259.361 78.0969 257.124 75.1162L257.119 75.1092L257.113 75.1023C255.41 72.9917 253.741 70.7614 252.088 68.4424Z" stroke="#FF0000"/>
</svg>
