<svg width="697" height="456" viewBox="0 0 697 456" fill="none" xmlns="http://www.w3.org/2000/svg">
<path d="M103.27 11.7194C99.9133 12.8104 96.2205 14.8247 94.5419 16.755C92.4437 19.105 92.108 19.0211 85.3098 15.5801C78.3438 12.0551 72.8885 11.6355 69.5314 14.3212C64.4118 18.3497 63.069 27.6657 66.7618 33.2049L68.9439 36.3103L66.0064 39.4995C62.985 42.8566 60.3833 47.4727 59.2083 51.2494C58.8726 52.4244 57.1101 56.369 55.3476 60.0618C52.1583 66.6082 48.8851 77.0992 47.0387 86.5831C46.2834 90.5277 45.6119 91.7027 43.178 93.4652C37.0513 97.8294 29.8335 109.579 25.3014 122.924C20.6854 136.268 18.5872 144.074 17.1604 152.802C15.3979 164.216 14.6425 187.632 15.8175 195.018C16.6568 200.054 16.489 201.564 14.7265 208.446C12.3765 217.762 10.7819 233.121 11.0336 243.78C11.1176 249.655 10.6979 253.432 9.01938 260.23C4.90691 276.932 3.89978 287.087 3.81585 312.685C3.81585 337.527 4.31942 342.731 8.1801 358.426C10.1944 366.734 10.2783 368.077 9.85866 384.024L9.52295 400.809L4.73906 419.693C-1.89125 445.794 -1.72339 449.152 6.24976 453.18C10.8658 455.446 14.0551 455.614 22.28 454.103C28.4907 453.012 31.7638 451.669 33.5263 449.571C34.1978 448.816 35.3727 448.228 36.212 448.228C40.4084 448.228 41.5834 442.186 38.6459 434.8C36.7995 430.016 36.4638 422.043 37.8906 416.755C38.3941 414.909 42.003 408.866 45.7798 403.327C57.2779 386.625 62.1457 376.974 62.1457 371.015C62.1457 368.077 63.4047 367.825 66.0064 370.259L67.8528 372.022L68.3564 369.588C68.6082 368.329 69.0278 365.308 69.3635 363.042C70.1189 357.251 71.0421 355.74 71.7975 359.097C72.385 361.867 75.1546 365.979 76.4974 365.979C76.9171 365.979 77.2528 365.224 77.2528 364.217C77.2528 363.126 77.6724 362.622 78.3438 362.874C89.5062 367.574 93.9544 369.84 95.3812 371.434C96.3883 372.441 97.5633 373.113 98.0669 372.777C99.4097 371.938 100.753 367.825 100.165 366.231C99.8294 365.392 99.9972 365.056 100.501 365.392C101.004 365.727 101.592 368.245 101.928 371.015C102.263 373.868 102.851 375.883 103.354 375.631C105.033 374.54 107.719 376.386 109.145 379.659C109.985 381.59 111.328 387.297 112.083 392.416C114.181 406.264 116.447 414.657 118.545 416.923C121.063 419.609 129.54 423.554 135.163 424.645C140.45 425.652 156.984 425.736 158.243 424.729C158.747 424.393 160.257 423.889 161.6 423.554C165.293 422.63 167.056 420.7 167.056 417.427C167.056 411.552 163.027 407.775 153.543 404.67C151.949 404.166 149.347 402.656 147.836 401.397L145.15 399.131L146.913 375.211C150.354 329.89 148.256 299.34 140.45 279.701L138.352 274.33L140.031 263.755C141.038 257.88 142.045 249.571 142.381 245.375C142.717 240.675 143.388 237.234 143.975 236.73C144.815 236.059 147.668 236.143 154.131 237.15C163.447 238.493 168.65 238.241 171.756 236.31C173.434 235.219 173.602 235.303 174.106 237.737C174.945 242.018 174.693 244.2 173.182 245.039C171.84 245.794 171.923 245.878 173.602 245.962C176.204 245.962 176.875 248.228 175.197 251.166C173.854 253.432 173.854 253.516 175.868 253.516C178.638 253.516 179.057 254.691 177.127 256.453C174.693 258.635 175.029 259.558 178.218 259.223C180.148 259.055 180.904 259.307 180.904 260.23C180.904 262.076 181.659 262.412 185.939 262.076C191.059 261.657 191.982 260.146 193.409 249.235C194.08 244.451 195.591 237.653 196.766 234.212C199.62 226.155 200.627 219.609 199.62 216.084C198.864 213.314 198.109 212.559 181.407 198.963C175.281 194.011 173.098 191.661 171.336 188.052C170.077 185.45 167.223 181.002 165.125 178.148C162.943 175.127 161.013 171.518 160.761 169.756C157.824 152.215 154.047 140.633 148.591 132.659C147.836 131.484 146.745 127.372 146.242 123.427C145.57 119.147 144.311 114.363 142.8 111.174C140.954 107.229 140.367 104.795 140.45 100.935C140.45 97.0741 139.947 95.0598 138.268 91.9545C135.583 87.1706 135.583 87.0866 137.597 87.7581C138.772 88.0938 139.359 87.7581 139.779 86.4991C140.618 83.8974 143.388 82.4706 149.85 81.4635C162.44 79.617 166.552 76.5957 165.629 69.8814C164.79 63.2511 162.02 60.1458 162.02 65.685C162.02 69.21 161.013 70.8046 158.999 70.385C157.656 70.1332 157.404 69.21 157.152 65.0975C156.9 58.1315 157.404 57.544 164.202 57.544H169.741L171.504 54.1869C172.427 52.3405 173.602 48.8994 173.938 46.6334C174.357 44.2834 174.861 41.262 175.113 39.8352C175.7 36.4781 174.609 35.5549 164.79 31.946C157.152 29.1764 156.732 28.8407 155.725 25.8193C155.138 24.0568 153.963 21.7907 153.04 20.8675C151.109 18.6015 143.808 15.1604 141.038 15.1604C139.863 15.1604 134.743 14.2372 129.708 13.0622C120.392 10.964 107.886 10.3765 103.27 11.7194Z" fill="#8A90AC"/>
<mask id="path-2-inside-1" fill="white">
<path d="M256.094 123.916C256.041 123.967 256.108 124.151 256.247 124.312C256.384 124.458 256.542 124.897 256.589 125.277C256.663 125.875 256.72 125.971 256.968 125.94C257.128 125.921 257.25 125.831 257.241 125.758C257.207 125.481 257.573 125.569 258.906 126.159C262.903 127.929 268.038 131.35 269.84 133.452C270.792 134.563 271.986 135.585 274.38 137.332C275.765 138.345 275.781 138.358 277.674 141.189C279.839 144.431 280.356 144.9 280.175 143.441L280.101 142.843L280.844 143.935C281.244 144.537 282.095 145.661 282.723 146.428L283.873 147.811L283.677 148.264C283.458 148.766 283.544 148.977 284.404 149.818C285.096 150.503 285.467 151.227 285.434 151.794C285.407 152.049 285.22 152.694 285.004 153.225C284.553 154.362 284.542 154.512 285.009 154.454C285.578 154.383 286.544 154.648 287.526 155.163C289.076 155.948 289.906 156.912 289.659 157.668C289.407 158.499 288.747 158.433 287.397 157.46C286.178 156.59 285.869 156.732 286.709 157.768L287.254 158.456L286.92 158.986C286.622 159.453 286.595 159.589 286.753 160.384C286.969 161.528 287.606 162.486 289.322 164.257C290.036 164.998 290.639 165.679 290.65 165.766C290.677 165.985 291.654 166.219 292.223 166.149C292.486 166.116 292.832 166.162 292.975 166.233C293.12 166.333 293.548 167.154 293.972 168.183C294.376 169.17 294.835 170.12 294.991 170.308C295.39 170.777 295.275 171.161 294.496 171.806C293.801 172.411 293.702 172.808 294.205 173.042C294.44 173.146 294.482 173.245 294.406 173.462C294.283 173.788 294.786 174.614 295.338 175.005C295.841 175.357 296.781 176.603 297.303 177.59C298.197 179.301 298.377 179.56 299.447 180.657C300.261 181.489 300.547 181.883 300.556 182.193C300.61 182.986 301.009 183.692 301.67 184.128C302.024 184.351 302.448 184.787 302.619 185.092C303.338 186.35 304.196 187.533 304.907 188.244C305.754 189.102 306.524 190.295 308.724 194.169C312.083 200.107 314.764 203.684 318.04 206.566C319.468 207.81 321.73 209.441 321.992 209.408C322.371 209.361 322.171 208.942 321.204 207.832L320.133 206.602L320.111 205.716C320.096 205.229 320.102 204.562 320.108 204.25C320.135 203.758 320.097 203.689 319.902 203.787C319.499 204 318.923 202.946 318.506 201.25C317.98 199.049 317.975 198.886 318.334 198.323L318.658 197.824L318.162 197.885C317.899 197.918 317.586 197.898 317.476 197.852C317.175 197.697 316.961 196.805 317.089 196.167C317.179 195.697 317.164 195.58 316.917 195.374C316.652 195.155 316.664 195.124 316.984 194.847L317.333 194.552L316.914 194.159C316.513 193.795 316.328 193.373 316.561 193.344C316.62 193.337 316.92 193.374 317.237 193.423C317.569 193.471 317.85 193.466 317.89 193.431C317.914 193.384 317.542 192.896 317.074 192.347L316.193 191.331L314.998 191.376L313.818 191.418L313.423 190.86C313.208 190.561 312.966 190.043 312.883 189.728C312.742 189.197 312.676 189.131 311.933 188.883C311.485 188.731 311.075 188.53 311.018 188.433C310.976 188.335 310.753 187.607 310.522 186.821C310.091 185.26 309.761 184.634 309.142 184.178C308.799 183.924 308.736 183.769 308.618 182.821C308.478 181.698 308.275 181.249 307.783 180.984C307.402 180.78 306.983 179.795 306.536 178.103C306.218 176.853 306.192 176.649 306.341 175.46C306.429 174.738 306.49 174.035 306.468 173.86C306.434 173.583 306.419 173.584 305.85 173.892C305.281 174.2 305.281 174.2 304.946 173.886C304.609 173.557 304.603 173.514 304.616 171.349L304.613 170.609L303.674 170.326C302.582 170.002 302.067 169.429 302.224 168.669C302.31 168.288 302.25 168.162 301.763 167.704C300.552 166.536 299.569 164.822 298.2 161.555C297.925 160.893 297.306 159.607 296.808 158.691C296.323 157.774 295.786 156.67 295.63 156.245C294.653 153.745 293.534 151.055 293.299 150.713C293.151 150.48 293.015 150.215 293.004 150.128C292.991 150.026 292.884 149.876 292.754 149.789C292.627 149.716 292.477 149.467 292.423 149.267C292.357 148.979 292.175 148.824 291.791 148.708C291.063 148.458 290.728 148.144 290.279 147.267C290.064 146.849 289.887 146.501 289.884 146.472C289.88 146.442 290.059 146.331 290.298 146.228C290.52 146.111 290.708 145.954 290.701 145.896C290.692 145.823 290.127 145.567 289.458 145.31C288.091 144.798 287.945 144.698 287.247 143.733C286.978 143.351 286.644 142.934 286.522 142.786C286.215 142.454 286.196 142.308 286.474 142.274C286.94 142.216 286.609 141.694 285.94 141.436C285.568 141.305 285.115 140.991 284.94 140.775C282.83 137.986 275.262 132.867 263.721 126.405C261.206 124.999 260.783 124.815 258.993 124.356C256.913 123.829 256.233 123.721 256.094 123.916Z"/>
</mask>
<path d="M256.094 123.916C256.041 123.967 256.108 124.151 256.247 124.312C256.384 124.458 256.542 124.897 256.589 125.277C256.663 125.875 256.72 125.971 256.968 125.94C257.128 125.921 257.25 125.831 257.241 125.758C257.207 125.481 257.573 125.569 258.906 126.159C262.903 127.929 268.038 131.35 269.84 133.452C270.792 134.563 271.986 135.585 274.38 137.332C275.765 138.345 275.781 138.358 277.674 141.189C279.839 144.431 280.356 144.9 280.175 143.441L280.101 142.843L280.844 143.935C281.244 144.537 282.095 145.661 282.723 146.428L283.873 147.811L283.677 148.264C283.458 148.766 283.544 148.977 284.404 149.818C285.096 150.503 285.467 151.227 285.434 151.794C285.407 152.049 285.22 152.694 285.004 153.225C284.553 154.362 284.542 154.512 285.009 154.454C285.578 154.383 286.544 154.648 287.526 155.163C289.076 155.948 289.906 156.912 289.659 157.668C289.407 158.499 288.747 158.433 287.397 157.46C286.178 156.59 285.869 156.732 286.709 157.768L287.254 158.456L286.92 158.986C286.622 159.453 286.595 159.589 286.753 160.384C286.969 161.528 287.606 162.486 289.322 164.257C290.036 164.998 290.639 165.679 290.65 165.766C290.677 165.985 291.654 166.219 292.223 166.149C292.486 166.116 292.832 166.162 292.975 166.233C293.12 166.333 293.548 167.154 293.972 168.183C294.376 169.17 294.835 170.12 294.991 170.308C295.39 170.777 295.275 171.161 294.496 171.806C293.801 172.411 293.702 172.808 294.205 173.042C294.44 173.146 294.482 173.245 294.406 173.462C294.283 173.788 294.786 174.614 295.338 175.005C295.841 175.357 296.781 176.603 297.303 177.59C298.197 179.301 298.377 179.56 299.447 180.657C300.261 181.489 300.547 181.883 300.556 182.193C300.61 182.986 301.009 183.692 301.67 184.128C302.024 184.351 302.448 184.787 302.619 185.092C303.338 186.35 304.196 187.533 304.907 188.244C305.754 189.102 306.524 190.295 308.724 194.169C312.083 200.107 314.764 203.684 318.04 206.566C319.468 207.81 321.73 209.441 321.992 209.408C322.371 209.361 322.171 208.942 321.204 207.832L320.133 206.602L320.111 205.716C320.096 205.229 320.102 204.562 320.108 204.25C320.135 203.758 320.097 203.689 319.902 203.787C319.499 204 318.923 202.946 318.506 201.25C317.98 199.049 317.975 198.886 318.334 198.323L318.658 197.824L318.162 197.885C317.899 197.918 317.586 197.898 317.476 197.852C317.175 197.697 316.961 196.805 317.089 196.167C317.179 195.697 317.164 195.58 316.917 195.374C316.652 195.155 316.664 195.124 316.984 194.847L317.333 194.552L316.914 194.159C316.513 193.795 316.328 193.373 316.561 193.344C316.62 193.337 316.92 193.374 317.237 193.423C317.569 193.471 317.85 193.466 317.89 193.431C317.914 193.384 317.542 192.896 317.074 192.347L316.193 191.331L314.998 191.376L313.818 191.418L313.423 190.86C313.208 190.561 312.966 190.043 312.883 189.728C312.742 189.197 312.676 189.131 311.933 188.883C311.485 188.731 311.075 188.53 311.018 188.433C310.976 188.335 310.753 187.607 310.522 186.821C310.091 185.26 309.761 184.634 309.142 184.178C308.799 183.924 308.736 183.769 308.618 182.821C308.478 181.698 308.275 181.249 307.783 180.984C307.402 180.78 306.983 179.795 306.536 178.103C306.218 176.853 306.192 176.649 306.341 175.46C306.429 174.738 306.49 174.035 306.468 173.86C306.434 173.583 306.419 173.584 305.85 173.892C305.281 174.2 305.281 174.2 304.946 173.886C304.609 173.557 304.603 173.514 304.616 171.349L304.613 170.609L303.674 170.326C302.582 170.002 302.067 169.429 302.224 168.669C302.31 168.288 302.25 168.162 301.763 167.704C300.552 166.536 299.569 164.822 298.2 161.555C297.925 160.893 297.306 159.607 296.808 158.691C296.323 157.774 295.786 156.67 295.63 156.245C294.653 153.745 293.534 151.055 293.299 150.713C293.151 150.48 293.015 150.215 293.004 150.128C292.991 150.026 292.884 149.876 292.754 149.789C292.627 149.716 292.477 149.467 292.423 149.267C292.357 148.979 292.175 148.824 291.791 148.708C291.063 148.458 290.728 148.144 290.279 147.267C290.064 146.849 289.887 146.501 289.884 146.472C289.88 146.442 290.059 146.331 290.298 146.228C290.52 146.111 290.708 145.954 290.701 145.896C290.692 145.823 290.127 145.567 289.458 145.31C288.091 144.798 287.945 144.698 287.247 143.733C286.978 143.351 286.644 142.934 286.522 142.786C286.215 142.454 286.196 142.308 286.474 142.274C286.94 142.216 286.609 141.694 285.94 141.436C285.568 141.305 285.115 140.991 284.94 140.775C282.83 137.986 275.262 132.867 263.721 126.405C261.206 124.999 260.783 124.815 258.993 124.356C256.913 123.829 256.233 123.721 256.094 123.916Z" stroke="#FF0000" stroke-width="3" mask="url(#path-2-inside-1)"/>
<path d="M228.065 142.152C228.536 142.454 229.01 142.764 229.467 143.069C230.438 143.717 231.357 144.357 232.04 144.87C232.38 145.125 232.674 145.357 232.889 145.547C232.995 145.64 233.097 145.736 233.179 145.828C233.219 145.874 233.268 145.933 233.311 146.001C233.345 146.052 233.427 146.186 233.449 146.37L233.449 146.37C233.472 146.55 233.437 146.756 233.31 146.939C233.277 146.986 233.241 147.027 233.205 147.062C233.501 147.22 233.819 147.407 234.145 147.609C234.879 148.065 235.718 148.638 236.55 149.247C238.194 150.45 239.889 151.848 240.694 152.781C241.121 153.269 241.714 154.26 242.054 154.995C242.687 156.362 243.462 157.522 244.661 158.931L244.662 158.931L244.662 158.932C245.014 159.346 245.293 159.674 245.43 159.937C245.513 160.097 245.592 160.317 245.56 160.579C245.585 160.584 245.611 160.589 245.637 160.595C245.856 160.649 246.14 160.802 246.271 161.139C246.38 161.416 246.323 161.675 246.283 161.81C246.254 161.91 246.212 162.009 246.167 162.103C246.432 162.349 246.646 162.656 246.803 162.956C247.018 163.371 247.177 163.873 247.17 164.353L247.17 164.365L247.169 164.378C247.155 164.663 247.174 165.027 247.194 165.201C247.241 165.456 247.347 166.203 247.45 166.921L247.465 167.027C247.465 167.027 247.465 167.027 247.465 167.027C247.52 167.416 247.569 167.71 247.615 167.933C247.623 167.972 247.631 168.008 247.638 168.04C247.649 168.04 247.659 168.04 247.67 168.041C247.811 168.045 247.949 168.072 248.074 168.105C248.325 168.172 248.601 168.288 248.882 168.434L248.89 168.438L248.89 168.438C249.291 168.652 249.924 168.934 250.262 169.048C250.452 169.11 250.624 169.169 250.766 169.23C250.889 169.283 251.084 169.374 251.238 169.537C251.327 169.631 251.415 169.761 251.459 169.931C251.504 170.102 251.491 170.26 251.457 170.387C251.441 170.447 251.42 170.503 251.396 170.554C251.399 170.558 251.401 170.562 251.404 170.565C251.468 170.643 251.552 170.724 251.643 170.79C251.736 170.859 251.817 170.898 251.872 170.915L251.884 170.919L251.884 170.919C252.034 170.968 252.186 171.025 252.311 171.082C252.37 171.11 252.445 171.146 252.515 171.191C252.548 171.212 252.604 171.251 252.662 171.307L252.664 171.308C252.697 171.34 252.864 171.501 252.898 171.772L252.898 171.773C252.923 171.971 252.865 172.127 252.823 172.211C252.781 172.298 252.73 172.36 252.699 172.395C252.636 172.466 252.57 172.516 252.531 172.544C252.448 172.605 252.351 172.66 252.267 172.705C252.09 172.799 251.866 172.901 251.648 172.992C251.429 173.083 251.196 173.171 250.999 173.233C250.903 173.264 250.798 173.293 250.701 173.313C250.654 173.322 250.589 173.333 250.519 173.336L250.518 173.336C250.474 173.339 250.31 173.347 250.132 173.268L250.097 173.252L250.063 173.233C250.047 173.224 250.031 173.214 250.016 173.204L249.784 173.835C249.629 174.272 249.587 174.442 249.578 174.579C249.57 174.709 249.588 174.855 249.683 175.262L249.685 175.269L249.686 175.275C249.77 175.667 250.043 176.3 250.274 176.658L250.276 176.661C250.516 177.035 251.013 177.554 251.691 178.107C252.357 178.651 253.151 179.191 253.941 179.62L253.951 179.625L253.951 179.625L255.225 180.341L255.487 180.488L255.575 180.776L256.024 182.246L256.026 182.253L256.026 182.253L256.059 182.364C256.353 183.361 256.473 183.77 256.594 184.035C256.69 184.248 256.769 184.336 257.124 184.736L257.127 184.738C257.127 184.739 257.128 184.74 257.129 184.74C257.372 185.01 257.576 185.26 257.702 185.496C257.833 185.743 257.931 186.076 257.801 186.436C258.069 187.022 257.77 187.574 257.531 187.946L257.525 187.956L257.518 187.966C257.465 188.042 257.418 188.119 257.379 188.188C257.386 188.199 257.394 188.21 257.403 188.221C257.525 188.39 257.704 188.61 257.92 188.855C258.355 189.347 258.904 189.9 259.383 190.303L228.065 142.152ZM228.065 142.152C232.529 143.89 235.433 145.401 237.448 146.971M228.065 142.152L237.448 146.971M276.585 207.819C276.833 208.012 277.104 208.212 277.462 208.3C277.803 208.385 278.151 208.35 278.499 208.307C279.088 208.234 279.269 208.259 279.379 208.303C279.49 208.349 279.642 208.461 280.022 208.931C280.107 209.035 280.176 209.124 280.234 209.2C280.199 209.224 280.164 209.25 280.13 209.28C279.91 209.475 279.811 209.756 279.846 210.034C279.875 210.271 279.993 210.448 280.085 210.556C280.179 210.667 280.291 210.758 280.403 210.832C280.205 211.164 280.159 211.566 280.152 211.868C280.142 212.257 280.195 212.686 280.284 213.089C280.374 213.493 280.508 213.903 280.681 214.251C280.806 214.503 280.998 214.819 281.282 215.037C281.219 215.225 281.207 215.41 281.212 215.557C281.221 215.814 281.286 216.072 281.375 216.301C281.53 216.703 281.825 217.179 282.255 217.46C281.941 217.678 281.834 217.986 281.775 218.184C281.694 218.446 281.655 218.723 281.74 219.069C281.81 219.355 281.96 219.663 282.151 220.019C282.714 221.081 283.352 222.381 283.871 223.498C284.128 224.052 284.353 224.557 284.525 224.963C284.215 224.703 283.862 224.385 283.48 224.018C282.328 222.913 280.964 221.423 279.807 219.946L279.805 219.943C279.246 219.236 277.864 217.243 276.534 215.259C275.194 213.263 273.971 211.372 273.703 210.85L273.695 210.834L273.686 210.819C273.524 210.537 272.588 209.047 271.619 207.519L271.616 207.515C269.763 204.637 268.792 203.393 267.633 202.475L267.628 202.471C267.368 202.269 267.034 201.852 266.86 201.497C266.512 200.761 266.136 200.214 265.552 199.92C265.606 199.754 265.651 199.584 265.684 199.432C265.704 199.338 265.722 199.243 265.732 199.153C265.742 199.079 265.754 198.955 265.738 198.826C265.738 198.826 265.738 198.826 265.738 198.826L264.994 198.919L281.123 209.522C281.235 209.344 281.149 209.133 280.606 208.46C279.854 207.531 279.573 207.418 278.406 207.563C277.691 207.652 277.538 207.611 277.046 207.228C276.538 206.832 276.48 206.721 276.378 205.904C276.27 205.028 276.268 205.014 275.664 204.807C275.043 204.574 274.775 204.207 274.506 203.233C274.281 202.372 273.472 200.991 272.878 200.384M276.585 207.819L277.046 207.228L276.586 207.82C276.586 207.819 276.585 207.819 276.585 207.819ZM276.585 207.819C276.336 207.625 276.066 207.408 275.891 207.062C275.73 206.746 275.681 206.379 275.634 205.996C275.609 205.794 275.592 205.665 275.576 205.571M275.576 205.571C275.63 205.591 275.658 205.602 275.675 205.611C275.681 205.614 275.623 205.584 275.576 205.511C275.56 205.485 275.553 205.467 275.553 205.468C275.553 205.468 275.56 205.487 275.57 205.536C275.572 205.547 275.574 205.559 275.576 205.571ZM275.576 205.571C275.539 205.558 275.489 205.54 275.421 205.517L275.411 205.513L275.4 205.509C274.988 205.354 274.632 205.128 274.349 204.742C274.087 204.385 273.924 203.942 273.783 203.433L273.78 203.423L273.78 203.423C273.692 203.085 273.47 202.591 273.18 202.088C272.894 201.59 272.583 201.156 272.348 200.915M272.348 200.915C272.351 200.917 272.354 200.92 272.357 200.923L272.878 200.384M272.348 200.915C272.346 200.912 272.344 200.91 272.342 200.908L272.878 200.384M272.348 200.915C271.799 200.38 271.54 199.833 271.195 198.766M272.878 200.384C272.457 199.977 272.244 199.574 271.908 198.534M271.908 198.534L271.195 198.768C271.195 198.767 271.195 198.767 271.195 198.766M271.908 198.534C271.67 197.808 271.24 196.736 270.949 196.179C269.95 194.215 269.771 193.615 269.583 191.387M271.908 198.534L271.194 198.765C271.195 198.765 271.195 198.766 271.195 198.766M271.195 198.766C270.964 198.064 270.55 197.035 270.285 196.527L270.28 196.52L270.281 196.52C269.779 195.533 269.455 194.837 269.241 194.088C269.026 193.34 268.931 192.571 268.836 191.451L268.836 191.453L269.583 191.387M269.583 191.387L268.836 191.45M269.583 191.387L269.399 189.306L269.015 189.191C268.413 188.999 267.69 187.711 267.678 186.78L268.836 191.45M268.836 191.45L268.696 189.873C268.414 189.761 268.182 189.564 268.007 189.378C267.804 189.162 267.622 188.9 267.47 188.628C267.176 188.098 266.939 187.426 266.928 186.801M268.836 191.45L266.928 186.801M266.928 186.801C266.921 186.621 266.915 186.519 266.904 186.444C266.899 186.405 266.894 186.387 266.892 186.38C266.888 186.374 266.875 186.355 266.84 186.32C266.782 186.26 266.694 186.182 266.544 186.056L266.543 186.055C266.384 185.919 266.188 185.688 265.998 185.449C265.793 185.191 265.547 184.862 265.276 184.489C264.734 183.74 264.076 182.788 263.417 181.803C262.111 179.851 260.753 177.701 260.28 176.732C259.468 175.086 256.799 168.332 256.247 166.559L256.245 166.553C256.135 166.189 255.85 165.605 255.431 164.916C255.019 164.24 254.508 163.508 253.978 162.855L253.973 162.849L253.973 162.849C253.796 162.625 253.645 162.421 253.531 162.241C253.432 162.083 253.305 161.857 253.268 161.608C253.248 161.469 253.248 161.267 253.351 161.061C253.366 161.031 253.382 161.002 253.399 160.976C253.271 160.86 253.206 160.819 253.173 160.803C253.169 160.801 253.167 160.8 253.165 160.799L253.164 160.799C253.164 160.799 253.164 160.799 253.164 160.799C253.162 160.799 253.143 160.796 253.091 160.803C252.765 160.843 252.463 160.798 252.138 160.643C251.856 160.508 251.561 160.291 251.224 160.022M266.928 186.801L253.798 160.643C253.887 160.605 253.977 160.583 254.063 160.57C253.596 160.116 253.376 160.012 252.998 160.058C252.634 160.104 252.366 159.974 251.692 159.436C251.113 158.975 249.804 157.571 249.133 156.739C249.114 156.744 249.106 156.748 249.106 156.748C249.106 156.747 249.109 156.746 249.116 156.743L249.116 156.742C249.118 156.741 249.123 156.739 249.13 156.735C248.887 156.434 248.728 156.209 248.719 156.131M251.224 160.022L251.691 159.436L251.225 160.023C251.224 160.022 251.224 160.022 251.224 160.022ZM251.224 160.022C250.774 159.664 250.003 158.868 249.365 158.159C249.04 157.797 248.732 157.44 248.501 157.15C248.386 157.006 248.283 156.869 248.203 156.751C248.164 156.693 248.122 156.628 248.087 156.562L248.087 156.561C248.064 156.519 247.995 156.388 247.974 156.224M247.974 156.224L248.719 156.131M247.974 156.224C247.974 156.224 247.974 156.224 247.974 156.224L248.719 156.131M247.974 156.224C247.928 155.855 248.15 155.622 248.219 155.556C248.248 155.529 248.277 155.506 248.304 155.486C247.058 154.933 246.168 154.465 245.16 153.697C244.126 152.909 242.983 151.815 241.187 150.021L241.187 150.021C240.744 149.578 240.323 149.173 240 148.877C239.838 148.728 239.707 148.613 239.614 148.536C239.586 148.513 239.565 148.496 239.549 148.484C239.489 148.457 239.443 148.43 239.425 148.42C239.423 148.419 239.422 148.418 239.421 148.417C239.365 148.384 239.303 148.345 239.24 148.303C239.112 148.218 238.951 148.104 238.769 147.972C238.404 147.706 237.936 147.351 237.448 146.971M248.719 156.131C248.711 156.074 248.95 155.995 249.294 155.934L237.448 146.971M257.266 188.009C257.266 188.009 257.268 188.012 257.27 188.019C257.267 188.012 257.265 188.008 257.266 188.009ZM251.213 170.843L251.213 170.843L251.213 170.843ZM247.158 168.139C247.158 168.139 247.16 168.138 247.164 168.136C247.164 168.137 247.163 168.137 247.163 168.137C247.159 168.139 247.158 168.139 247.158 168.139ZM247.724 168.329C247.726 168.333 247.728 168.335 247.728 168.335C247.727 168.335 247.726 168.333 247.724 168.329ZM246.003 162.421C246.003 162.421 246.004 162.419 246.006 162.415C246.004 162.419 246.003 162.421 246.003 162.421ZM232.466 145.823C232.466 145.823 232.463 145.823 232.458 145.824C232.463 145.823 232.465 145.823 232.466 145.823Z" stroke="#FF0000" stroke-width="1.5"/>
<mask id="path-4-inside-2" fill="white">
<path d="M245.531 138.337C245.498 138.43 245.892 138.855 246.436 139.306C248.097 140.626 248.273 140.974 247.866 142.106C247.745 142.447 247.648 142.74 247.65 142.755C247.653 142.784 248.122 142.741 248.676 142.672C249.245 142.601 249.703 142.589 249.71 142.647C249.716 142.691 249.635 142.879 249.508 143.043C249.394 143.205 249.34 143.36 249.371 143.371C249.403 143.396 249.903 143.601 250.464 143.827C251.804 144.357 251.955 144.501 251.791 145.085C251.679 145.498 251.719 145.582 252.408 146.237C253.229 147.009 253.841 148 254.121 148.943C254.298 149.528 254.288 149.574 253.986 149.522C253.384 149.449 253.734 150.235 254.417 150.491C254.977 150.703 255.652 150.53 256.5 149.966L257.075 149.583L258.638 150.485C259.5 150.985 260.807 151.845 261.528 152.407L262.869 153.426L263.18 154.498C263.606 156.016 263.642 156.07 264.136 156.113C264.643 156.139 264.625 156.111 265.216 158.363C265.587 159.799 265.616 160.032 265.473 160.435C265.385 160.683 265.199 160.973 265.077 161.062C264.847 161.238 264.851 161.268 265.139 161.439C265.314 161.536 265.676 161.595 265.939 161.562C266.61 161.479 266.701 161.734 266.37 162.768C266.235 163.229 266.12 163.613 266.134 163.612C266.309 163.59 268.285 164.115 268.601 164.268C269.091 164.518 269.147 164.733 268.784 165.03C268.569 165.205 268.55 165.296 268.723 165.616C268.94 166.048 269.109 167.168 269.097 168.147C269.065 169.558 270.654 172.456 273.013 175.348C273.589 176.047 274.066 176.669 274.073 176.727C274.095 176.784 273.971 176.859 273.814 176.908C273.572 176.982 273.75 177.227 275.1 178.674C275.971 179.602 276.994 180.808 277.357 181.341C277.989 182.255 278.031 182.354 277.866 182.7C277.51 183.411 277.763 183.898 278.616 184.206C278.848 184.282 279.105 184.679 279.511 185.562C279.902 186.447 280.266 186.994 280.789 187.507C284.147 190.808 285.207 192.187 285.783 193.967C286.116 194.977 286.247 195.198 287.091 196.026C288.831 197.751 289.189 198.254 289.763 199.65C290.387 201.216 290.973 202.003 292.7 203.625C295.127 205.871 296.95 206.711 295.983 205.128C295.551 204.397 294.807 202.46 294.547 201.322C294.364 200.559 294.251 200.366 293.458 199.591L292.568 198.738L292.064 196.831C291.608 195.184 291.462 194.847 290.972 194.241L290.413 193.555L291.125 192.726L291.836 191.897L291.048 191.032C290.02 189.915 288.722 187.929 288.292 186.856C287.983 186.035 287.726 185.756 287.483 185.949C287.429 185.986 287.517 186.819 287.695 187.775C287.928 189.049 287.971 189.518 287.849 189.489C287.499 189.414 284.872 186.511 284.278 185.548C283.943 184.997 283.528 184.159 283.365 183.676C283.086 182.866 283.09 182.777 283.32 182.6C284.01 182.07 284.132 181.863 283.897 181.64C283.778 181.521 283.474 181.455 283.226 181.486C282.803 181.539 282.787 181.526 283.015 181.216C283.216 180.925 283.212 180.895 282.86 180.45C282.212 179.642 282.199 177.866 282.818 177.004C283.223 176.45 283.143 176.045 282.632 175.99C281.763 175.906 281.684 175.871 281.644 175.55C281.614 175.302 281.727 175.14 282.017 174.971C282.639 174.612 282.626 174.51 281.844 174.177C281.452 174.004 281.134 173.821 281.128 173.777C281.117 173.69 282.358 172.706 282.504 172.688C282.548 172.683 282.817 172.946 283.125 173.278C283.792 173.995 284.031 173.891 284.01 172.886C284.012 172.545 284.149 171.98 284.328 171.632C284.709 170.889 284.662 170.391 284.153 169.625C283.646 168.888 281.489 166.43 281.099 166.152C280.937 166.039 280.372 165.902 279.849 165.863C279.041 165.801 278.87 165.733 278.746 165.452C278.45 164.734 278.426 164.07 278.711 163.738L278.983 163.423L278.453 163.089C278.017 162.802 277.963 162.72 278.098 162.496C278.222 162.303 278.206 162.172 278.038 161.896C277.849 161.564 277.847 161.55 278.166 161.614C278.361 161.634 278.7 161.74 278.931 161.815C279.491 162.027 279.664 161.991 279.624 161.67C279.606 161.524 279.275 161.239 278.908 161.033C278.26 160.699 278.205 160.616 278.005 159.841C277.82 159.065 277.732 158.957 276.606 158.001C275.945 157.446 275.289 156.816 275.16 156.61C274.387 155.402 274.092 155.054 273.172 154.324C272.627 153.873 271.789 153.325 271.328 153.072C270.553 152.679 270.484 152.599 270.506 152.181C270.534 151.808 270.345 151.475 269.463 150.341L268.403 148.961L267.615 149.059L266.842 149.155L265.425 147.88C261.943 144.772 258.728 142.623 255.214 141.045C253.614 140.325 249.241 138.75 248.949 138.786C248.877 138.796 248.191 138.644 247.427 138.457C245.943 138.078 245.661 138.069 245.531 138.337Z"/>
</mask>
<path d="M245.531 138.337C245.498 138.43 245.892 138.855 246.436 139.306C248.097 140.626 248.273 140.974 247.866 142.106C247.745 142.447 247.648 142.74 247.65 142.755C247.653 142.784 248.122 142.741 248.676 142.672C249.245 142.601 249.703 142.589 249.71 142.647C249.716 142.691 249.635 142.879 249.508 143.043C249.394 143.205 249.34 143.36 249.371 143.371C249.403 143.396 249.903 143.601 250.464 143.827C251.804 144.357 251.955 144.501 251.791 145.085C251.679 145.498 251.719 145.582 252.408 146.237C253.229 147.009 253.841 148 254.121 148.943C254.298 149.528 254.288 149.574 253.986 149.522C253.384 149.449 253.734 150.235 254.417 150.491C254.977 150.703 255.652 150.53 256.5 149.966L257.075 149.583L258.638 150.485C259.5 150.985 260.807 151.845 261.528 152.407L262.869 153.426L263.18 154.498C263.606 156.016 263.642 156.07 264.136 156.113C264.643 156.139 264.625 156.111 265.216 158.363C265.587 159.799 265.616 160.032 265.473 160.435C265.385 160.683 265.199 160.973 265.077 161.062C264.847 161.238 264.851 161.268 265.139 161.439C265.314 161.536 265.676 161.595 265.939 161.562C266.61 161.479 266.701 161.734 266.37 162.768C266.235 163.229 266.12 163.613 266.134 163.612C266.309 163.59 268.285 164.115 268.601 164.268C269.091 164.518 269.147 164.733 268.784 165.03C268.569 165.205 268.55 165.296 268.723 165.616C268.94 166.048 269.109 167.168 269.097 168.147C269.065 169.558 270.654 172.456 273.013 175.348C273.589 176.047 274.066 176.669 274.073 176.727C274.095 176.784 273.971 176.859 273.814 176.908C273.572 176.982 273.75 177.227 275.1 178.674C275.971 179.602 276.994 180.808 277.357 181.341C277.989 182.255 278.031 182.354 277.866 182.7C277.51 183.411 277.763 183.898 278.616 184.206C278.848 184.282 279.105 184.679 279.511 185.562C279.902 186.447 280.266 186.994 280.789 187.507C284.147 190.808 285.207 192.187 285.783 193.967C286.116 194.977 286.247 195.198 287.091 196.026C288.831 197.751 289.189 198.254 289.763 199.65C290.387 201.216 290.973 202.003 292.7 203.625C295.127 205.871 296.95 206.711 295.983 205.128C295.551 204.397 294.807 202.46 294.547 201.322C294.364 200.559 294.251 200.366 293.458 199.591L292.568 198.738L292.064 196.831C291.608 195.184 291.462 194.847 290.972 194.241L290.413 193.555L291.125 192.726L291.836 191.897L291.048 191.032C290.02 189.915 288.722 187.929 288.292 186.856C287.983 186.035 287.726 185.756 287.483 185.949C287.429 185.986 287.517 186.819 287.695 187.775C287.928 189.049 287.971 189.518 287.849 189.489C287.499 189.414 284.872 186.511 284.278 185.548C283.943 184.997 283.528 184.159 283.365 183.676C283.086 182.866 283.09 182.777 283.32 182.6C284.01 182.07 284.132 181.863 283.897 181.64C283.778 181.521 283.474 181.455 283.226 181.486C282.803 181.539 282.787 181.526 283.015 181.216C283.216 180.925 283.212 180.895 282.86 180.45C282.212 179.642 282.199 177.866 282.818 177.004C283.223 176.45 283.143 176.045 282.632 175.99C281.763 175.906 281.684 175.871 281.644 175.55C281.614 175.302 281.727 175.14 282.017 174.971C282.639 174.612 282.626 174.51 281.844 174.177C281.452 174.004 281.134 173.821 281.128 173.777C281.117 173.69 282.358 172.706 282.504 172.688C282.548 172.683 282.817 172.946 283.125 173.278C283.792 173.995 284.031 173.891 284.01 172.886C284.012 172.545 284.149 171.98 284.328 171.632C284.709 170.889 284.662 170.391 284.153 169.625C283.646 168.888 281.489 166.43 281.099 166.152C280.937 166.039 280.372 165.902 279.849 165.863C279.041 165.801 278.87 165.733 278.746 165.452C278.45 164.734 278.426 164.07 278.711 163.738L278.983 163.423L278.453 163.089C278.017 162.802 277.963 162.72 278.098 162.496C278.222 162.303 278.206 162.172 278.038 161.896C277.849 161.564 277.847 161.55 278.166 161.614C278.361 161.634 278.7 161.74 278.931 161.815C279.491 162.027 279.664 161.991 279.624 161.67C279.606 161.524 279.275 161.239 278.908 161.033C278.26 160.699 278.205 160.616 278.005 159.841C277.82 159.065 277.732 158.957 276.606 158.001C275.945 157.446 275.289 156.816 275.16 156.61C274.387 155.402 274.092 155.054 273.172 154.324C272.627 153.873 271.789 153.325 271.328 153.072C270.553 152.679 270.484 152.599 270.506 152.181C270.534 151.808 270.345 151.475 269.463 150.341L268.403 148.961L267.615 149.059L266.842 149.155L265.425 147.88C261.943 144.772 258.728 142.623 255.214 141.045C253.614 140.325 249.241 138.75 248.949 138.786C248.877 138.796 248.191 138.644 247.427 138.457C245.943 138.078 245.661 138.069 245.531 138.337Z" stroke="#FF0000" stroke-width="3" mask="url(#path-4-inside-2)"/>
<path d="M251.661 116.094C251.616 116.137 251.673 116.293 251.791 116.43C251.907 116.554 252.041 116.927 252.081 117.248C252.144 117.756 252.192 117.838 252.402 117.812C252.539 117.795 252.642 117.719 252.635 117.657C252.605 117.422 252.916 117.497 254.047 117.997C257.439 119.499 261.797 122.403 263.326 124.186C264.135 125.129 265.148 125.997 267.18 127.479C268.355 128.339 268.369 128.35 269.975 130.753C271.812 133.504 272.251 133.902 272.098 132.664L272.034 132.156L272.665 133.083C273.005 133.594 273.727 134.548 274.26 135.198L275.236 136.372L275.07 136.757C274.884 137.183 274.956 137.362 275.686 138.076C276.274 138.657 276.589 139.271 276.561 139.753C276.537 139.969 276.379 140.517 276.196 140.967C275.813 141.932 275.804 142.059 276.2 142.01C276.683 141.95 277.503 142.175 278.336 142.612C279.651 143.278 280.356 144.096 280.146 144.738C279.932 145.443 279.372 145.387 278.226 144.561C277.192 143.823 276.93 143.943 277.643 144.822L278.105 145.406L277.821 145.856C277.569 146.252 277.546 146.368 277.68 147.043C277.863 148.013 278.404 148.826 279.86 150.33C280.466 150.958 280.978 151.536 280.987 151.61C281.01 151.796 281.84 151.995 282.322 151.935C282.545 151.907 282.839 151.946 282.96 152.006C283.084 152.092 283.447 152.788 283.807 153.661C284.149 154.499 284.539 155.305 284.672 155.465C285.01 155.863 284.912 156.189 284.251 156.736C283.661 157.249 283.577 157.587 284.004 157.785C284.204 157.873 284.239 157.957 284.174 158.141C284.07 158.418 284.497 159.119 284.966 159.451C285.392 159.75 286.19 160.807 286.633 161.645C287.392 163.097 287.545 163.317 288.453 164.247C289.144 164.953 289.386 165.288 289.394 165.551C289.44 166.224 289.778 166.823 290.339 167.193C290.639 167.382 291 167.752 291.145 168.011C291.755 169.079 292.483 170.082 293.086 170.686C293.805 171.414 294.459 172.427 296.326 175.715C299.176 180.754 301.452 183.79 304.232 186.235C305.444 187.292 307.363 188.675 307.586 188.647C307.908 188.607 307.738 188.251 306.917 187.31L306.008 186.266L305.99 185.514C305.977 185.101 305.982 184.535 305.987 184.27C306.01 183.852 305.978 183.793 305.812 183.877C305.47 184.058 304.982 183.163 304.627 181.724C304.181 179.856 304.177 179.718 304.482 179.24L304.756 178.816L304.335 178.868C304.112 178.896 303.846 178.879 303.753 178.84C303.498 178.708 303.316 177.952 303.425 177.41C303.501 177.011 303.489 176.912 303.278 176.737C303.054 176.551 303.064 176.525 303.336 176.29L303.632 176.039L303.276 175.706C302.936 175.397 302.779 175.039 302.977 175.014C303.026 175.008 303.281 175.039 303.551 175.081C303.832 175.122 304.07 175.117 304.105 175.088C304.125 175.048 303.809 174.635 303.412 174.168L302.664 173.306L301.65 173.344L300.649 173.38L300.314 172.906C300.131 172.653 299.926 172.213 299.855 171.945C299.736 171.495 299.679 171.439 299.049 171.228C298.669 171.099 298.321 170.929 298.273 170.847C298.237 170.763 298.048 170.146 297.852 169.479C297.486 168.154 297.206 167.623 296.68 167.236C296.39 167.02 296.336 166.889 296.236 166.084C296.117 165.131 295.944 164.75 295.527 164.525C295.203 164.352 294.848 163.516 294.469 162.08C294.199 161.019 294.177 160.846 294.303 159.837C294.378 159.225 294.43 158.627 294.411 158.479C294.382 158.244 294.37 158.245 293.887 158.506C293.404 158.767 293.404 158.767 293.119 158.501C292.833 158.222 292.829 158.185 292.839 156.348L292.837 155.72L292.04 155.48C291.113 155.205 290.676 154.719 290.81 154.074C290.882 153.75 290.832 153.644 290.419 153.255C289.39 152.264 288.556 150.809 287.395 148.036C287.161 147.475 286.636 146.383 286.213 145.606C285.802 144.827 285.346 143.891 285.213 143.53C284.384 141.408 283.434 139.125 283.235 138.836C283.11 138.637 282.994 138.413 282.985 138.339C282.974 138.252 282.883 138.125 282.773 138.051C282.665 137.989 282.538 137.778 282.492 137.608C282.436 137.363 282.282 137.232 281.955 137.134C281.338 136.922 281.053 136.655 280.672 135.911C280.49 135.556 280.34 135.26 280.337 135.236C280.334 135.211 280.485 135.117 280.688 135.029C280.877 134.93 281.036 134.797 281.03 134.747C281.023 134.685 280.543 134.468 279.975 134.25C278.815 133.816 278.691 133.73 278.099 132.911C277.871 132.588 277.588 132.233 277.484 132.108C277.223 131.826 277.208 131.702 277.443 131.673C277.839 131.624 277.558 131.181 276.99 130.962C276.674 130.851 276.289 130.584 276.141 130.402C274.351 128.034 267.928 123.69 258.133 118.206C255.999 117.013 255.64 116.857 254.121 116.467C252.356 116.02 251.779 115.928 251.661 116.094Z" fill="black"/>
<path d="M223.413 129.646C223.378 129.776 223.679 129.965 224.41 130.289C226.059 131.015 231.761 134.819 231.812 135.228C231.827 135.352 231.525 135.351 230.846 135.247C230.603 135.215 230.558 135.258 230.588 135.493C230.617 135.728 230.756 135.837 231.253 135.989C232.561 136.404 236.848 139.543 238.111 141.008C238.419 141.359 238.893 142.142 239.168 142.737C239.735 143.961 240.429 144.994 241.474 146.222C242.122 146.984 242.17 147.066 242.021 147.285C241.881 147.479 241.891 147.553 242.034 147.698C242.133 147.787 242.305 147.853 242.429 147.838C242.776 147.795 242.83 147.927 242.614 148.318C242.43 148.655 242.436 148.705 242.628 148.832C243.078 149.115 243.459 149.86 243.451 150.401C243.437 150.692 243.457 151.054 243.478 151.228C243.512 151.399 243.611 152.091 243.708 152.77C243.899 154.104 244.017 154.354 244.35 154.199C244.493 154.131 244.818 154.217 245.248 154.44C245.611 154.633 246.183 154.889 246.511 154.999C247.153 155.209 247.212 155.277 247.017 155.527C246.833 155.764 247.367 156.427 247.89 156.588C248.113 156.661 248.313 156.749 248.317 156.786C248.331 156.898 246.992 157.454 246.859 157.395C246.805 157.364 246.643 157.17 246.505 156.974C246.182 156.498 245.579 155.995 245.369 156.021C245.022 156.064 245.108 156.456 245.544 156.93L246.008 157.425L245.707 158.242C245.447 158.978 245.44 159.13 245.601 159.814C245.69 160.23 245.954 160.839 246.188 161.199C246.702 162.003 248.116 163.16 249.531 163.927L250.612 164.534L250.993 165.782C251.515 167.552 251.481 167.481 252.065 168.138C252.473 168.59 252.574 168.791 252.505 168.95C252.445 169.071 252.457 169.271 252.524 169.401C252.607 169.566 252.556 169.761 252.345 170.089C252.175 170.336 252.044 170.604 252.054 170.678C252.088 170.951 253.171 172.186 254.042 172.921C254.744 173.512 254.953 173.775 254.989 174.072C255.042 174.493 255.675 175.647 256.661 177.108C257.125 177.805 257.575 178.29 258.243 178.81C258.77 179.21 259.198 179.622 259.214 179.745C259.228 179.857 259.156 180.192 259.054 180.482L258.854 180.997L259.152 181.073C259.593 181.182 259.882 181.485 260.224 182.21C260.409 182.589 260.752 183.024 261.059 183.262C261.951 183.969 262.725 184.941 264.298 187.386C265.127 188.691 265.91 189.938 266.039 190.161C266.536 191.13 270.299 196.735 271.284 197.983C273.286 200.537 275.996 203.13 276.566 203.059C276.826 203.027 276.821 202.99 276.67 202.38C276.523 201.807 275.305 199.181 274.336 197.352C274.008 196.739 273.974 196.568 274.064 196.28C274.153 195.98 274.235 195.932 274.817 195.86L275.471 195.766L275.058 195.478C274.825 195.318 274.471 195.098 274.254 194.974C273.795 194.717 273.446 193.83 273.697 193.522C273.901 193.245 273.877 193.148 273.502 192.968C272.913 192.677 272.46 190.646 272.873 190.13C273.047 189.907 272.936 189.519 272.648 189.328C272.402 189.17 272.381 188.997 272.603 188.969C272.69 188.958 272.828 188.853 272.902 188.743C272.997 188.593 272.924 188.414 272.463 187.842C271.825 187.054 271.587 186.958 270.596 187.081C269.99 187.156 269.86 187.122 269.442 186.797C269.011 186.461 268.961 186.367 268.875 185.673C268.783 184.93 268.782 184.918 268.27 184.743C267.742 184.544 267.515 184.233 267.286 183.407C267.095 182.676 266.409 181.504 265.905 180.989C265.548 180.643 265.367 180.301 265.082 179.419C264.879 178.803 264.515 177.893 264.268 177.421C263.42 175.753 263.268 175.244 263.109 173.353L262.953 171.588L262.626 171.49C262.116 171.327 261.502 170.234 261.492 169.443C261.466 168.831 261.446 168.77 260.94 168.343C260.294 167.795 256.543 162.189 255.785 160.636C255.113 159.274 252.858 153.57 252.398 152.093C252.164 151.318 251.295 149.892 250.36 148.739C249.779 148.006 249.737 147.773 250.235 147.836C250.582 147.894 250.526 147.75 249.943 147.206C249.543 146.816 249.356 146.726 249.034 146.766C248.724 146.805 248.497 146.695 247.925 146.238C247.255 145.705 245.433 143.681 245.402 143.434C245.394 143.372 245.722 143.281 246.143 143.228C246.552 143.178 246.855 143.09 246.81 143.032C246.765 142.975 246.15 142.674 245.458 142.371C243.225 141.391 242.517 140.85 239.46 137.798C238.699 137.038 238.003 136.395 237.9 136.37C237.796 136.345 237.049 135.797 236.228 135.157C234.071 133.477 230.809 131.908 225.494 130.004C223.769 129.376 223.486 129.323 223.413 129.646Z" fill="black"/>
<path d="M242.697 128.332C242.669 128.411 243.003 128.772 243.465 129.155C244.874 130.274 245.024 130.57 244.678 131.531C244.576 131.82 244.493 132.069 244.495 132.081C244.498 132.106 244.896 132.069 245.366 132.011C245.849 131.951 246.237 131.94 246.243 131.99C246.248 132.027 246.18 132.186 246.071 132.326C245.975 132.463 245.929 132.595 245.955 132.604C245.983 132.626 246.407 132.799 246.883 132.992C248.02 133.441 248.149 133.564 248.009 134.059C247.914 134.41 247.948 134.481 248.533 135.037C249.23 135.692 249.749 136.533 249.987 137.333C250.137 137.83 250.129 137.868 249.872 137.825C249.361 137.763 249.658 138.43 250.238 138.647C250.713 138.827 251.286 138.68 252.005 138.201L252.493 137.876L253.82 138.642C254.552 139.066 255.661 139.796 256.273 140.273L257.411 141.138L257.675 142.048C258.036 143.335 258.067 143.382 258.486 143.418C258.916 143.44 258.901 143.416 259.402 145.328C259.717 146.546 259.742 146.744 259.621 147.086C259.546 147.296 259.388 147.542 259.284 147.618C259.089 147.768 259.092 147.793 259.337 147.938C259.485 148.02 259.793 148.07 260.016 148.042C260.585 147.972 260.663 148.188 260.382 149.065C260.267 149.457 260.169 149.783 260.182 149.782C260.33 149.763 262.007 150.209 262.275 150.339C262.691 150.551 262.739 150.734 262.431 150.986C262.248 151.134 262.232 151.212 262.379 151.482C262.563 151.849 262.706 152.8 262.696 153.63C262.669 154.828 264.018 157.288 266.02 159.742C266.508 160.335 266.913 160.863 266.919 160.913C266.938 160.961 266.832 161.024 266.699 161.066C266.493 161.129 266.645 161.336 267.791 162.564C268.53 163.352 269.398 164.376 269.706 164.828C270.242 165.604 270.278 165.687 270.138 165.981C269.836 166.584 270.051 166.998 270.775 167.26C270.971 167.323 271.189 167.661 271.534 168.41C271.866 169.161 272.175 169.625 272.618 170.06C275.468 172.862 276.368 174.032 276.857 175.543C277.139 176.4 277.251 176.588 277.967 177.291C279.443 178.754 279.748 179.181 280.234 180.366C280.764 181.695 281.261 182.363 282.727 183.739C284.787 185.646 286.334 186.359 285.513 185.015C285.147 184.394 284.515 182.75 284.295 181.785C284.139 181.138 284.043 180.974 283.371 180.316L282.614 179.592L282.187 177.973C281.8 176.576 281.676 176.289 281.26 175.775L280.786 175.193L281.39 174.49L281.994 173.786L281.325 173.052C280.453 172.104 279.351 170.419 278.986 169.508C278.724 168.812 278.506 168.575 278.3 168.739C278.253 168.77 278.329 169.477 278.48 170.288C278.677 171.37 278.714 171.767 278.61 171.742C278.313 171.679 276.084 169.215 275.58 168.398C275.296 167.93 274.943 167.22 274.804 166.81C274.568 166.122 274.571 166.047 274.766 165.897C275.352 165.447 275.456 165.271 275.256 165.082C275.156 164.981 274.897 164.925 274.687 164.951C274.328 164.996 274.314 164.985 274.507 164.722C274.678 164.475 274.675 164.45 274.376 164.072C273.826 163.386 273.815 161.879 274.34 161.147C274.684 160.677 274.616 160.334 274.183 160.287C273.445 160.215 273.378 160.186 273.345 159.913C273.318 159.703 273.414 159.565 273.661 159.422C274.189 159.117 274.178 159.031 273.514 158.748C273.182 158.601 272.911 158.446 272.906 158.409C272.897 158.335 273.95 157.5 274.074 157.485C274.111 157.48 274.34 157.703 274.601 157.985C275.167 158.593 275.37 158.505 275.352 157.653C275.354 157.363 275.47 156.884 275.622 156.588C275.946 155.957 275.906 155.535 275.473 154.885C275.043 154.259 273.213 152.174 272.882 151.938C272.744 151.842 272.265 151.726 271.821 151.693C271.135 151.64 270.99 151.582 270.885 151.344C270.633 150.734 270.614 150.171 270.855 149.889L271.086 149.622L270.636 149.338C270.266 149.095 270.22 149.025 270.335 148.835C270.44 148.671 270.426 148.56 270.284 148.326C270.123 148.044 270.122 148.032 270.392 148.086C270.558 148.103 270.846 148.193 271.042 148.257C271.517 148.437 271.664 148.406 271.63 148.134C271.615 148.01 271.333 147.768 271.023 147.593C270.472 147.31 270.426 147.24 270.256 146.582C270.099 145.923 270.024 145.831 269.069 145.02C268.507 144.549 267.951 144.015 267.841 143.84C267.186 142.815 266.935 142.519 266.155 141.9C265.692 141.517 264.981 141.052 264.589 140.837C263.932 140.504 263.873 140.436 263.892 140.081C263.916 139.764 263.755 139.482 263.007 138.519L262.107 137.349L261.439 137.432L260.783 137.513L259.58 136.431C256.625 133.793 253.897 131.97 250.914 130.631C249.556 130.02 245.845 128.683 245.598 128.714C245.536 128.721 244.954 128.593 244.306 128.434C243.047 128.113 242.807 128.105 242.697 128.332Z" fill="black"/>
<path d="M544.345 1.01504C547.402 1.61933 550.957 2.79236 553.232 3.8943C558.422 6.52473 588.245 27.426 613.163 45.9457C619.917 50.9577 626.137 55.5076 627.026 56.0764C631.967 59.2045 635.522 61.6927 635.699 62.1193C635.771 62.3681 636.197 62.7947 636.588 62.9724C637.192 63.2923 637.37 63.2568 637.69 62.6525C638.152 61.7994 637.619 60.5197 636.801 60.5197C636.481 60.5197 636.339 60.1287 636.339 59.4533C636.375 57.9959 635.771 57.4272 632.785 55.9698C629.621 54.4413 628.803 53.5171 628.803 51.4198C628.803 50.5667 628.946 49.8558 629.159 49.8558C629.337 49.8558 629.514 49.5359 629.514 49.1448C629.514 48.0429 630.225 48.2917 630.758 49.6425C631.469 51.3132 632.962 52.4507 635.877 53.5881C637.335 54.1213 638.685 54.9389 639.112 55.4366C640.143 56.7518 640.64 58.9201 640.463 61.6927C640.392 63.2568 640.463 64.0388 640.711 63.9677C643.235 63.0435 645.013 62.6169 646.115 62.7236C647.394 62.8302 647.501 62.9368 647.963 64.5009C648.425 65.9938 648.603 66.1716 650.025 66.5981C651.766 67.0602 653.33 68.1622 653.33 68.8375C653.33 69.0864 654.539 70.2949 655.996 71.468C659.231 74.1695 659.978 75.3781 659.409 77.2265C659.196 77.973 659.018 78.7905 659.018 79.0749C659.018 79.537 663.817 83.3049 669.753 87.4994C671.743 88.9212 671.957 89.3834 671.317 90.663C670.642 91.9427 667.336 95.3551 666.767 95.3551C666.518 95.3551 665.487 94.7153 664.492 93.9688C661.328 91.5872 656.21 87.926 655.392 87.4994C654.681 87.1084 654.503 87.215 653.437 88.4591C652.797 89.2056 651.802 90.7341 651.198 91.8361C650.238 93.6489 650.167 94.0755 650.345 95.995C650.593 98.1989 650.06 102.109 649.243 104.1C648.994 104.704 647.785 106.339 646.577 107.761C644.942 109.68 644.159 110.924 643.697 112.453C643.342 113.626 642.631 115.474 642.098 116.612C641.6 117.714 640.711 119.918 640.143 121.517C639.538 123.081 638.117 126.138 636.908 128.271C635.735 130.404 634.313 133.105 633.78 134.278C632.714 136.589 631.86 137.655 629.799 139.184C628.377 140.286 625.853 143.449 625.462 144.622C624.964 146.151 622.867 147.573 617.962 149.67C614.514 151.127 612.31 151.838 610.853 151.981C609.679 152.123 608.009 152.443 607.156 152.763C606.196 153.082 604.383 153.296 602.464 153.296H599.335L598.767 155.144C597.416 159.978 596.385 165.31 595.034 174.624C593.399 186.07 592.831 189.162 591.657 193.179C589.916 198.902 589.596 203.949 589.951 218.523L590.307 231.676L591.8 235.159C592.617 237.079 593.47 239.531 593.648 240.633C593.968 242.304 594.359 243.015 596.101 245.041C598.838 248.205 599.762 249.84 601.042 253.821C601.646 255.634 602.321 257.447 602.535 257.838C602.748 258.264 604.099 259.117 605.556 259.793C607.014 260.433 609.217 261.819 610.462 262.85C611.706 263.881 613.981 265.516 615.545 266.44C617.073 267.4 619.988 269.212 622.05 270.457C627.844 274.047 634.846 279.521 639.432 284.071C644.728 289.296 655.961 301.382 658.2 304.261C659.125 305.47 661.222 307.923 662.786 309.7C664.385 311.477 666.092 313.788 666.589 314.783C668.402 318.338 668.971 327.58 668.971 353.138C668.971 372.795 668.722 376.705 667.371 379.975C666.412 382.25 666.198 384.88 666.66 388.186C666.909 389.892 667.229 393.34 667.336 395.9C667.585 400.414 668.331 404.68 671.566 420C673.023 426.825 673.201 426.505 667.833 426.861L664.03 427.11L664.599 428.211C665.452 429.847 671.246 435.427 674.481 437.738C678.995 440.937 681.128 442.11 685.962 444.03C689.481 445.451 691.223 446.411 693.711 448.26C696.413 450.286 696.875 450.819 696.981 451.779C697.159 453.449 696.057 454.374 693.924 454.374C693 454.409 691.614 454.622 690.832 454.907C688.806 455.653 684.007 455.582 680.772 454.765C679.244 454.374 676.756 453.876 675.156 453.663C671.672 453.201 671.068 453.023 667.122 451.388C662.928 449.646 660.404 449.113 652.513 448.295C648.816 447.94 645.119 447.442 644.302 447.229C642.062 446.66 639.965 445.274 639.041 443.816C638.294 442.572 638.223 442.146 638.294 437.845C638.365 434.93 638.65 432.015 639.076 430.024C639.645 427.216 639.681 426.754 639.219 426.221C638.756 425.723 638.828 425.048 639.716 420.533C640.64 415.735 640.711 414.953 640.676 406.741C640.64 401.943 640.463 396.22 640.249 394.016C639.894 390.426 639.752 389.892 638.792 388.684C638.223 387.973 637.086 385.911 636.304 384.134C634.989 381.184 634.811 380.437 634.455 376.314C634.242 373.79 634.029 370.2 633.993 368.351C633.922 365.65 633.709 364.548 632.998 362.842C631.789 360.069 631.292 354.737 632.109 353.209C632.785 351.929 632.287 350.223 631.221 350.223C630.119 350.223 628.27 348.125 627.417 345.815C625.746 341.336 619.348 333.694 614.229 330.103C612.772 329.073 609.999 326.904 608.044 325.269C602.783 320.826 591.231 312.33 588.814 311.122C585.437 309.415 577.723 306.145 574.417 304.972C572.356 304.261 570.436 303.87 568.339 303.764C565.566 303.586 565.104 303.657 562.474 304.688C556.004 307.283 546.407 312.935 536.383 320.115C529.06 325.34 506.168 342.438 496.393 350.009C481.357 361.633 478.904 363.553 470.444 370.484C461.344 377.913 457.505 380.864 454.093 383.068C452.92 383.814 449.863 386.018 447.339 387.902C442.825 391.279 436.924 395.296 434.791 396.504C433.369 397.251 432.872 398.104 427.113 409.194C421.604 419.823 421.817 419.467 417.445 424.515C415.667 426.576 413.926 428.674 413.57 429.242C412.824 430.415 412.93 430.415 407.421 427.998C405.181 427.038 403.297 426.328 403.191 426.399C403.119 426.505 402.906 427.678 402.693 428.993C402.515 430.344 402.124 432.122 401.804 432.939C401.058 434.93 399.423 435.712 394.268 436.387C392.1 436.707 388.474 437.205 386.27 437.489C384.102 437.809 379.659 438.769 376.424 439.657C364.907 442.75 359.362 443.496 352.644 442.892C348.52 442.501 348.2 442.394 347.525 441.506C346.53 440.155 346.921 439.124 348.947 437.88C349.871 437.276 351.542 436.138 352.644 435.321C353.71 434.503 356.092 433.259 357.904 432.548C363.45 430.415 371.021 425.759 376.637 421.102C378.166 419.787 380.37 418.116 381.507 417.334C382.929 416.375 383.533 415.735 383.391 415.379C383.249 415.059 384.28 413.566 386.164 411.434C387.763 409.55 391.46 405.106 394.34 401.587C397.219 398.068 400.347 394.371 401.307 393.34C402.266 392.345 403.368 390.888 403.724 390.141C404.115 389.395 405.039 387.831 405.821 386.658C406.567 385.449 407.634 383.707 408.238 382.783C413.712 373.968 422.35 362.06 426.616 357.474C428.642 355.27 430.81 352.853 431.414 352.071C432.054 351.289 433.583 350.045 434.791 349.299C438.488 347.095 439.874 345.744 441.261 343.149C442.54 340.696 444.176 338.955 446.451 337.533C447.695 336.786 451.107 333.125 452.173 331.383C452.493 330.885 452.849 330.068 452.955 329.535C453.098 329.037 453.773 327.828 454.484 326.904C455.195 326.016 456.012 324.416 456.297 323.421C456.581 322.425 457.968 319.44 459.354 316.809C464.01 307.887 469.378 299.391 477.66 287.874C482.388 281.298 485.089 277.175 486.405 274.58C487.898 271.63 489.248 270.314 491.061 270.03C493.194 269.746 493.763 268.999 496.713 262.956C497.922 260.504 499.841 258.122 501.476 257.091C502.081 256.7 502.472 255.776 503.076 253.359C504.036 249.591 504.747 248.027 506.559 245.61C507.626 244.223 507.946 243.406 508.123 241.842C508.408 239.034 509.261 235.657 510.221 233.311C510.683 232.209 511.323 229.472 511.643 227.232C511.962 224.993 512.496 222.185 512.816 221.012C514.166 216.248 512.922 203.985 510.398 196.911C509.652 194.743 509.012 192.752 509.012 192.468C509.012 192.183 508.159 190.015 507.093 187.634C504.995 182.906 504.284 180.773 503.68 177.787C503.218 175.406 501.867 173.77 501.05 174.659C500.801 174.943 499.166 177.396 497.424 180.098C495.042 183.901 493.443 185.927 490.706 188.664C487.471 191.97 486.831 192.432 483.241 194.174C481.073 195.205 478.193 196.733 476.843 197.551C471.191 200.963 467.778 202.243 462.198 203.061C460.669 203.274 458.252 203.772 456.83 204.163C454.875 204.696 453.56 204.838 451.676 204.731C450.254 204.625 445.42 204.305 440.87 204.02C431.592 203.381 430.384 203.167 427.54 201.426C426.438 200.75 425.016 200.11 424.341 199.968C423.701 199.861 422.457 199.399 421.568 198.973C420.679 198.511 419.08 198.049 418.013 197.942C415.347 197.587 412.397 196.733 410.94 195.916C408.985 194.778 403.795 192.752 401.484 192.219C396.792 191.153 392.918 189.126 389.718 186.105C387.977 184.505 387.87 184.292 387.657 182.159C387.515 180.915 387.266 179.493 387.052 179.031C386.839 178.391 386.875 177.823 387.301 177.041C387.835 176.01 387.835 175.868 387.124 174.624C385.986 172.562 386.128 171.602 387.799 170.536C389.114 169.718 389.221 169.505 389.221 168.083C389.221 167.194 389.327 166.235 389.434 165.915C389.896 164.777 391.78 164.208 395.868 163.995C399.316 163.817 399.92 163.675 400.702 162.964C401.449 162.253 401.769 162.182 403.653 162.396C406.425 162.716 408.309 163.675 408.949 165.133C409.198 165.773 409.944 167.941 410.549 170.003C412.113 175.086 412.362 175.548 413.997 175.868C414.743 175.974 416.734 176.436 418.44 176.827C420.928 177.396 421.746 177.467 422.67 177.147C424.376 176.579 426.722 176.685 429.602 177.467C433.121 178.463 437.244 178.498 441.474 177.538C443.5 177.076 446.166 176.792 448.157 176.792C450.254 176.756 451.925 176.543 452.742 176.223C453.418 175.939 454.413 175.69 454.946 175.69C455.444 175.69 456.652 175.192 457.648 174.624C458.607 174.055 459.709 173.557 460.065 173.557C460.385 173.557 462.126 172.597 463.868 171.389C467.174 169.149 470.267 166.128 472.79 162.609C473.608 161.507 474.994 159.73 475.847 158.734C476.949 157.455 477.731 155.962 478.407 153.936C479.864 149.777 480.717 147.893 482.459 145.191C483.277 143.876 484.734 141.423 485.694 139.753C487.755 136.056 489.533 133.639 493.087 129.764C496.642 125.854 498.206 124.788 500.872 124.468C503.076 124.219 504.462 123.508 512.318 118.709C514.415 117.429 516.975 116.114 518.005 115.83C519.001 115.51 522.413 114.337 525.541 113.199L531.229 111.102L532.473 109.254C533.148 108.258 534.392 106.943 535.21 106.339C536.667 105.308 536.738 105.166 536.738 103.424C536.738 102.393 536.347 100.154 535.85 98.3766C535.068 95.5684 534.961 94.4665 534.961 89.4544C534.961 81.7409 536.205 72.7476 537.805 68.9086C540.293 62.9368 543.599 59.2756 548.789 56.6807L552.13 55.01H557.497C562.723 55.0455 562.936 55.0455 565.531 56.183C572.178 59.0267 576.906 62.7236 578.754 66.5981C580.14 69.4418 580.46 72.1434 580.46 80.6389C580.46 91.5517 579.678 94.9997 575.982 100.225C574.951 101.647 574.311 103.069 574.062 104.313C573.849 105.344 573.173 107.654 572.534 109.467C571.929 111.28 571.538 112.844 571.68 112.986C571.823 113.128 572.782 112.808 573.813 112.275C576.906 110.711 577.581 110.747 583.055 112.56C590.449 115.048 593.435 116.541 596.456 119.313C597.878 120.629 599.478 121.908 599.975 122.193C601.291 122.868 606.8 123.295 607.724 122.797C608.115 122.584 608.72 121.802 609.075 121.091C609.466 120.273 610.106 119.633 610.853 119.313C611.741 118.958 612.168 118.46 612.488 117.501C612.879 116.221 615.9 112.88 618.246 111.102C618.815 110.676 620.237 109.432 621.374 108.33C623.045 106.73 623.471 106.09 623.471 105.237C623.471 104.348 623.898 103.744 625.604 102.145C626.777 101.043 628.021 99.443 628.412 98.5543C629.657 95.8172 631.825 92.6536 634.278 89.9876C636.908 87.1439 637.263 86.2553 636.624 84.3713C634.989 79.5726 634.135 76.089 634.135 74.2761C634.135 73.1742 633.993 72.25 633.851 72.25C633.709 72.25 632.607 72.6055 631.469 72.9965C628.697 73.9918 625.498 74.0629 623.72 73.1742C622.974 72.7832 621.694 71.6457 620.912 70.5793C619.348 68.5532 618.033 67.629 616.575 67.629C616.078 67.629 615.58 67.4512 615.474 67.2735C615.331 67.0602 615.687 66.918 616.256 66.918C616.789 66.918 617.5 66.7403 617.784 66.527C618.175 66.2427 617.997 66.2071 616.966 66.2782C616.256 66.3493 615.651 66.3137 615.651 66.2071C615.651 65.745 617.5 65.1407 618.922 65.1407C620.237 65.1407 620.557 65.354 622.547 67.4157C624.182 69.1219 625.036 69.7617 626.031 69.9395C626.742 70.0817 627.559 70.0817 627.808 69.9039C628.057 69.7617 627.879 70.0817 627.382 70.6149C626.671 71.3969 626.6 71.6457 627.026 71.8945C627.559 72.2144 629.266 72.0012 630.296 71.468C630.972 71.1481 631.185 70.1172 630.581 70.1172C630.367 70.1172 629.443 69.3707 628.519 68.411C622.05 62.0126 608.293 51.7397 573.529 27.3549C554.227 13.8117 545.483 8.12432 538.693 4.67632C535.743 3.18337 534.783 2.54353 534.783 2.01034C534.783 0.552937 539.475 0.0197414 544.345 1.01504ZM542.035 1.93925C543.03 2.15252 543.634 2.50799 543.741 2.93454C543.919 3.64547 545.554 4.21421 546.016 3.75211C546.478 3.25446 545.376 2.15252 544.132 1.86815C543.492 1.72597 542.39 1.58378 541.715 1.58378C540.506 1.58378 540.506 1.58378 542.035 1.93925ZM535.672 1.9037C535.281 2.15252 535.636 2.18807 536.916 2.01034C537.876 1.86815 538.764 1.72597 538.836 1.65488C539.191 1.33496 536.134 1.54824 535.672 1.9037ZM624.929 61.2662C624.254 62.0837 623.898 62.688 624.111 62.6169C624.68 62.4392 627.737 58.6713 627.737 58.2092C627.702 57.8537 627.31 58.2803 624.929 61.2662ZM636.872 69.9395C636.268 70.8637 636.375 70.7926 637.654 69.584C638.472 68.802 639.325 67.8422 639.538 67.4512C640.072 66.4915 637.868 68.5176 636.872 69.9395ZM643.022 69.6196C643.022 69.9039 643.164 70.0461 643.377 69.9395C643.555 69.8328 643.733 69.584 643.733 69.3707C643.733 69.193 643.555 69.0508 643.377 69.0508C643.164 69.0508 643.022 69.2996 643.022 69.6196ZM548.682 85.4377C548.184 85.8998 550.672 86.7885 551.383 86.3975C552.237 85.9709 552.201 85.5799 551.206 85.1178C550.424 84.7268 549.286 84.869 548.682 85.4377ZM547.402 91.3029C547.402 92.4759 548.575 92.3692 548.753 91.1607C548.86 90.5564 548.682 90.3787 548.149 90.3787C547.58 90.3787 547.402 90.5919 547.402 91.3029ZM400.809 169.86C400.525 170.607 400.525 170.713 400.916 170.713C401.093 170.713 401.307 170.394 401.413 170.003C401.627 169.149 401.129 169.043 400.809 169.86Z" fill="#C1C4D3"/>
</svg>