<svg width="611" height="445" viewBox="0 0 611 445" fill="none" xmlns="http://www.w3.org/2000/svg">
<path d="M79.1015 17.3991C79.9753 17.629 81.3549 18.3189 82.0908 18.9167C83.5624 19.9745 87.8394 25.9991 87.8394 26.9189C87.8394 27.4707 88.1613 27.5627 90.9667 27.4247C92.0244 27.3787 94.002 27.7007 95.3357 28.1146C98.325 29.0804 98.3709 29.0804 100.027 30.1841C100.762 30.69 101.774 31.2418 102.188 31.3798C102.648 31.5638 103.016 31.7937 103.016 31.9777C103.016 32.1156 106.235 34.645 110.144 37.5424C114.053 40.4397 117.364 43.245 117.548 43.7509C117.778 44.4408 117.41 45.0386 115.893 46.3263C113.179 48.6718 109.914 49.2696 101.544 48.9017C95.7496 48.6718 95.1977 48.7177 95.3817 49.4076C97.6351 56.7659 97.5891 56.5359 97.0373 58.4215C96.6693 59.5252 96.4394 63.2503 96.3934 67.5733C96.3014 75.6214 96.0255 74.9776 100.027 75.5295C102.878 75.8974 109.822 77.691 113.685 78.9787C118.652 80.6803 123.665 83.7615 126.562 86.9348C127.804 88.2225 127.896 88.2685 131.161 87.9925C133.001 87.8546 135.76 87.5327 137.278 87.2567C139.945 86.7968 144.176 86.199 151.075 85.3712C152.822 85.1412 155.857 84.5434 157.743 83.9915C159.629 83.4856 162.02 82.7958 163.032 82.5658C164.044 82.2899 165.055 81.922 165.285 81.646C165.561 81.4161 166.113 81.2321 166.527 81.2321C169.102 81.2321 174.391 78.7487 176.691 76.4952C177.38 75.8054 179.128 74.8396 182.255 73.368C184.555 72.3562 187.176 69.4129 187.176 67.8953C187.176 67.4354 187.59 66.6076 188.05 66.0097C188.924 64.9519 188.97 64.9519 189.844 65.7338C191.039 66.8375 192.051 66.5156 194.488 64.2621C196.282 62.6065 196.374 62.3306 195.914 61.3648C195.132 59.8931 193.109 57.7776 192.419 57.7776C192.143 57.7776 191.637 57.4557 191.315 57.0878C190.809 56.4899 190.947 56.3979 192.143 56.3979C194.167 56.3979 195.73 57.0878 197.248 58.6514C198.26 59.6632 198.719 59.8931 199.041 59.4792C199.777 58.5594 200.605 55.5242 200.329 54.6963C200.191 54.2365 200.375 53.4546 200.743 52.9947C201.387 52.1669 201.479 52.1669 202.261 52.8568C203.042 53.5466 205.434 53.6386 226.267 53.7306L249.446 53.8685L249.859 55.9381C250.089 57.2258 250.043 59.1573 249.675 61.0888L249.124 64.2161L233.671 64.3081L218.219 64.4461L218.357 65.7338C218.495 67.2514 217.621 70.2867 216.885 70.7466C216.609 70.9305 215.414 71.1145 214.172 71.1145C212.332 71.1145 212.01 71.2525 212.01 71.9883C212.01 72.4942 211.504 73.5059 210.861 74.2418C210.217 75.0236 209.711 75.9434 209.711 76.3573C209.711 76.7712 209.389 77.2311 209.021 77.369C207.595 77.9209 207.733 79.4385 209.297 81.0942L210.861 82.6578L210.723 86.8888C210.585 91.5337 209.665 95.5348 208.423 96.7765C207.963 97.2364 206.584 97.9722 205.342 98.4321C201.111 99.9957 195.776 102.479 195.546 102.939C195.454 103.169 195.132 103.307 194.81 103.307C194.121 103.307 189.935 107.538 189.935 108.274C189.935 108.596 189.66 108.826 189.338 108.826C188.142 108.826 181.887 115.954 180.37 119.081C179.588 120.737 178.898 122.392 178.898 122.714C178.898 123.634 176.047 126.44 174.299 127.267C173.425 127.681 168.964 129.843 164.411 132.096C154.478 136.925 153.052 137.201 147.395 135.315C145.372 134.626 141.693 133.66 139.117 133.154C136.588 132.602 133.691 131.682 132.679 131.084C128.586 128.693 125.183 127.543 123.435 127.957C122.515 128.187 122.515 128.417 122.699 137.017C123.067 152.883 123.021 155.827 122.193 165.714L121.366 175.464L122.377 178.361C122.883 179.971 123.343 182.362 123.297 183.65C123.297 186.272 123.573 186.501 125.551 185.398C127.344 184.386 129.966 184.524 131.161 185.72C132.081 186.639 132.219 187.375 132.541 193.86C132.863 200.252 132.817 201.126 132.081 202.368C131.621 203.15 130.793 203.839 130.241 203.931C129.092 204.115 128.954 204.989 129.874 206.691C130.195 207.381 130.839 208.668 131.207 209.542C133.507 214.647 134.289 216.486 135.208 218.74C135.76 220.12 136.45 221.867 136.772 222.649C137.14 223.385 137.738 224.948 138.198 226.098C138.612 227.248 139.255 228.766 139.577 229.547C140.635 231.939 143.762 240.999 145.004 245.414C146.522 250.656 147.12 253.554 147.395 256.451C147.533 258.107 147.855 260.59 148.085 261.97C148.315 263.349 148.821 267.075 149.235 270.248C150.661 281.607 151.351 285.608 152.178 287.126C153.88 290.437 154.294 292.231 154.294 296.462C154.294 299.451 154.064 301.429 153.558 302.67C150.937 309.155 149.971 314.489 149.925 322.446C149.925 332.839 148.315 343.371 145.05 354.868C143.9 358.823 143.854 368.389 144.912 371.424C146.89 376.943 147.257 379.012 147.028 383.427C146.89 385.819 146.614 388.44 146.476 389.268C145.786 392.533 148.913 395.385 156.593 398.512C164.136 401.547 166.251 403.249 166.757 406.698C166.895 407.756 167.309 408.905 167.677 409.181C168.367 409.733 168.551 413.136 167.953 414.01C167.769 414.286 166.895 414.884 166.021 415.298C157.237 419.759 139.991 418.149 133.921 412.355C131.989 410.469 130.104 409.917 128.034 410.469C125.643 411.159 122.239 411.113 120.814 410.377C120.17 410.101 118.1 409.089 116.169 408.216L112.72 406.606L112.674 402.789C112.674 400.673 112.444 398.558 112.214 398.052C111.846 397.408 111.892 396.902 112.306 396.12C112.674 395.476 112.904 393.131 112.904 389.314C112.904 383.749 112.95 383.473 114.145 381.864C114.881 380.99 115.433 380.07 115.433 379.932C115.433 379.748 115.755 379.334 116.123 378.966C117.043 378.001 116.997 375.609 116.031 374.551C115.157 373.586 115.019 369.769 115.847 367.653C116.675 365.4 116.905 358.869 116.399 347.372C115.939 335.645 116.169 331.184 117.548 323.825C118.468 319.088 119.434 315.685 120.86 312.604C122.561 308.741 122.653 307.361 121.228 305.2C120.584 304.188 120.032 303.13 120.032 302.854C120.032 302.256 121.779 300.601 122.423 300.601C123.159 300.601 122.791 299.267 121.963 299.037C119.342 298.209 117.089 294.392 116.583 290.023C115.985 284.734 114.329 279.446 112.26 276.318C111.294 274.893 109.914 272.685 109.178 271.49C108.443 270.248 107.477 268.684 107.063 268.04C106.603 267.351 106.005 266.339 105.729 265.741C105.407 265.189 104.993 264.729 104.763 264.729C104.579 264.729 104.396 264.499 104.396 264.223C104.396 263.993 103.522 262.384 102.418 260.682C101.314 258.98 99.3827 255.485 98.141 252.91C96.8993 250.335 95.6116 248.219 95.2897 248.173C94.9677 248.173 94.3699 248.955 93.956 249.875C92.3004 253.738 90.3228 257.647 89.771 258.199C89.495 258.521 89.2191 258.98 89.2191 259.21C89.2191 259.808 85.218 265.557 82.9186 268.224C81.8608 269.512 80.941 270.8 80.941 271.076C80.941 271.352 80.7571 271.628 80.5271 271.72C79.9753 271.903 76.802 278.802 76.802 279.814C76.802 280.228 76.2501 282.021 75.6063 283.815C74.9624 285.562 74.3186 287.448 74.1806 287.954C74.0427 288.46 73.3528 290.207 72.571 291.863C71.8352 293.518 70.9154 295.588 70.5015 296.462C70.1336 297.335 69.6277 298.393 69.4437 298.807C68.8919 299.911 67.7421 304.694 67.3742 307.269C66.8683 311.408 65.3967 314.995 62.1774 320.008C61.1197 321.71 60.2459 323.273 60.2459 323.549C60.2459 323.779 60.1079 324.055 59.878 324.147C59.3261 324.377 54.9111 331.873 53.4395 335.093C52.6577 336.748 51.9218 338.818 51.7839 339.692C51.6459 340.565 51.416 341.899 51.278 342.681C51.186 343.417 50.9561 344.658 50.7721 345.394C50.6341 346.13 50.4502 347.234 50.3582 347.924C50.1742 349.671 48.5646 355.19 47.3229 358.317C47.139 358.823 46.6331 360.065 46.2192 361.077C43.7358 367.147 43.5518 368.067 43.5978 376.483C43.5978 385.083 43.5518 385.405 41.0224 387.98C39.2748 389.774 38.1711 392.349 38.1711 394.741C38.1711 396.948 36.8834 400.443 35.9176 401.041C35.6417 401.225 35.4117 402.835 35.4117 404.95C35.4117 409.733 34.308 412.125 31.9165 412.584C29.1112 413.09 28.5133 413.688 28.5133 416.034C28.5133 419.805 25.9379 422.426 19.0855 425.553C17.6599 426.197 16.1422 426.381 12.1871 426.335C7.45026 426.335 6.94437 426.243 4.13903 424.864C0.459895 423.07 2.32297e-06 422.196 2.32297e-06 417.045C2.32297e-06 410.699 0.551873 409.595 6.48448 404.398C11.3134 400.121 11.8652 399.478 12.3711 397.408C13.015 394.833 13.015 391.797 12.3711 391.383C11.3134 390.74 13.1529 383.749 14.8545 382.186C15.9123 381.22 16.0962 380.668 16.0962 378.506C16.0962 376.391 16.4641 375.149 18.1198 371.7C21.0171 365.721 21.201 365.032 21.6149 357.857C21.8449 354.316 22.2128 349.855 22.4887 347.97C22.7647 346.084 23.4085 341.531 23.9144 337.852C25.0641 329.344 25.9379 326.171 27.9155 323.503C28.9732 322.032 29.4791 320.882 29.3871 320.054C29.3411 319.318 29.4791 318.353 29.6631 317.847C29.985 316.927 33.5261 309.799 36.2395 304.51C39.6427 297.841 40.3785 293.794 40.6545 279.906C40.8384 269.328 41.3903 264.499 43.0459 257.693C44.5176 251.76 45.1614 249.231 45.7133 247.253C47.047 242.792 47.7828 240.033 48.4726 237.366C48.8406 235.848 49.4384 233.364 49.8523 231.847C50.5422 228.95 51.5999 222.925 52.4737 216.67C52.7496 214.647 53.0716 208.622 53.2095 203.242C53.4395 193.814 53.4395 193.492 52.4737 192.25C51.5999 191.146 51.5079 190.457 51.5079 184.34C51.5079 174.82 51.048 172.797 47.139 164.703C42.0342 154.079 39.6427 146.905 37.4812 135.269C37.0213 132.786 36.3775 130.763 35.8716 130.211C34.6299 128.831 34.354 127.175 35.1358 125.382C35.6417 124.14 35.7336 122.622 35.5497 118.805C35.1818 112.505 36.3775 106.02 38.9069 100.226C39.2748 99.4439 39.5507 98.5701 39.5507 98.2941C39.5507 98.0182 39.7347 97.7882 40.0106 97.7882C40.2406 97.7882 40.4705 97.5583 40.4705 97.2364C40.4705 96.2706 48.1507 85.3712 48.8406 85.3712C49.0245 85.3712 49.2085 85.1412 49.2085 84.9113C49.2085 84.6353 50.0823 83.6236 51.094 82.6118C52.8876 80.8642 52.9796 80.6803 52.7037 78.7487C52.3357 76.3573 52.8876 75.0236 55.7389 71.2065C56.7507 69.8728 57.4865 68.4011 57.3946 67.9872C57.3026 67.5733 56.4288 66.8375 55.417 66.3316C54.4053 65.8717 53.4395 65.2739 53.2555 64.9519C53.0716 64.676 53.0256 62.8824 53.1635 60.9509C53.3935 58.0996 53.3475 57.3637 52.7037 56.7659C52.2897 56.352 51.9678 55.8921 51.9678 55.7081C51.9678 55.5701 51.416 54.9263 50.7721 54.3284C49.5764 53.2247 49.3464 53.1787 45.1154 53.4546C39.3668 53.8226 27.1336 52.6728 27.1336 51.799C27.1336 51.5691 27.5935 51.2472 28.1454 51.0632C28.6973 50.9252 30.6748 49.8675 32.5604 48.7637C34.3999 47.66 36.0556 46.7402 36.1935 46.7402C36.9293 46.7402 49.6684 37.8643 49.8523 37.1745C49.9443 36.7606 50.2202 34.5071 50.3582 32.2536C50.8181 25.5852 52.6117 23.1018 58.1304 21.4461C66.5004 18.9627 75.3303 16.8012 76.802 16.8932C77.1699 16.8932 78.2277 17.1232 79.1015 17.3991ZM177.242 94.799C175.863 95.4428 174.161 96.0866 173.379 96.2246C172.046 96.5006 172 96.5925 172 98.984C172 100.364 172.092 101.467 172.23 101.467C172.322 101.467 173.333 100.962 174.483 100.318C175.633 99.6738 177.15 99.1679 177.932 99.1679C179.496 99.1679 182.255 96.8225 182.991 94.8909C183.451 93.6492 183.451 93.6492 181.565 93.6492C180.508 93.6492 178.622 94.1551 177.242 94.799ZM153.65 108.182C152.408 108.688 152.224 108.964 152.638 109.47C153.374 110.343 155.536 110.711 157.329 110.205C158.847 109.745 160.962 108.09 160.962 107.308C160.962 106.756 155.628 107.4 153.65 108.182Z" fill="#8A90AC"/>
<path d="M507.73 0.719367C511.087 1.81043 514.78 3.8247 516.458 5.75504C518.556 8.10502 518.892 8.02113 525.69 4.58008C532.656 1.05511 538.111 0.63547 541.469 3.32116C546.588 7.3497 547.931 16.6657 544.238 22.2049L542.056 25.3103L544.994 28.4995C548.015 31.8566 550.617 36.4727 551.792 40.2494C552.127 41.4244 553.89 45.369 555.652 49.0618C558.842 55.6082 562.115 66.0992 563.961 75.5831C564.717 79.5277 565.388 80.7027 567.822 82.4652C573.949 86.8294 581.167 98.5793 585.699 111.924C590.315 125.268 592.413 133.074 593.84 141.802C595.602 153.216 596.357 176.632 595.182 184.018C594.343 189.054 594.511 190.564 596.274 197.446C598.624 206.762 600.218 222.121 599.966 232.78C599.882 238.655 600.302 242.432 601.981 249.23C606.093 265.932 607.1 276.087 607.184 301.685C607.184 326.527 606.681 331.731 602.82 347.426C600.806 355.734 600.722 357.077 601.141 373.024L601.477 389.809L606.261 408.693C612.891 434.794 612.723 438.152 604.75 442.18C600.134 444.446 596.945 444.614 588.72 443.103C582.509 442.012 579.236 440.669 577.474 438.571C576.802 437.816 575.627 437.228 574.788 437.228C570.592 437.228 569.417 431.186 572.354 423.8C574.2 419.016 574.536 411.043 573.109 405.755C572.606 403.909 568.997 397.866 565.22 392.327C553.722 375.625 548.854 365.974 548.854 360.015C548.854 357.077 547.595 356.825 544.994 359.259L543.147 361.022L542.644 358.588C542.392 357.329 541.972 354.308 541.636 352.042C540.881 346.251 539.958 344.74 539.203 348.097C538.615 350.867 535.845 354.979 534.503 354.979C534.083 354.979 533.747 354.224 533.747 353.217C533.747 352.126 533.328 351.622 532.656 351.874C521.494 356.574 517.046 358.84 515.619 360.434C514.612 361.441 513.437 362.113 512.933 361.777C511.59 360.938 510.247 356.825 510.835 355.231C511.171 354.392 511.003 354.056 510.499 354.392C509.996 354.727 509.408 357.245 509.072 360.015C508.737 362.868 508.149 364.883 507.646 364.631C505.967 363.54 503.281 365.386 501.855 368.659C501.015 370.59 499.672 376.297 498.917 381.416C496.819 395.264 494.553 403.657 492.455 405.923C489.937 408.609 481.46 412.554 475.837 413.645C470.55 414.652 454.016 414.736 452.757 413.729C452.253 413.393 450.743 412.889 449.4 412.554C445.707 411.63 443.944 409.7 443.944 406.427C443.944 400.552 447.973 396.775 457.457 393.67C459.051 393.166 461.653 391.656 463.164 390.397L465.85 388.131L464.087 364.211C460.646 318.89 462.744 288.34 470.55 268.701L472.648 263.33L470.969 252.755C469.962 246.88 468.955 238.571 468.619 234.375C468.283 229.675 467.612 226.234 467.025 225.73C466.185 225.059 463.332 225.143 456.869 226.15C447.553 227.493 442.35 227.241 439.244 225.31C437.566 224.219 437.398 224.303 436.894 226.737C436.055 231.018 436.307 233.2 437.818 234.039C439.16 234.794 439.077 234.878 437.398 234.962C434.796 234.962 434.125 237.228 435.803 240.166C437.146 242.432 437.146 242.516 435.132 242.516C432.362 242.516 431.943 243.691 433.873 245.453C436.307 247.635 435.971 248.558 432.782 248.223C430.852 248.055 430.096 248.307 430.096 249.23C430.096 251.076 429.341 251.412 425.061 251.076C419.941 250.657 419.018 249.146 417.591 238.235C416.92 233.451 415.409 226.653 414.234 223.212C411.38 215.155 410.373 208.609 411.38 205.084C412.136 202.314 412.891 201.559 429.593 187.963C435.719 183.011 437.902 180.661 439.664 177.052C440.923 174.45 443.777 170.002 445.875 167.148C448.057 164.127 449.987 160.518 450.239 158.756C453.176 141.215 456.953 129.633 462.409 121.659C463.164 120.484 464.255 116.372 464.758 112.427C465.43 108.147 466.689 103.363 468.2 100.174C470.046 96.2293 470.633 93.7954 470.55 89.9347C470.55 86.0741 471.053 84.0598 472.732 80.9545C475.417 76.1706 475.417 76.0866 473.403 76.7581C472.228 77.0938 471.641 76.7581 471.221 75.4991C470.382 72.8974 467.612 71.4706 461.15 70.4635C448.56 68.617 444.448 65.5957 445.371 58.8814C446.21 52.2511 448.98 49.1458 448.98 54.685C448.98 58.21 449.987 59.8046 452.001 59.385C453.344 59.1332 453.596 58.21 453.848 54.0975C454.1 47.1315 453.596 46.544 446.798 46.544H441.259L439.496 43.1869C438.573 41.3405 437.398 37.8994 437.062 35.6334C436.643 33.2834 436.139 30.262 435.887 28.8352C435.3 25.4781 436.391 24.5549 446.21 20.946C453.848 18.1764 454.268 17.8407 455.275 14.8193C455.862 13.0568 457.037 10.7907 457.96 9.86753C459.891 7.60148 467.192 4.16044 469.962 4.16044C471.137 4.16044 476.257 3.23724 481.292 2.06224C490.608 -0.0359529 503.114 -0.623479 507.73 0.719367Z" fill="#C1C4D3"/>
<path d="M288.106 59.0123C288.232 58.8605 288.328 58.6783 288.345 58.5951C288.35 58.5369 288.348 58.4457 288.345 58.413C288.338 58.3588 288.326 58.3174 288.324 58.3079C288.316 58.2794 288.308 58.2571 288.306 58.2517C288.3 58.2352 288.294 58.2206 288.292 58.2134C288.285 58.1962 288.276 58.1755 288.267 58.1543C288.249 58.1105 288.222 58.0479 288.188 57.9689C288.119 57.8103 288.018 57.5779 287.888 57.2806C287.628 56.6855 287.25 55.8264 286.784 54.7676C285.851 52.65 284.562 49.7317 283.143 46.5254C280.247 39.9763 278.642 36.3438 277.753 34.3305C278.14 34.6265 278.57 34.9554 279.037 35.3134C281.227 36.9905 284.244 39.3044 287.56 41.8513L287.561 41.8518C290.881 44.3961 293.902 46.7047 296.097 48.3743C297.194 49.209 298.086 49.8847 298.705 50.3505C299.014 50.5831 299.257 50.7647 299.425 50.8879C299.508 50.9491 299.575 50.9984 299.625 51.0331C299.648 51.0496 299.674 51.0678 299.698 51.0834C299.708 51.0896 299.732 51.105 299.761 51.1208L299.761 51.1209C299.771 51.1267 299.81 51.1477 299.862 51.1669C299.884 51.175 299.948 51.1984 300.035 51.2087L300.037 51.209C300.079 51.2143 300.395 51.2534 300.655 50.9943L300.692 50.9566L300.724 50.9139C300.763 50.8626 300.786 50.8175 300.793 50.8042C300.803 50.7844 300.81 50.7679 300.815 50.7581C300.823 50.7383 300.83 50.7213 300.833 50.7117C300.841 50.6914 300.848 50.6707 300.853 50.6542C300.865 50.6195 300.878 50.5753 300.894 50.5258C300.924 50.4255 300.966 50.2865 301.014 50.1204C301.112 49.7873 301.241 49.336 301.379 48.8475L301.381 48.8422C301.615 47.9894 302.027 46.5306 302.352 45.3773C302.4 45.2084 302.446 45.0459 302.489 44.893L302.49 44.8895C302.719 44.0638 303.155 42.5085 303.6 40.9254C303.798 40.2196 303.998 39.5083 304.181 38.8536L304.181 38.8531C304.545 37.5524 304.912 36.2471 305.176 35.3132C305.292 35.6107 305.423 35.9462 305.566 36.314C306.693 39.2048 308.597 44.0874 310.177 48.1483C310.475 48.9157 310.751 49.622 310.957 50.1422C311.059 50.4021 311.144 50.6165 311.205 50.7691C311.236 50.8452 311.261 50.9075 311.28 50.9529C311.289 50.9753 311.298 50.996 311.305 51.0132C311.309 51.0215 311.313 51.0319 311.318 51.0424C311.318 51.0432 311.326 51.0605 311.338 51.0835C311.582 51.5596 312.081 51.4875 312.119 51.4817C312.227 51.4652 312.306 51.4285 312.325 51.4198C312.38 51.3944 312.422 51.3669 312.434 51.3586C312.47 51.3353 312.506 51.3089 312.533 51.2884C312.591 51.2438 312.671 51.1804 312.767 51.102C312.961 50.9435 313.248 50.7037 313.628 50.3824C314.39 49.7389 315.537 48.7587 317.088 47.4251C319.806 45.088 323.772 41.6619 329.092 37.0522C328.123 39.0613 326.705 42.0001 325.165 45.1842L325.165 45.1848C323.807 47.9987 322.573 50.5583 321.679 52.4153C321.233 53.3437 320.871 54.0969 320.621 54.6184C320.496 54.8791 320.399 55.0825 320.333 55.2213C320.3 55.2904 320.274 55.3447 320.257 55.3825C320.248 55.4009 320.24 55.4178 320.234 55.4314C320.231 55.4372 320.227 55.4476 320.222 55.4588C320.221 55.4611 320.218 55.4673 320.215 55.4758C320.213 55.4814 320.21 55.488 320.208 55.4951C320.205 55.5013 320.196 55.5269 320.187 55.5604C320.182 55.5807 320.171 55.6379 320.166 55.6751C320.162 55.7586 320.237 56.0814 320.381 56.2846C320.476 56.3794 320.572 56.4244 320.608 56.4403C320.654 56.4605 320.692 56.4719 320.714 56.4778C320.757 56.4896 320.791 56.4949 320.806 56.497C320.837 56.5015 320.862 56.5032 320.871 56.5037C320.894 56.5051 320.914 56.5055 320.924 56.5056C320.949 56.506 320.978 56.5058 321.007 56.5054C321.068 56.5047 321.153 56.5029 321.258 56.5003C321.468 56.4949 321.769 56.4859 322.138 56.474C322.876 56.4502 323.89 56.4149 325.003 56.375C327.228 56.2953 329.85 56.2034 330.823 56.1728L330.828 56.1727C331.435 56.1499 332.293 56.1201 333.104 56.092C333.6 56.0747 334.079 56.0581 334.472 56.0441C334.934 56.0303 335.41 56.014 335.822 55.9985C335.641 56.2285 335.436 56.4866 335.213 56.7692C334.244 57.993 332.91 59.6737 331.445 61.5156L331.445 61.5157C328.891 64.7276 327.555 66.4114 326.873 67.3018C326.539 67.7373 326.338 68.0145 326.229 68.1956C326.186 68.2673 326.097 68.419 326.067 68.6032C326.049 68.717 326.047 68.8806 326.123 69.0548C326.198 69.2279 326.316 69.3294 326.382 69.3784L326.382 69.3784C326.416 69.4037 326.452 69.4271 326.459 69.4315C326.476 69.4429 326.496 69.4565 326.52 69.4721C326.539 69.4847 326.56 69.4986 326.583 69.5137C326.686 69.5818 326.834 69.6783 327.02 69.7995C327.392 70.0422 327.922 70.3863 328.57 70.8063C329.866 71.6464 331.637 72.7914 333.568 74.039C335.498 75.2861 337.254 76.4243 338.526 77.2528C338.548 77.2672 338.57 77.2814 338.592 77.2956C337.169 77.3188 334.453 77.3639 327.966 77.4774C326.872 77.4958 325.873 77.5142 325.147 77.5288C324.784 77.5361 324.488 77.5424 324.282 77.5473C324.179 77.5498 324.097 77.5519 324.04 77.5537C324.025 77.5541 324.011 77.5545 323.999 77.555C323.987 77.5554 323.977 77.5558 323.968 77.5562C323.959 77.5565 323.946 77.5571 323.934 77.5579C323.929 77.5583 323.916 77.5591 323.901 77.5607C323.894 77.5614 323.877 77.5633 323.855 77.5668C323.845 77.5685 323.825 77.572 323.8 77.5781L323.799 77.5784C323.784 77.582 323.718 77.598 323.641 77.6362L323.418 77.748L323.306 77.9716C323.245 78.1419 323.233 78.405 323.248 78.4871C323.26 78.5292 323.284 78.5949 323.294 78.619C323.314 78.6606 323.332 78.6913 323.338 78.7C323.352 78.7229 323.364 78.7404 323.368 78.7454L323.368 78.7455C323.377 78.7591 323.386 78.7709 323.391 78.7767C323.402 78.7906 323.415 78.8071 323.428 78.8236C323.455 78.8579 323.495 78.9066 323.544 78.9675C323.644 79.0901 323.791 79.269 323.979 79.4976C324.355 79.9551 324.9 80.6147 325.572 81.4272C326.916 83.0522 328.773 85.2902 330.817 87.7488C332.862 90.2099 334.73 92.4594 336.093 94.1014C336.166 94.1894 336.237 94.2756 336.307 94.36C336.161 94.2923 336.01 94.2223 335.855 94.1503C334.708 93.6189 333.317 92.9735 331.774 92.2583C330.688 91.7547 329.528 91.2165 328.326 90.6592L328.325 90.6591L317.751 85.7611L316.903 85.3683L316.703 86.2814L316.661 86.4751C316.661 86.4759 316.66 86.4767 316.66 86.4776C316.644 86.5517 316.615 86.7761 316.583 87.0305C316.545 87.3202 316.495 87.7251 316.435 88.2153C316.314 89.196 316.155 90.5215 315.986 91.9571C315.355 97.2622 314.944 100.703 314.689 102.821C314.645 103.182 314.606 103.505 314.572 103.791C314.433 103.588 314.284 103.368 314.124 103.134C313.165 101.723 311.844 99.7744 310.395 97.6265C308.945 95.4775 307.623 93.5244 306.662 92.109C306.181 91.4014 305.79 90.8275 305.517 90.4304C305.381 90.2322 305.274 90.0765 305.199 89.9698C305.162 89.9171 305.131 89.8732 305.108 89.8413C305.097 89.8265 305.084 89.8081 305.071 89.7911C305.066 89.7845 305.051 89.7663 305.033 89.7458L305.033 89.7457C305.026 89.7381 305.002 89.7107 304.967 89.6801C304.953 89.6673 304.909 89.6297 304.846 89.5933C304.813 89.5748 304.724 89.5366 304.67 89.5192C304.627 89.5101 304.551 89.5054 304.471 89.5066V89.4924C304.43 89.4958 304.385 89.5038 304.339 89.514C304.301 89.5179 304.264 89.5235 304.233 89.5308L304.237 89.5405C304.178 89.5578 304.128 89.5761 304.102 89.589C304.07 89.6079 304.021 89.642 304.002 89.6563C303.969 89.6831 303.945 89.7069 303.937 89.7148C303.918 89.7342 303.904 89.7508 303.899 89.7558C303.888 89.7693 303.878 89.7816 303.873 89.788C303.861 89.8028 303.847 89.8207 303.833 89.8389C303.804 89.8765 303.764 89.9303 303.713 89.9979C303.612 90.1339 303.463 90.3333 303.275 90.5884C302.897 91.0992 302.353 91.8372 301.683 92.7473C300.344 94.5677 298.502 97.0784 296.479 99.8403L296.479 99.8404C293.491 103.921 291.662 106.407 290.575 107.863C290.598 107.438 290.624 106.963 290.653 106.444C290.778 104.168 290.954 101.05 291.151 97.6416L291.151 97.6416C291.347 94.2297 291.522 91.1257 291.646 88.8722C291.708 87.7455 291.757 86.8309 291.79 86.1966C291.807 85.8796 291.82 85.6316 291.828 85.4618C291.832 85.3773 291.835 85.3101 291.837 85.2629C291.837 85.24 291.838 85.218 291.839 85.1999C291.839 85.1919 291.839 85.1778 291.839 85.1623C291.839 85.1587 291.839 85.1511 291.838 85.141C291.838 85.1338 291.838 85.1254 291.837 85.1162C291.836 85.1065 291.834 85.0815 291.829 85.05C291.827 85.0335 291.818 84.9926 291.812 84.9683C291.81 84.9622 291.807 84.9544 291.804 84.9454C291.804 84.9453 291.804 84.9452 291.804 84.9451M288.106 59.0123L291.804 84.9451M288.106 59.0123L288.131 59.037C288.02 59.1476 287.904 59.1944 287.856 59.2118C287.799 59.2326 287.751 59.2421 287.724 59.2466C287.671 59.2556 287.628 59.2568 287.611 59.2572C287.572 59.2579 287.541 59.2555 287.529 59.2546C287.5 59.2524 287.473 59.2489 287.455 59.2465C287.416 59.2411 287.366 59.2333 287.313 59.2244C287.203 59.2063 287.05 59.1791 286.867 59.1455C286.499 59.0782 285.997 58.9827 285.447 58.8752M288.106 59.0123L285.447 58.8752M291.804 84.9451C291.786 84.8966 291.748 84.8122 291.715 84.7551C291.761 84.8259 291.786 84.8903 291.799 84.9303L291.804 84.9451ZM285.447 58.8752C282.064 58.2224 278.995 57.6325 276.77 57.2082C276.006 57.0624 275.342 56.9362 274.799 56.8337C274.987 57.1425 275.202 57.4956 275.44 57.8867C276.368 59.4109 277.65 61.5115 279.063 63.8222C280.476 66.1303 281.762 68.2314 282.695 69.7556L283.8 71.5628L284.101 72.0551L284.18 72.1832L284.2 72.2159L284.205 72.2241L284.206 72.2262L284.206 72.2267L284.207 72.2268L283.567 72.6182L284.207 72.2269L284.317 72.407V72.6182C284.302 72.7642 284.245 72.939 284.228 72.9726C284.22 72.9873 284.206 73.01 284.201 73.0181C284.193 73.0316 284.186 73.042 284.184 73.0449L284.184 73.045C284.178 73.0528 284.174 73.0591 284.172 73.0613L284.16 73.077L284.133 73.1132L284.036 73.2415C283.952 73.3529 283.828 73.5163 283.668 73.7261C283.349 74.1457 282.888 74.7516 282.318 75.4988C281.179 76.9932 279.608 79.0531 277.88 81.3183C276.151 83.5829 274.581 85.6467 273.443 87.1464C273.19 87.4792 272.959 87.7842 272.752 88.0574C273.009 88.0066 273.283 87.952 273.567 87.895C274.544 87.6978 275.466 87.5117 276.336 87.3361C283.513 85.8875 287.161 85.1512 289.016 84.7813C290.052 84.5747 290.539 84.4804 290.769 84.4404L290.779 84.4387C290.86 84.4245 290.983 84.4032 291.087 84.4054L291.088 84.4054C291.104 84.4052 291.404 84.4014 291.63 84.6426L291.655 84.6645L291.684 84.7077L285.447 58.8752ZM324.58 77.8629L324.581 77.8631L324.58 77.8629ZM300.514 49.8247C300.515 49.8251 300.515 49.8251 300.514 49.8249L300.514 49.8247ZM291.805 84.9503C291.806 84.952 291.806 84.9526 291.806 84.9519L291.805 84.9503Z" stroke="#FF0000" stroke-width="1.5"/>
<path d="M281.58 39.1836C281.733 39.5332 282.489 41.2509 286.169 49.5726C288.192 54.1442 289.844 57.8942 289.836 57.8986C289.827 57.9074 289.184 57.7893 288.402 57.6364C283.577 56.7054 279.648 55.9537 279.639 55.9668C279.635 55.9755 281.278 58.6722 283.293 61.9677C285.308 65.2588 286.96 67.9598 286.96 67.9598C286.96 67.9642 284.945 70.6084 282.48 73.8383C280.015 77.0682 278 79.7255 278 79.7386C278 79.7561 278.87 79.59 279.936 79.3759C292.821 76.7754 292.292 76.8803 292.323 76.9065C292.331 76.9196 292.113 80.9056 291.833 85.7701C291.553 90.6303 291.33 94.6643 291.339 94.7255C291.348 94.8217 292.27 93.5935 296.597 87.6845C299.482 83.7465 301.851 80.5254 301.864 80.5254C301.877 80.521 303.577 83.0254 305.644 86.0892C307.712 89.153 309.412 91.6486 309.42 91.6442C309.434 91.6268 309.705 89.3759 310.605 81.8103C310.845 79.7649 311.059 78.0341 311.077 77.9554L311.108 77.8156L318.647 81.3077C322.795 83.2308 326.252 84.8348 326.335 84.8698C326.479 84.9397 326.483 84.9397 326.422 84.8654C326.387 84.8217 323.975 81.9152 321.059 78.4056C318.144 74.9004 315.767 72.0245 315.771 72.0157C315.78 72.0114 317.065 71.9852 318.625 71.9589C325.12 71.8453 326.313 71.8278 327.095 71.8147C327.545 71.8103 327.913 71.7972 327.908 71.7841C327.908 71.771 325.653 70.3025 322.899 68.5236C320.146 66.7448 317.851 65.2588 317.803 65.2194C317.72 65.1582 317.869 64.9615 321.514 60.3768C323.603 57.75 325.321 55.5822 325.325 55.5603C325.338 55.5341 325.203 55.5254 324.954 55.5428C324.744 55.556 323.97 55.5865 323.236 55.6084C322.502 55.6346 321.335 55.674 320.635 55.7002C319.941 55.722 318.07 55.7876 316.483 55.8444C314.897 55.9012 313.594 55.9449 313.586 55.9362C313.581 55.9318 315.163 52.6451 317.1 48.6329C319.04 44.6206 320.71 41.1547 320.819 40.9275L321.007 40.521L320.736 40.7526C311.448 48.8033 307.257 52.4047 307.235 52.361C307.218 52.3304 306.855 51.4126 306.431 50.3199C304.906 46.3995 302.956 41.4039 302.532 40.3156L302.283 39.6862L302.1 40.3374C301.999 40.6958 301.566 42.2255 301.142 43.7421C300.719 45.2544 300.172 47.1949 299.936 48.0472C299.696 48.8995 299.337 50.167 299.145 50.8663C298.948 51.5612 298.778 52.1469 298.765 52.1643C298.747 52.1818 294.866 49.2273 290.133 45.5997C285.404 41.9677 281.527 39 281.518 39C281.505 39 281.536 39.0831 281.58 39.1836Z" fill="#181818"/>
</svg>