<svg width="51" height="59" viewBox="0 0 51 59" fill="none" xmlns="http://www.w3.org/2000/svg">
<path d="M25.2481 1.33665C25.1141 1.80695 24.5666 3.71437 24.0337 5.57665C22.1452 12.1754 22.0957 12.3487 22.1161 12.3414C22.1278 12.3371 22.8937 11.8274 23.8182 11.2086L25.5 10.0846L27.1817 11.2086C28.1063 11.8274 28.8722 12.3371 28.8838 12.3414C28.9042 12.3487 28.8489 12.1536 26.9662 5.57665C26.4333 3.71437 25.8858 1.80695 25.7519 1.33665C25.6179 0.866347 25.5043 0.480495 25.5 0.480495C25.4956 0.480495 25.382 0.866347 25.2481 1.33665Z" fill="#3B4262"/>
<path d="M16.4842 4.78019C14.6423 6.83467 13.2372 9.06096 12.3417 11.3426C11.7287 12.9078 11.3778 14.4279 11.2817 15.951C11.2599 16.3077 11.2584 16.4285 11.2773 16.414C11.8117 15.983 14.2098 14.211 14.2593 14.211C14.2681 14.211 14.4442 14.3144 14.6495 14.441C15.4227 14.9186 16.1871 15.37 16.9384 15.7952C17.4655 16.0922 18.0654 16.4227 18.0712 16.4184C18.0727 16.4154 18.0407 16.3557 17.9999 16.2844C17.7567 15.8636 17.3942 15.1268 17.1932 14.6405C16.5963 13.202 16.225 11.7095 16.0939 10.2214C16.0852 10.121 16.075 10.0161 16.0721 9.98846C16.0342 9.63756 16.0342 8.15385 16.0721 7.84808C16.0735 7.82769 16.0808 7.74907 16.0867 7.67335C16.1012 7.47096 16.1609 6.97445 16.2046 6.6978C16.3007 6.07607 16.4507 5.41212 16.6356 4.80058C16.6749 4.66517 16.7055 4.55305 16.7026 4.55014C16.6996 4.54577 16.6006 4.64915 16.4842 4.78019Z" fill="#3B4262"/>
<path d="M34.2945 4.55159C34.2945 4.56179 34.3207 4.65352 34.3513 4.75544C34.6236 5.64072 34.8303 6.70072 34.9061 7.59327C34.9148 7.69665 34.925 7.80876 34.9279 7.8408C34.9658 8.19753 34.9658 9.63319 34.9279 9.98846C34.925 10.0161 34.9148 10.121 34.9061 10.2214C34.775 11.7095 34.4037 13.202 33.8068 14.6405C33.6058 15.1268 33.2433 15.8636 33.0001 16.2844C32.9593 16.3557 32.9273 16.4154 32.9288 16.4184C32.9346 16.4227 33.5359 16.0922 34.0616 15.7952C34.81 15.3715 35.4594 14.9885 36.2194 14.5211C36.4975 14.3508 36.7334 14.211 36.7421 14.211C36.7902 14.211 39.2145 16.0034 39.7226 16.414C39.7416 16.4285 39.7401 16.3077 39.7183 15.951C39.6018 14.1091 39.1096 12.2526 38.2302 10.3394C37.3639 8.45379 36.068 6.50706 34.5653 4.83552C34.4678 4.72778 34.3688 4.61712 34.3426 4.588C34.3164 4.55887 34.296 4.54286 34.2945 4.55159Z" fill="#3B4262"/>
<path d="M6.83496 13.6067C5.27117 15.3467 4.03353 17.1726 3.15262 19.0378C2.44353 20.5419 1.97177 22.0139 1.73007 23.4714C1.68056 23.7743 1.61504 24.2941 1.59903 24.5198C1.5932 24.5882 1.58738 24.6697 1.58301 24.7018C1.5801 24.7338 1.57282 24.8838 1.56699 25.0367C1.55971 25.274 1.56117 25.3104 1.57864 25.2973C2.05768 24.9173 3.34773 23.9577 4.18933 23.352L4.55188 23.0899L4.65526 23.154C5.40949 23.6214 5.75749 23.8311 6.46949 24.2475C7.1087 24.6231 8.34633 25.3119 8.35798 25.3002C8.36089 25.2973 8.34342 25.2594 8.31721 25.2172C8.21238 25.0396 8.00125 24.6406 7.8673 24.3669C6.99804 22.5876 6.50298 20.7588 6.36175 18.7902C6.31224 18.1015 6.32389 17.1959 6.39087 16.4678C6.47677 15.5272 6.66606 14.5546 6.93397 13.6722C6.97328 13.5412 7.00532 13.4305 7.0024 13.4291C7.00095 13.4262 6.92523 13.5063 6.83496 13.6067Z" fill="#3B4262"/>
<path d="M43.9975 13.4422C44.5013 15.057 44.711 16.5887 44.663 18.317C44.6178 19.958 44.2145 21.8276 43.5622 23.4132C43.3176 24.0087 42.9419 24.779 42.6827 25.2172C42.6565 25.2595 42.6391 25.2973 42.642 25.3002C42.6536 25.3133 43.8738 24.6319 44.5887 24.214C45.0299 23.9563 45.6516 23.5836 46.0127 23.3593C46.1627 23.2661 46.3214 23.1686 46.3665 23.1409L46.4495 23.0914L46.8106 23.352C47.6522 23.9578 48.9423 24.9187 49.4213 25.2973C49.4388 25.3104 49.4402 25.274 49.4329 25.0367C49.4271 24.8838 49.4198 24.7338 49.4169 24.7018C49.4126 24.6698 49.4067 24.5882 49.4009 24.5198C49.3849 24.2941 49.3194 23.7743 49.2699 23.4714C48.8185 20.7414 47.5343 17.9093 45.5672 15.303C45.1624 14.7672 44.746 14.259 44.315 13.7756C44.0354 13.4611 43.9874 13.4131 43.9975 13.4422Z" fill="#3B4262"/>
<path d="M25.2379 13.9009C23.9056 14.0072 22.6971 14.7847 21.8176 16.0995C21.1333 17.1246 20.7227 18.3986 20.6208 19.8139C20.5989 20.1211 20.612 20.9103 20.6441 21.2073C20.7984 22.6517 21.2774 23.933 22.0448 24.945C22.1991 25.1488 22.304 25.2697 22.5151 25.4866C23.6523 26.6529 25.1287 27.0897 26.5498 26.682C27.4467 26.4243 28.3058 25.804 28.9537 24.9479C29.7225 23.9316 30.2015 22.6532 30.3559 21.2073C30.3879 20.9103 30.401 20.1211 30.3792 19.8139C30.3005 18.7218 30.0501 17.7521 29.6191 16.8683C29.0585 15.718 28.2402 14.8327 27.2836 14.3406C26.8555 14.1193 26.4755 13.997 26.0023 13.9271C25.8523 13.9052 25.3864 13.8878 25.2379 13.9009Z" fill="#3B4262"/>
<path d="M14.4617 17.9588C14.4588 17.9617 14.3933 17.969 14.3176 17.9748C13.6842 18.0214 12.9547 18.2981 12.3665 18.7145C11.0764 19.6304 10.1577 21.2582 9.87083 23.1365C9.85045 23.269 9.82715 23.4554 9.81841 23.5515C9.80968 23.6476 9.79948 23.7524 9.79512 23.7845C9.78056 23.8951 9.77764 24.8182 9.78929 24.993C9.90869 26.6048 10.4358 28.0361 11.3152 29.1383C11.5948 29.4892 12.0564 29.9246 12.3956 30.1561C13.0159 30.5827 13.6696 30.8215 14.3831 30.8841C14.5651 30.8987 14.9189 30.8958 15.0529 30.8754C15.3324 30.8361 15.4446 30.8142 15.6062 30.7735C16.1828 30.6249 16.6982 30.3629 17.2151 29.9523C17.4146 29.795 17.8543 29.3495 18.0363 29.1209C18.8488 28.1016 19.3526 26.8043 19.5244 25.2915C19.5608 24.9668 19.5695 24.1092 19.539 23.7481C19.389 21.9702 18.7294 20.405 17.6738 19.3231C17.3782 19.0203 17.1394 18.8223 16.8293 18.6184C16.3196 18.2864 15.7605 18.0739 15.1665 17.988C15.0267 17.9676 14.4777 17.9443 14.4617 17.9588Z" fill="#3B4262"/>
<path d="M36.0009 17.9676C35.4739 18.0185 34.9177 18.1918 34.4517 18.4495C34.0426 18.6752 33.696 18.9446 33.3262 19.3231C32.2677 20.4064 31.6052 21.9833 31.461 23.7553C31.4319 24.1164 31.4406 24.9799 31.4756 25.2915C31.6503 26.8145 32.1497 28.1002 32.9636 29.1209C33.1457 29.3494 33.5839 29.7935 33.7849 29.9537C34.408 30.4473 35.0924 30.756 35.7869 30.8535C35.851 30.8623 35.9238 30.8725 35.9471 30.8754C36.0839 30.8958 36.4348 30.8987 36.6169 30.8841C37.4512 30.8113 38.1879 30.5041 38.9028 29.9319C39.1081 29.7659 39.5027 29.3669 39.6847 29.1383C40.5642 28.0361 41.0913 26.6034 41.2107 24.993C41.2296 24.7236 41.2179 23.8966 41.1903 23.617C40.9791 21.5145 40.04 19.7134 38.6335 18.7145C38.0656 18.3126 37.3798 18.0462 36.7333 17.9763C36.5863 17.9603 36.132 17.9559 36.0009 17.9676Z" fill="#3B4262"/>
<path d="M4.52859 26.8713C3.3754 27.0111 2.31249 27.6707 1.49565 28.7511C0.753066 29.7324 0.262379 31.0341 0.113862 32.413C0.035236 33.141 0.0599888 33.9914 0.18084 34.7048C0.43128 36.1915 1.05447 37.4932 1.96304 38.4236C2.72601 39.2055 3.5909 39.6525 4.56208 39.7646C4.85329 39.7981 5.30029 39.7835 5.61771 39.7282C6.25837 39.6161 6.93688 39.3001 7.49601 38.8531C7.6882 38.7002 8.0129 38.3843 8.18617 38.1848C8.96224 37.2879 9.51408 36.0662 9.73686 34.7558C9.77763 34.5185 9.77908 34.5083 9.80966 34.2243C9.84606 33.8865 9.84752 33.8603 9.8548 33.4526C9.87809 32.1204 9.60581 30.8711 9.05106 29.7616C8.28664 28.2283 7.06938 27.1946 5.70798 26.9223C5.35125 26.8509 4.87221 26.8305 4.52859 26.8713Z" fill="#3B4262"/>
<path d="M45.605 26.8713C43.3089 27.1509 41.4859 29.4631 41.1816 32.4771C41.1495 32.8032 41.1393 33.0697 41.1452 33.4454C41.1525 33.8545 41.1525 33.8749 41.1976 34.2826C41.3592 35.7707 41.9387 37.1699 42.8123 38.1833C42.9842 38.3828 43.3103 38.6973 43.504 38.8531C44.0631 39.3001 44.7431 39.6161 45.3823 39.7282C45.6997 39.7835 46.1467 39.7981 46.4379 39.7646C47.4091 39.6525 48.274 39.2055 49.0369 38.4236C49.6747 37.7698 50.1785 36.9238 50.5032 35.9658C50.7187 35.3251 50.8468 34.7019 50.908 33.9768C50.9414 33.591 50.9342 32.8396 50.8949 32.4989C50.8861 32.4305 50.8759 32.3358 50.8716 32.2878C50.8453 32.033 50.7624 31.5918 50.675 31.2467C50.1363 29.1107 48.7457 27.4668 47.0786 26.9951C46.6053 26.8611 46.0651 26.816 45.605 26.8713Z" fill="#3B4262"/>
<path d="M24.7719 30.0542C24.0687 30.0935 23.4105 30.2187 22.8281 30.424C22.5165 30.5333 22.4423 30.558 22.0855 30.6716C16.5817 32.4217 10.6323 37.6446 7.15089 43.7832C5.55944 46.5876 4.57224 49.4968 4.37422 51.9589C4.36548 52.0623 4.35529 52.1934 4.35092 52.2501C4.33636 52.4263 4.33199 53.3334 4.34364 53.546C4.44556 55.1972 4.91295 56.5644 5.72688 57.5865C6.05012 57.9913 6.35881 58.2316 6.78543 58.4107C7.24408 58.6029 7.71293 58.6902 8.3696 58.7033C9.32914 58.7237 10.4255 58.549 11.768 58.1617C13.0362 57.7977 14.6 57.2094 16.0211 56.5629C16.0648 56.5426 16.2089 56.477 16.3414 56.4173C16.4739 56.3576 16.6661 56.2688 16.7695 56.2193C16.8714 56.1698 16.9588 56.1305 16.9617 56.1305C16.9632 56.1305 17.2267 56.0038 17.5456 55.848C18.6362 55.318 19.635 54.7939 20.9935 54.0411C21.1944 53.929 21.4856 53.779 21.6414 53.7047C23.1921 52.9738 24.8651 52.6957 26.541 52.8923C27.751 53.0335 28.8474 53.3975 30.0064 54.0411C31.1902 54.6978 32.4875 55.3821 33.1369 55.6937C33.249 55.7476 33.4966 55.8684 33.6873 55.9616C33.878 56.0548 34.0367 56.1305 34.0397 56.1305C34.0411 56.1305 34.127 56.1698 34.2289 56.2179C35.9602 57.0391 37.7628 57.7394 39.2319 58.1617C40.5744 58.549 41.6708 58.7237 42.6303 58.7033C43.287 58.6902 43.7558 58.6029 44.2145 58.4107C44.6411 58.2316 44.9498 57.9913 45.273 57.5865C45.9472 56.7406 46.3913 55.6384 46.5747 54.3541C46.6432 53.8751 46.6665 53.5125 46.6665 52.9563C46.6665 52.4977 46.6534 52.2239 46.6126 51.8206C46.5718 51.4173 46.5718 51.4158 46.5238 51.0853C46.1918 48.8212 45.2527 46.2585 43.849 43.7832C42.2474 40.9585 40.0706 38.2474 37.588 35.9818C34.8114 33.4483 31.7537 31.5743 28.9362 30.6789C28.5853 30.5667 28.4674 30.5274 28.1718 30.424C27.5836 30.2173 26.94 30.095 26.2134 30.0528C25.9717 30.0397 25.0209 30.0397 24.7719 30.0542Z" fill="#3B4262"/>
</svg>