<svg width="72" height="95" viewBox="0 0 72 95" fill="none" xmlns="http://www.w3.org/2000/svg">
<mask id="mask0" mask-type="alpha" maskUnits="userSpaceOnUse" x="1" y="11" width="64" height="75">
<path d="M40.1552 56.1518C41.555 55.7525 42.7722 54.8127 43.5098 53.4861L44.0186 52.5713L42.1891 51.5539L41.6804 52.4687C40.9934 53.704 39.6432 54.4038 38.2412 54.2516L37.2007 54.1389L36.9749 56.2199L38.0154 56.3327C38.7492 56.4123 39.4741 56.3461 40.1552 56.1518Z" fill="#666666"/>
<path d="M60.2732 45.0422C60.8383 44.3703 60.6726 43.3448 59.9162 42.8993C57.5987 41.5348 54.8054 41.1607 52.169 41.9127L52.9519 44.6575C54.8333 44.1209 56.8268 44.3892 58.4789 45.3657C59.0705 45.7155 59.8312 45.5679 60.2732 45.0422Z" fill="#808080"/>
<path d="M8.04813 17.4471L9.75066 14.6348C10.2546 13.8025 10.2887 12.7675 9.84064 11.9035C9.4852 11.2182 8.51682 11.1852 8.1155 11.8448L5.60965 15.9635L8.04813 17.4471Z" fill="#666666"/>
<path d="M1.37433 18.533L34.076 36.7196L37.5212 30.5247L4.82001 12.3399L1.37433 18.533Z" fill="#808080"/>
<path d="M32.6331 41.8813L33.3274 40.6327C33.5115 40.3018 33.5564 39.9116 33.4526 39.5477C33.3487 39.1837 33.1045 38.8758 32.7739 38.692L11.0683 26.6206L9.68091 29.1153L32.6331 41.8813Z" fill="#666666"/>
<path d="M43.2632 59.4043C43.2632 59.4043 43.6235 59.4461 44.1569 59.5471L44.2121 59.4699C50.3027 59.3139 57.5737 61.0972 60.9109 53.4047L61.0514 53.3983C61.0651 53.3073 61.0807 53.2158 61.1025 53.1265C60.0291 52.8391 59.0058 52.193 59.0058 52.193C56.6302 50.8718 55.0128 48.7112 54.3211 46.2865C53.63 43.8636 53.865 41.1767 55.1854 38.7994L36.9273 28.6454C36.274 28.2821 35.4497 28.5172 35.0864 29.1705L31.6412 35.3654L29.8021 38.6722L27.2909 43.1878C26.9275 43.841 27.1627 44.6654 27.816 45.0287L30.9205 46.7552C32.334 47.5413 32.9191 49.2385 32.354 50.7057C33.4142 49.2535 35.4163 48.7597 37.0564 49.6396L41.1786 51.8536C42.5107 52.5698 43.425 53.7696 43.8107 55.1219C44.1641 56.3608 44.0769 57.7274 43.4675 58.9696C43.3961 59.1148 43.3184 59.2515 43.2336 59.3847L43.2632 59.4043Z" fill="#B3B3B3"/>
<path d="M43.5281 76.1646C42.8219 77.0744 43.0889 78.3992 44.0952 78.9571L54.5612 84.7778C55.8077 85.471 57.3793 85.0011 58.0463 83.7383C63.6402 73.1369 65.2287 66.7178 63.4298 60.5917C62.8453 58.6055 60.7145 55.7205 61.0516 53.3982L60.911 53.4047C54.7067 51.0089 47.5383 53.4889 44.2122 59.4699L44.1571 59.547C45.3299 59.7666 47.3342 60.2655 48.164 61.2043C51.419 65.0485 46.1803 72.7465 43.5281 76.1646Z" fill="#FCBB29"/>
<path d="M41.0836 61.9952C42.231 61.6679 43.2648 60.9324 43.9566 59.8442C44.0602 59.6815 44.1517 59.5192 44.236 59.3485C44.9174 57.9589 45.0588 56.3751 44.6345 54.8873C44.1679 53.2516 43.0847 51.9063 41.5842 51.0998L37.4617 48.8857C35.4806 47.8228 32.9892 48.3872 31.6651 50.1982C31.5164 50.3982 31.3815 50.6186 31.2643 50.8535C29.7027 53.9781 30.8408 57.8066 33.8553 59.5694L37.1311 61.488C38.3778 62.2173 39.8016 62.3608 41.0836 61.9952ZM34.5423 50.1709C35.2284 49.9753 35.9861 50.0375 36.6515 50.3943L40.7733 52.6081C41.8623 53.1937 42.6485 54.1698 42.9871 55.3568C43.2951 56.4364 43.1927 57.5856 42.6986 58.5925C42.6433 58.7051 42.5817 58.8141 42.5113 58.9245C41.5432 60.4481 39.5598 60.9242 37.9956 60.0097L34.7198 58.0908C32.4812 56.7817 31.6363 53.9388 32.7959 51.6185C32.8689 51.4724 32.9511 51.3375 33.0403 51.2177C33.0419 51.2155 33.0436 51.2131 33.0454 51.2109C33.4244 50.6923 33.9573 50.3378 34.5423 50.1709Z" fill="#B3B3B3"/>
</mask>
<g mask="url(#mask0)">
<rect y="11" width="69" height="77" fill="#3B4262"/>
</g>
</svg>