<svg width="82" height="72" viewBox="0 0 82 72" fill="none" xmlns="http://www.w3.org/2000/svg">
<path d="M23.2705 30.0529L25.8365 28.3267C38.5248 46.0311 58.7175 67.1034 62.4544 69.353C66.2814 71.6567 76.495 70.2331 76.495 70.2331C55.7336 53.3157 38.4131 29.8449 33.6222 23.0932L35.2541 21.9948C36.1264 21.4098 36.3579 20.2284 35.7704 19.3568C35.1845 18.4853 34.0046 18.2556 33.1339 18.8424L31.4431 19.978L19.192 2.46487C17.3071 -0.219593 14.9153 0.164764 12.7945 1.29977C10.3869 2.58757 9.50103 5.3687 11.6141 8.37772L23.6312 25.2312L21.1495 26.8996C20.2773 27.4845 20.0474 28.6661 20.6333 29.5367C21.2183 30.4081 22.3998 30.6396 23.2705 30.0529ZM16.9093 7.3657L21.4583 7.40985L19.9559 11.7035L15.4079 11.6586L16.9093 7.3657ZM20.5152 12.5L25.0649 12.5451L23.5626 16.8388L19.0136 16.7946L20.5152 12.5ZM24.1211 17.6344L28.6701 17.6785L27.1693 21.9732L22.6204 21.929L24.1211 17.6344ZM29.7828 25.9147C29.7828 25.9147 31.0605 29.5617 33.9782 33.3342C35.1653 34.8673 37.519 35.7824 38.9536 37.6121C40.4024 39.4633 40.6145 41.3806 42.1758 43.3386C43.6966 45.2467 46.3579 46.2195 49.0107 48.8364C51.5612 51.3558 51.9157 54.6464 53.7476 56.6994C56.0727 59.3051 58.558 59.4745 60.2465 60.9534C62.7837 63.176 61.7221 64.3031 63.7023 66.2134C65.1466 67.6047 70.4275 69.3084 70.9666 69.4636C71.5051 69.618 65.5354 69.4721 63.7794 68.7892C62.0226 68.1053 53.4366 60.46 44.6188 50.1811C36.1949 40.3617 26.7584 28.0392 26.7584 28.0392L29.7828 25.9147Z" fill="#3B4262"/>
<path d="M58.7295 30.0529L56.1635 28.3267C43.4752 46.0311 23.2825 67.1034 19.5456 69.353C15.7186 71.6567 5.505 70.2331 5.505 70.2331C26.2664 53.3157 43.5869 29.8449 48.3778 23.0932L46.7459 21.9948C45.8736 21.4098 45.6421 20.2284 46.2296 19.3568C46.8155 18.4853 47.9954 18.2556 48.8661 18.8424L50.5569 19.978L62.808 2.46487C64.6929 -0.219593 67.0847 0.164764 69.2055 1.29977C71.6131 2.58757 72.499 5.3687 70.3859 8.37772L58.3688 25.2312L60.8505 26.8996C61.7227 27.4845 61.9526 28.6661 61.3667 29.5367C60.7817 30.4081 59.6002 30.6396 58.7295 30.0529ZM65.0907 7.3657L60.5417 7.40985L62.0441 11.7035L66.5921 11.6586L65.0907 7.3657ZM61.4848 12.5L56.9351 12.5451L58.4374 16.8388L62.9864 16.7946L61.4848 12.5ZM57.8789 17.6344L53.3299 17.6785L54.8307 21.9732L59.3796 21.929L57.8789 17.6344ZM52.2172 25.9147C52.2172 25.9147 50.9395 29.5617 48.0218 33.3342C46.8347 34.8673 44.481 35.7824 43.0464 37.6121C41.5976 39.4633 41.3855 41.3806 39.8242 43.3386C38.3034 45.2467 35.6421 46.2195 32.9893 48.8364C30.4388 51.3558 30.0843 54.6464 28.2524 56.6994C25.9273 59.3051 23.442 59.4745 21.7535 60.9534C19.2163 63.176 20.2779 64.3031 18.2977 66.2134C16.8534 67.6047 11.5725 69.3084 11.0334 69.4636C10.4949 69.618 16.4646 69.4721 18.2206 68.7892C19.9774 68.1053 28.5634 60.46 37.3812 50.1811C45.8051 40.3617 55.2416 28.0392 55.2416 28.0392L52.2172 25.9147Z" fill="#3B4262"/>
</svg>