<svg className="filled" width="30" height="30" viewBox="0 0 30 30" fill="none" xmlns="http://www.w3.org/2000/svg">
                    <g clip-path="url(#clip0)">
                        <path d="M3.08204 0.0473009C2.61095 0.155113 2.04142 0.398863 1.6172 0.675424C0.553133 1.36683 -0.00233637 2.41449 7.38622e-06 3.73167C0.00235114 4.38324 0.12657 5.02777 0.44532 6.01212C0.918756 7.47462 1.28673 8.76138 1.38517 9.30978L1.41329 9.46446L1.2586 9.81372C0.675006 11.1215 0.398445 12.2934 0.398445 13.4653C0.398445 14.1965 0.525008 14.9934 0.834384 16.2309C1.30548 18.1129 2.06017 19.8543 2.81017 20.7895C3.08204 21.127 4.12501 22.0411 4.89845 22.6176C5.81954 23.3043 6.593 23.7168 7.26332 23.8856C7.69454 23.9957 7.91018 24.0778 8.1797 24.2395C8.91566 24.6871 9.73364 25.6832 10.336 26.8691C10.9008 27.9778 12.0586 28.8731 13.2492 29.1191C13.7086 29.2153 14.3063 29.2246 14.7774 29.1473C14.9649 29.1145 15.0117 29.1145 15.1992 29.1473C15.6703 29.2246 16.268 29.2153 16.7297 29.1191C17.9133 28.8754 19.0758 27.9801 19.6383 26.8762C20.3203 25.5449 21.1922 24.5371 22.0195 24.1246C22.2375 24.0145 22.343 23.9793 22.7133 23.8856C23.1961 23.7661 23.6508 23.5574 24.2578 23.1778C25.2516 22.5614 26.8102 21.2629 27.2321 20.7028C28.1485 19.484 28.9524 17.3864 29.4094 15.0239C29.5571 14.2692 29.5665 14.1661 29.5641 13.4418C29.5641 12.884 29.5548 12.734 29.5102 12.4457C29.3719 11.5364 29.1352 10.7489 28.7344 9.85122L28.575 9.49494L28.6196 9.27696C28.7602 8.59494 29.079 7.47696 29.5453 6.03558C29.8735 5.02777 29.9977 4.39027 30 3.73167C30.0024 2.03012 29.0649 0.773866 27.3399 0.17152C26.8547 0.00276962 26.5852 -0.0276991 25.9805 0.0238634C24.6774 0.136363 23.1422 0.544176 21.4618 1.22387L20.9953 1.41137L20.6649 1.28246C19.3758 0.780892 18.0211 0.598082 16.4625 0.719956C15.7219 0.776206 14.2922 0.776206 13.5 0.717616C11.9485 0.60277 10.568 0.79027 9.3188 1.28012L8.993 1.40667L8.53124 1.21917C6.88124 0.551207 5.31329 0.136363 4.01954 0.0262071C3.61408 -0.00894912 3.30001 -0.00191787 3.08204 0.0473009Z" fill="#8A90AC"/>
                    </g>
                    <defs>
                        <clipPath id="clip0"> <rect width="30" height="29.4" fill="white"/> </clipPath>
                    </defs>
                </svg>