<svg width="474" height="81" viewBox="0 0 474 81" fill="none" xmlns="http://www.w3.org/2000/svg">
<path d="M119.858 0.176357C96.4999 1.04568 72.0429 4.63887 55.3111 9.6423C41.5449 13.7764 29.4264 19.5139 19.358 26.6424C16.1361 28.9026 3.16542 35.4872 0.456114 38.1145C-1.88707 40.4134 5.83103 32.9023 0.456114 38.1145C4.81297 37.3997 -1.62077 82.0951 11.4132 78.9269C38.9596 78.9269 400.792 82.2656 416.169 80.469C499.49 80.4691 440.84 55.9541 452.519 55.9348C474.267 55.9348 160.367 47.4482 187.643 53.5721C208.402 58.2472 220.897 49.1289 267.395 65.1631C286.396 71.712 297.355 62.1688 308.961 65.1631C323.716 68.9495 335.249 71.0165 349.052 72.2916C363.953 73.6825 436.175 81.4543 449.282 80.4691C471.689 78.7884 431.865 80.1148 458.143 80.469C472.239 73.2826 467.346 43.6425 472.069 31.2595C473.057 28.6708 474.192 24.6912 473.972 24.6912C473.863 24.6912 472.069 25.5799 469.908 26.6617C459.584 31.9356 438.642 41.1311 429.598 44.3766C413.306 50.23 381.453 53.6494 360.951 51.7562C347.697 50.5198 330.672 47.6607 320.494 44.9755C318.371 44.4152 303.799 39.8947 288.092 34.9299C257.851 25.3674 242.29 20.5958 229.146 16.8673C194.84 7.1116 163.647 1.20023 141.094 0.157041C136.261 -0.0554598 126.009 -0.0554628 119.858 0.176357Z" fill="white"/>
</svg>