<svg width="71" height="95" viewBox="0 0 71 95" fill="none" xmlns="http://www.w3.org/2000/svg">
<mask id="mask0" mask-type="alpha" maskUnits="userSpaceOnUse" x="0" y="5" width="70" height="83">
<path d="M40.0786 56.0445C41.4756 55.6461 42.6905 54.708 43.4267 53.3839L43.9345 52.4709L42.1086 51.4554L41.6008 52.3685C40.9151 53.6015 39.5675 54.2998 38.1682 54.148L37.1297 54.0355L36.9043 56.1126L37.9428 56.2251C38.6753 56.3046 39.3987 56.2385 40.0786 56.0445Z" fill="#666666"/>
<path d="M60.1581 44.9561C60.7221 44.2855 60.5568 43.262 59.8018 42.8174C57.4887 41.4555 54.7007 41.0821 52.0694 41.8326L52.8508 44.5722C54.7285 44.0366 56.7182 44.3044 58.3672 45.279C58.9577 45.6282 59.7169 45.4808 60.1581 44.9561Z" fill="#808080"/>
<path d="M8.03278 17.4138L9.73205 14.6069C10.235 13.7761 10.269 12.7431 9.82187 11.8808C9.46711 11.1967 8.50057 11.1639 8.10002 11.8221L5.59896 15.933L8.03278 17.4138Z" fill="#666666"/>
<path d="M1.37174 18.4976L34.0109 36.6495L37.4496 30.4664L4.81084 12.3163L1.37174 18.4976Z" fill="#808080"/>
<path d="M32.5708 41.8013L33.2638 40.5551C33.4475 40.2248 33.4923 39.8354 33.3887 39.4722C33.2851 39.1089 33.0413 38.8015 32.7113 38.6181L11.0472 26.5698L9.66245 29.0597L32.5708 41.8013Z" fill="#666666"/>
<path d="M43.1805 59.2908C43.1805 59.2908 43.5402 59.3326 44.0725 59.4334L44.1276 59.3563C50.2066 59.2006 57.4637 60.9805 60.7945 53.3027L60.9348 53.2963C60.9484 53.2055 60.9639 53.1142 60.9857 53.025C59.9144 52.7382 58.893 52.0933 58.893 52.0933C56.522 50.7747 54.9076 48.6182 54.2173 46.1981C53.5276 43.7798 53.762 41.098 55.08 38.7253L36.8567 28.5907C36.2047 28.2281 35.3819 28.4627 35.0193 29.1148L31.5807 35.2978L29.7452 38.5983L27.2387 43.1053C26.8761 43.7573 27.1107 44.5801 27.7628 44.9427L30.8614 46.6659C32.2722 47.4505 32.8562 49.1444 32.2922 50.6088C33.3503 49.1594 35.3486 48.6666 36.9856 49.5448L41.0999 51.7545C42.4295 52.4694 43.342 53.6669 43.727 55.0167C44.0797 56.2532 43.9927 57.6171 43.3844 58.857C43.3131 59.0019 43.2357 59.1383 43.1509 59.2713L43.1805 59.2908Z" fill="#B3B3B3"/>
<path d="M43.445 76.0191C42.7402 76.9272 43.0066 78.2495 44.011 78.8064L54.457 84.6159C55.7012 85.3078 57.2698 84.8388 57.9354 83.5784C63.5187 72.9973 65.1042 66.5904 63.3087 60.476C62.7253 58.4936 60.5986 55.6141 60.935 53.2963L60.7947 53.3027C54.6023 50.9115 47.4475 53.3868 44.1278 59.3563L44.0727 59.4333C45.2434 59.6525 47.2439 60.1505 48.072 61.0874C51.3208 64.9243 46.0922 72.6076 43.445 76.0191Z" fill="#FCBB29"/>
<path d="M41.0051 61.8768C42.1504 61.5501 43.1822 60.8161 43.8727 59.7299C43.9761 59.5675 44.0674 59.4055 44.1515 59.2352C44.8316 57.8482 44.9728 56.2674 44.5492 54.7825C44.0836 53.1499 43.0024 51.8072 41.5048 51.0022L37.3902 48.7923C35.4128 47.7315 32.9262 48.2947 31.6046 50.1023C31.4563 50.3019 31.3216 50.522 31.2046 50.7564C29.646 53.875 30.7819 57.6962 33.7907 59.4556L37.0602 61.3705C38.3045 62.0985 39.7256 62.2417 41.0051 61.8768ZM34.4764 50.0751C35.1611 49.8798 35.9174 49.942 36.5816 50.2981L40.6955 52.5076C41.7823 53.092 42.5671 54.0663 42.9051 55.2511C43.2124 56.3286 43.1102 57.4756 42.6171 58.4806C42.5619 58.5929 42.5004 58.7018 42.4301 58.812C41.4639 60.3326 39.4843 60.8079 37.9231 59.8951L34.6535 57.9799C32.4192 56.6732 31.5759 53.8358 32.7332 51.5199C32.8061 51.3741 32.8882 51.2394 32.9772 51.1198C32.9788 51.1177 32.9806 51.1153 32.9823 51.1131C33.3606 50.5954 33.8925 50.2417 34.4764 50.0751Z" fill="#B3B3B3"/>
</mask>
<g mask="url(#mask0)">
<rect y="10.979" width="68.8682" height="76.8529" fill="#3B4262"/>
</g>
</svg>