<svg width="63" height="71" viewBox="0 0 63 71" fill="none" xmlns="http://www.w3.org/2000/svg">
<path d="M31.2005 1.58882C31.0413 2.14786 30.3905 4.41517 29.7571 6.62882C27.5123 14.4727 27.4534 14.6786 27.4777 14.67C27.4915 14.6648 28.4019 14.059 29.5009 13.3234L31.4999 11.9873L33.499 13.3234C34.598 14.059 35.5084 14.6648 35.5222 14.67C35.5465 14.6786 35.4807 14.4467 33.2428 6.62882C32.6094 4.41517 31.9586 2.14786 31.7994 1.58882C31.6401 1.02979 31.5051 0.571131 31.4999 0.571131C31.4948 0.571131 31.3598 1.02979 31.2005 1.58882Z" fill="#3B4262"/>
<path d="M20.783 5.68211C18.5936 8.12423 16.9234 10.7706 15.859 13.4827C15.1303 15.3433 14.7132 17.1502 14.599 18.9606C14.573 19.3846 14.5713 19.5283 14.5938 19.511C15.229 18.9987 18.0796 16.8923 18.1384 16.8923C18.1488 16.8923 18.3582 17.0152 18.6023 17.1658C19.5213 17.7335 20.4299 18.27 21.323 18.7754C21.9496 19.1285 22.6626 19.5213 22.6696 19.5162C22.6713 19.5127 22.6332 19.4417 22.5847 19.3569C22.2957 18.8567 21.8647 17.981 21.6259 17.4029C20.9163 15.6929 20.4749 13.9188 20.3192 12.15C20.3088 12.0306 20.2967 11.906 20.2932 11.8731C20.2482 11.456 20.2482 9.69231 20.2932 9.32884C20.2949 9.30461 20.3036 9.21115 20.3105 9.12115C20.3278 8.88058 20.3988 8.29038 20.4507 7.96154C20.5649 7.2225 20.7432 6.43327 20.963 5.70634C21.0097 5.54538 21.0461 5.41211 21.0426 5.40865C21.0392 5.40346 20.9215 5.52634 20.783 5.68211Z" fill="#3B4262"/>
<path d="M41.9538 5.41035C41.9538 5.42247 41.985 5.5315 42.0213 5.65266C42.345 6.70497 42.5908 7.96497 42.6808 9.02593C42.6911 9.14881 42.7033 9.28208 42.7067 9.32016C42.7517 9.7442 42.7517 11.4507 42.7067 11.873C42.7033 11.9059 42.6911 12.0305 42.6808 12.15C42.525 13.9188 42.0836 15.6929 41.374 17.4029C41.1352 17.9809 40.7042 18.8567 40.4152 19.3569C40.3667 19.4417 40.3286 19.5127 40.3304 19.5161C40.3373 19.5213 41.0521 19.1284 41.6769 18.7754C42.5665 18.2717 43.3384 17.8165 44.2419 17.2609C44.5725 17.0584 44.8529 16.8923 44.8632 16.8923C44.9204 16.8923 47.8021 19.0229 48.4061 19.5109C48.4286 19.5282 48.4269 19.3846 48.4009 18.9605C48.2625 16.7711 47.6775 14.5644 46.6321 12.2902C45.6023 10.0488 44.0619 7.73477 42.2758 5.74785C42.1598 5.61977 42.0421 5.48824 42.011 5.45362C41.9798 5.419 41.9556 5.39997 41.9538 5.41035Z" fill="#3B4262"/>
<path d="M9.31322 16.174C7.45437 18.2423 5.98322 20.4127 4.9361 22.6298C4.09321 24.4177 3.53245 26.1675 3.24514 27.9C3.18629 28.26 3.10841 28.8779 3.08937 29.1461C3.08245 29.2275 3.07552 29.3244 3.07033 29.3625C3.06687 29.4006 3.05821 29.5788 3.05129 29.7606C3.04264 30.0427 3.04437 30.0859 3.06514 30.0704C3.63456 29.6186 5.16802 28.4781 6.16841 27.7581L6.59937 27.4465L6.72225 27.5227C7.61879 28.0783 8.03245 28.3275 8.87879 28.8225C9.6386 29.269 11.1098 30.0877 11.1236 30.0738C11.1271 30.0704 11.1063 30.0254 11.0751 29.9752C10.9505 29.764 10.6996 29.2898 10.5403 28.9644C9.50706 26.8494 8.9186 24.6756 8.75072 22.3356C8.69187 21.5169 8.70572 20.4404 8.78533 19.575C8.88745 18.4569 9.11245 17.3008 9.43091 16.2519C9.47764 16.0961 9.51572 15.9646 9.51225 15.9629C9.51052 15.9594 9.42052 16.0546 9.31322 16.174Z" fill="#3B4262"/>
<path d="M53.4876 15.9785C54.0865 17.8979 54.3357 19.7187 54.2786 21.7731C54.2249 23.7237 53.7455 25.946 52.9701 27.8308C52.6794 28.5387 52.2328 29.4542 51.9248 29.9752C51.8936 30.0254 51.8728 30.0704 51.8763 30.0738C51.8901 30.0894 53.3405 29.2794 54.1903 28.7827C54.7147 28.4763 55.4538 28.0333 55.883 27.7667C56.0613 27.656 56.2499 27.54 56.3036 27.5071L56.4022 27.4483L56.8315 27.7581C57.8318 28.4781 59.3653 29.6204 59.9347 30.0704C59.9555 30.086 59.9572 30.0427 59.9486 29.7606C59.9416 29.5788 59.933 29.4006 59.9295 29.3625C59.9243 29.3244 59.9174 29.2275 59.9105 29.1462C59.8914 28.8779 59.8136 28.26 59.7547 27.9C59.2182 24.6548 57.6916 21.2885 55.3534 18.1904C54.8722 17.5535 54.3772 16.9494 53.8649 16.3748C53.5326 16.001 53.4755 15.9438 53.4876 15.9785Z" fill="#3B4262"/>
<path d="M31.1884 16.5236C29.6047 16.65 28.1682 17.5742 27.1228 19.1371C26.3094 20.3556 25.8213 21.87 25.7001 23.5523C25.6742 23.9175 25.6898 24.8556 25.7278 25.2086C25.9113 26.9256 26.4807 28.4486 27.3928 29.6515C27.5763 29.8938 27.7009 30.0375 27.9519 30.2954C29.3036 31.6817 31.0586 32.2009 32.7478 31.7163C33.814 31.41 34.8351 30.6727 35.6053 29.655C36.5191 28.4469 37.0886 26.9273 37.272 25.2086C37.3101 24.8556 37.3257 23.9175 37.2997 23.5523C37.2063 22.2542 36.9086 21.1015 36.3963 20.051C35.7299 18.6836 34.7572 17.6313 33.6201 17.0463C33.1113 16.7833 32.6595 16.6379 32.097 16.5548C31.9188 16.5288 31.3649 16.5081 31.1884 16.5236Z" fill="#3B4262"/>
<path d="M18.379 21.3473C18.3755 21.3507 18.2976 21.3594 18.2076 21.3663C17.4548 21.4217 16.5876 21.7505 15.8884 22.2455C14.3549 23.3342 13.2628 25.2692 12.9219 27.5019C12.8976 27.6594 12.8699 27.8809 12.8596 27.9951C12.8492 28.1094 12.8371 28.234 12.8319 28.2721C12.8146 28.4036 12.8111 29.5009 12.8249 29.7086C12.9669 31.6246 13.5934 33.3259 14.6388 34.6361C14.9711 35.0532 15.5198 35.5707 15.923 35.8459C16.6603 36.353 17.4374 36.6369 18.2855 36.7113C18.5019 36.7286 18.9224 36.7251 19.0817 36.7009C19.414 36.6542 19.5473 36.6282 19.7394 36.5798C20.4248 36.4032 21.0374 36.0917 21.6519 35.6036C21.889 35.4167 22.4117 34.8871 22.628 34.6153C23.5938 33.4038 24.1926 31.8617 24.3969 30.0634C24.4401 29.6774 24.4505 28.658 24.4142 28.2288C24.2359 26.1155 23.4519 24.255 22.1971 22.969C21.8457 22.609 21.5619 22.3736 21.1932 22.1313C20.5874 21.7367 19.9228 21.484 19.2167 21.3819C19.0505 21.3576 18.398 21.33 18.379 21.3473Z" fill="#3B4262"/>
<path d="M43.9822 21.3576C43.3557 21.4182 42.6946 21.6242 42.1407 21.9305C41.6544 22.1988 41.2424 22.519 40.8028 22.969C39.5446 24.2567 38.7571 26.1311 38.5857 28.2374C38.5511 28.6667 38.5615 29.693 38.603 30.0634C38.8107 31.8738 39.4044 33.4021 40.3719 34.6153C40.5882 34.8871 41.1092 35.4149 41.348 35.6053C42.0888 36.1921 42.9022 36.559 43.7278 36.6749C43.804 36.6853 43.8905 36.6974 43.9182 36.7009C44.0809 36.7251 44.498 36.7286 44.7144 36.7113C45.7061 36.6248 46.5819 36.2596 47.4317 35.5794C47.6757 35.3821 48.1447 34.9078 48.3611 34.6361C49.4065 33.3259 50.033 31.6228 50.1749 29.7086C50.1974 29.3884 50.1836 28.4053 50.1507 28.073C49.8997 25.5738 48.7834 23.4328 47.1115 22.2455C46.4365 21.7678 45.6213 21.4511 44.8528 21.368C44.678 21.349 44.138 21.3438 43.9822 21.3576Z" fill="#3B4262"/>
<path d="M6.57169 31.9413C5.20092 32.1075 3.93746 32.8915 2.9665 34.1758C2.08381 35.3423 1.50054 36.8896 1.324 38.5286C1.23054 39.394 1.25996 40.4048 1.40362 41.2529C1.70131 43.02 2.44208 44.5673 3.52208 45.6733C4.429 46.6027 5.45708 47.134 6.6115 47.2673C6.95765 47.3071 7.489 47.2898 7.86631 47.224C8.62785 47.0908 9.43438 46.7152 10.099 46.1838C10.3275 46.0021 10.7134 45.6265 10.9194 45.3894C11.8419 44.3233 12.4978 42.8711 12.7627 41.3134C12.8111 41.0313 12.8128 41.0192 12.8492 40.6817C12.8925 40.2802 12.8942 40.249 12.9028 39.7644C12.9305 38.1808 12.6069 36.6958 11.9475 35.3769C11.0388 33.5544 9.59188 32.3256 7.97362 32.0019C7.54958 31.9171 6.98015 31.8929 6.57169 31.9413Z" fill="#3B4262"/>
<path d="M55.3984 31.9413C52.669 32.2736 50.5021 35.0221 50.1403 38.6048C50.1023 38.9925 50.0901 39.3092 50.0971 39.7558C50.1057 40.2421 50.1057 40.2663 50.1594 40.7509C50.3515 42.5198 51.0403 44.1831 52.0788 45.3877C52.283 45.6248 52.6707 45.9986 52.9009 46.1838C53.5655 46.7152 54.3738 47.0908 55.1336 47.224C55.5109 47.2898 56.0423 47.3071 56.3884 47.2673C57.5428 47.134 58.5709 46.6027 59.4778 45.6733C60.2359 44.8961 60.8348 43.8906 61.2207 42.7517C61.4769 41.9902 61.6292 41.2494 61.7019 40.3875C61.7417 39.9288 61.733 39.0358 61.6863 38.6308C61.6759 38.5494 61.6638 38.4369 61.6586 38.3798C61.6275 38.0769 61.5288 37.5525 61.425 37.1423C60.7846 34.6033 59.1317 32.6492 57.15 32.0885C56.5875 31.9292 55.9453 31.8756 55.3984 31.9413Z" fill="#3B4262"/>
<path d="M30.6345 35.7248C29.7986 35.7715 29.0163 35.9204 28.324 36.1644C27.9536 36.2942 27.8653 36.3236 27.4413 36.4586C20.899 38.539 13.827 44.7473 9.68878 52.0442C7.79705 55.3777 6.62359 58.8358 6.3882 61.7625C6.37782 61.8854 6.3657 62.0411 6.36051 62.1086C6.3432 62.3181 6.33801 63.3963 6.35186 63.649C6.47301 65.6117 7.02859 67.2369 7.99609 68.4519C8.38032 68.9331 8.74724 69.2186 9.25436 69.4315C9.79955 69.66 10.3569 69.7638 11.1374 69.7794C12.278 69.8036 13.5813 69.596 15.177 69.1356C16.6845 68.7029 18.5434 68.0036 20.2326 67.2352C20.2845 67.211 20.4559 67.1331 20.6134 67.0621C20.7709 66.9911 20.9994 66.8856 21.1222 66.8267C21.2434 66.7679 21.3472 66.7211 21.3507 66.7211C21.3524 66.7211 21.6657 66.5706 22.0447 66.3854C23.3411 65.7554 24.5284 65.1323 26.1432 64.2375C26.382 64.1042 26.7282 63.926 26.9134 63.8377C28.7567 62.9688 30.7453 62.6383 32.7374 62.8719C34.1757 63.0398 35.479 63.4725 36.8567 64.2375C38.2638 65.0181 39.8059 65.8315 40.5778 66.2019C40.7111 66.266 41.0053 66.4096 41.232 66.5204C41.4588 66.6311 41.6474 66.7211 41.6509 66.7211C41.6526 66.7211 41.7547 66.7679 41.8759 66.825C43.9338 67.8011 46.0765 68.6336 47.8228 69.1356C49.4186 69.596 50.7219 69.8036 51.8624 69.7794C52.643 69.7638 53.2003 69.66 53.7455 69.4315C54.2526 69.2186 54.6195 68.9331 55.0038 68.4519C55.8051 67.4463 56.333 66.1361 56.5511 64.6096C56.6324 64.0402 56.6601 63.6092 56.6601 62.9481C56.6601 62.4029 56.6445 62.0775 56.5961 61.5981C56.5476 61.1186 56.5476 61.1169 56.4905 60.724C56.0959 58.0327 54.9795 54.9865 53.3111 52.0442C51.4072 48.6865 48.8197 45.4638 45.8688 42.7708C42.5682 39.7592 38.9336 37.5317 35.5845 36.4673C35.1674 36.334 35.0272 36.2873 34.6759 36.1644C33.9767 35.9186 33.2117 35.7733 32.348 35.7231C32.0607 35.7075 30.9305 35.7075 30.6345 35.7248Z" fill="#3B4262"/>
</svg>
