<svg width="304" height="270" viewBox="0 0 304 270" fill="none" xmlns="http://www.w3.org/2000/svg">
<path d="M53.189 109.63C82.5645 109.63 106.378 85.0885 106.378 54.815C106.378 24.5415 82.5645 0 53.189 0C23.8135 0 0 24.5415 0 54.815C0 85.0885 23.8135 109.63 53.189 109.63Z" fill="#5671F5" fill-opacity="0.5"/>
<path d="M53.189 94.509C75.7399 94.509 94.021 76.133 94.021 53.465C94.021 30.797 75.7399 12.421 53.189 12.421C30.6381 12.421 12.357 30.797 12.357 53.465C12.357 76.133 30.6381 94.509 53.189 94.509Z" fill="#E1E4ED"/>
<path d="M249.686 109.63C279.336 109.63 303.372 85.0885 303.372 54.815C303.372 24.5415 279.336 0 249.686 0C220.036 0 196 24.5415 196 54.815C196 85.0885 220.036 109.63 249.686 109.63Z" fill="#ECA922" fill-opacity="0.5"/>
<path d="M249.687 94.509C272.449 94.509 290.901 76.133 290.901 53.465C290.901 30.797 272.449 12.421 249.687 12.421C226.925 12.421 208.473 30.797 208.473 53.465C208.473 76.133 226.925 94.509 249.687 94.509Z" fill="#E1E4ED"/>
<path d="M151.686 269.63C181.336 269.63 205.372 245.088 205.372 214.815C205.372 184.542 181.336 160 151.686 160C122.036 160 98 184.542 98 214.815C98 245.088 122.036 269.63 151.686 269.63Z" fill="#DD405D" fill-opacity="0.5"/>
<path d="M151.687 254.509C174.449 254.509 192.901 236.133 192.901 213.465C192.901 190.797 174.449 172.421 151.687 172.421C128.925 172.421 110.473 190.797 110.473 213.465C110.473 236.133 128.925 254.509 151.687 254.509Z" fill="#E1E4ED"/>
<path d="M139.018 26.255C138.975 26.2723 138.975 26.294 139.018 26.32C139.425 26.5193 139.737 26.8053 139.954 27.178C140.179 27.5507 140.296 28.0013 140.305 28.53C140.305 29.31 140.071 29.9167 139.603 30.35C139.144 30.7833 138.533 31 137.77 31H135.209C135.122 31 135.079 30.9567 135.079 30.87V22.03C135.079 21.9433 135.122 21.9 135.209 21.9H137.666C138.463 21.9 139.087 22.108 139.538 22.524C139.989 22.9313 140.214 23.5163 140.214 24.279C140.214 24.7643 140.11 25.1717 139.902 25.501C139.703 25.8303 139.408 26.0817 139.018 26.255ZM136.054 22.706C136.019 22.706 136.002 22.7233 136.002 22.758V25.891C136.002 25.9257 136.019 25.943 136.054 25.943H137.679C138.182 25.943 138.576 25.8 138.862 25.514C139.157 25.228 139.304 24.8423 139.304 24.357C139.304 23.8457 139.157 23.4427 138.862 23.148C138.576 22.8533 138.182 22.706 137.679 22.706H136.054ZM137.744 30.181C138.247 30.181 138.645 30.025 138.94 29.713C139.235 29.401 139.382 28.9763 139.382 28.439C139.382 27.893 139.23 27.464 138.927 27.152C138.632 26.84 138.229 26.684 137.718 26.684H136.054C136.019 26.684 136.002 26.7013 136.002 26.736V30.129C136.002 30.1637 136.019 30.181 136.054 30.181H137.744ZM147.028 22.576C147.028 22.6627 146.985 22.706 146.898 22.706H142.998C142.964 22.706 142.946 22.7233 142.946 22.758V25.982C142.946 26.0167 142.964 26.034 142.998 26.034H145.624C145.711 26.034 145.754 26.0773 145.754 26.164V26.71C145.754 26.7967 145.711 26.84 145.624 26.84H142.998C142.964 26.84 142.946 26.8573 142.946 26.892V30.142C142.946 30.1767 142.964 30.194 142.998 30.194H146.898C146.985 30.194 147.028 30.2373 147.028 30.324V30.87C147.028 30.9567 146.985 31 146.898 31H142.153C142.067 31 142.023 30.9567 142.023 30.87V22.03C142.023 21.9433 142.067 21.9 142.153 21.9H146.898C146.985 21.9 147.028 21.9433 147.028 22.03V22.576ZM153.299 31C153.221 31 153.173 30.961 153.156 30.883L152.727 29.258C152.718 29.232 152.696 29.219 152.662 29.219H149.555C149.52 29.219 149.498 29.232 149.49 29.258L149.061 30.883C149.043 30.961 148.996 31 148.918 31H148.241C148.198 31 148.164 30.987 148.138 30.961C148.12 30.935 148.116 30.9003 148.125 30.857L150.556 22.017C150.573 21.939 150.621 21.9 150.699 21.9H151.531C151.609 21.9 151.656 21.939 151.674 22.017L154.105 30.857L154.118 30.896C154.118 30.9653 154.074 31 153.988 31H153.299ZM149.711 28.413C149.702 28.4217 149.702 28.4347 149.711 28.452C149.728 28.4607 149.745 28.465 149.763 28.465H152.454C152.471 28.465 152.484 28.4607 152.493 28.452C152.51 28.4347 152.514 28.4217 152.506 28.413L151.128 23.187C151.119 23.1697 151.11 23.161 151.102 23.161C151.093 23.161 151.084 23.1697 151.076 23.187L149.711 28.413ZM159.425 21.9C159.512 21.9 159.555 21.9433 159.555 22.03V22.576C159.555 22.6627 159.512 22.706 159.425 22.706H157.306C157.272 22.706 157.254 22.7233 157.254 22.758V30.87C157.254 30.9567 157.211 31 157.124 31H156.461C156.375 31 156.331 30.9567 156.331 30.87V22.758C156.331 22.7233 156.314 22.706 156.279 22.706H154.238C154.152 22.706 154.108 22.6627 154.108 22.576V22.03C154.108 21.9433 154.152 21.9 154.238 21.9H159.425ZM163.327 31.104C162.512 31.104 161.862 30.8917 161.377 30.467C160.9 30.0337 160.662 29.4573 160.662 28.738V28.387C160.662 28.3003 160.705 28.257 160.792 28.257H161.429C161.515 28.257 161.559 28.3003 161.559 28.387V28.686C161.559 29.1713 161.723 29.5613 162.053 29.856C162.382 30.1507 162.82 30.298 163.366 30.298C163.877 30.298 164.28 30.1593 164.575 29.882C164.869 29.6047 165.017 29.2407 165.017 28.79C165.017 28.4953 164.947 28.2397 164.809 28.023C164.67 27.8063 164.466 27.607 164.198 27.425C163.929 27.243 163.543 27.0133 163.041 26.736C162.503 26.45 162.079 26.1987 161.767 25.982C161.463 25.7653 161.216 25.501 161.026 25.189C160.835 24.877 160.74 24.4957 160.74 24.045C160.74 23.343 160.965 22.7927 161.416 22.394C161.866 21.9953 162.469 21.796 163.223 21.796C164.029 21.796 164.67 22.017 165.147 22.459C165.623 22.901 165.862 23.486 165.862 24.214V24.513C165.862 24.5997 165.818 24.643 165.732 24.643H165.082C164.995 24.643 164.952 24.5997 164.952 24.513V24.227C164.952 23.7417 164.796 23.3517 164.484 23.057C164.172 22.7537 163.743 22.602 163.197 22.602C162.711 22.602 162.33 22.7277 162.053 22.979C161.784 23.2303 161.65 23.5857 161.65 24.045C161.65 24.3397 161.715 24.5867 161.845 24.786C161.975 24.9853 162.161 25.1673 162.404 25.332C162.655 25.4967 163.036 25.7177 163.548 25.995C164.137 26.3243 164.588 26.606 164.9 26.84C165.22 27.0653 165.472 27.3297 165.654 27.633C165.844 27.9277 165.94 28.2917 165.94 28.725C165.94 29.453 165.706 30.0337 165.238 30.467C164.77 30.8917 164.133 31.104 163.327 31.104Z" fill="#3B4262" fill-opacity="0.85"/>
<path d="M45.018 142.255C44.9747 142.272 44.9747 142.294 45.018 142.32C45.4253 142.519 45.7373 142.805 45.954 143.178C46.1793 143.551 46.2963 144.001 46.305 144.53C46.305 145.31 46.071 145.917 45.603 146.35C45.1437 146.783 44.5327 147 43.77 147H41.209C41.1223 147 41.079 146.957 41.079 146.87V138.03C41.079 137.943 41.1223 137.9 41.209 137.9H43.666C44.4633 137.9 45.0873 138.108 45.538 138.524C45.9887 138.931 46.214 139.516 46.214 140.279C46.214 140.764 46.11 141.172 45.902 141.501C45.7027 141.83 45.408 142.082 45.018 142.255ZM42.054 138.706C42.0193 138.706 42.002 138.723 42.002 138.758V141.891C42.002 141.926 42.0193 141.943 42.054 141.943H43.679C44.1817 141.943 44.576 141.8 44.862 141.514C45.1567 141.228 45.304 140.842 45.304 140.357C45.304 139.846 45.1567 139.443 44.862 139.148C44.576 138.853 44.1817 138.706 43.679 138.706H42.054ZM43.744 146.181C44.2467 146.181 44.6453 146.025 44.94 145.713C45.2347 145.401 45.382 144.976 45.382 144.439C45.382 143.893 45.2303 143.464 44.927 143.152C44.6323 142.84 44.2293 142.684 43.718 142.684H42.054C42.0193 142.684 42.002 142.701 42.002 142.736V146.129C42.002 146.164 42.0193 146.181 42.054 146.181H43.744ZM53.0283 138.576C53.0283 138.663 52.985 138.706 52.8983 138.706H48.9983C48.9637 138.706 48.9463 138.723 48.9463 138.758V141.982C48.9463 142.017 48.9637 142.034 48.9983 142.034H51.6243C51.711 142.034 51.7543 142.077 51.7543 142.164V142.71C51.7543 142.797 51.711 142.84 51.6243 142.84H48.9983C48.9637 142.84 48.9463 142.857 48.9463 142.892V146.142C48.9463 146.177 48.9637 146.194 48.9983 146.194H52.8983C52.985 146.194 53.0283 146.237 53.0283 146.324V146.87C53.0283 146.957 52.985 147 52.8983 147H48.1533C48.0667 147 48.0233 146.957 48.0233 146.87V138.03C48.0233 137.943 48.0667 137.9 48.1533 137.9H52.8983C52.985 137.9 53.0283 137.943 53.0283 138.03V138.576ZM59.2985 147C59.2205 147 59.1728 146.961 59.1555 146.883L58.7265 145.258C58.7178 145.232 58.6962 145.219 58.6615 145.219H55.5545C55.5198 145.219 55.4982 145.232 55.4895 145.258L55.0605 146.883C55.0432 146.961 54.9955 147 54.9175 147H54.2415C54.1982 147 54.1635 146.987 54.1375 146.961C54.1202 146.935 54.1158 146.9 54.1245 146.857L56.5555 138.017C56.5728 137.939 56.6205 137.9 56.6985 137.9H57.5305C57.6085 137.9 57.6562 137.939 57.6735 138.017L60.1045 146.857L60.1175 146.896C60.1175 146.965 60.0742 147 59.9875 147H59.2985ZM55.7105 144.413C55.7018 144.422 55.7018 144.435 55.7105 144.452C55.7278 144.461 55.7452 144.465 55.7625 144.465H58.4535C58.4708 144.465 58.4838 144.461 58.4925 144.452C58.5098 144.435 58.5142 144.422 58.5055 144.413L57.1275 139.187C57.1188 139.17 57.1102 139.161 57.1015 139.161C57.0928 139.161 57.0842 139.17 57.0755 139.187L55.7105 144.413ZM65.4253 137.9C65.5119 137.9 65.5553 137.943 65.5553 138.03V138.576C65.5553 138.663 65.5119 138.706 65.4253 138.706H63.3063C63.2716 138.706 63.2543 138.723 63.2543 138.758V146.87C63.2543 146.957 63.2109 147 63.1243 147H62.4613C62.3746 147 62.3313 146.957 62.3313 146.87V138.758C62.3313 138.723 62.3139 138.706 62.2793 138.706H60.2383C60.1516 138.706 60.1083 138.663 60.1083 138.576V138.03C60.1083 137.943 60.1516 137.9 60.2383 137.9H65.4253ZM69.3268 147.104C68.5121 147.104 67.8621 146.892 67.3768 146.467C66.9001 146.034 66.6618 145.457 66.6618 144.738V144.387C66.6618 144.3 66.7051 144.257 66.7918 144.257H67.4288C67.5154 144.257 67.5588 144.3 67.5588 144.387V144.686C67.5588 145.171 67.7234 145.561 68.0528 145.856C68.3821 146.151 68.8198 146.298 69.3658 146.298C69.8771 146.298 70.2801 146.159 70.5748 145.882C70.8694 145.605 71.0168 145.241 71.0168 144.79C71.0168 144.495 70.9474 144.24 70.8088 144.023C70.6701 143.806 70.4664 143.607 70.1978 143.425C69.9291 143.243 69.5434 143.013 69.0408 142.736C68.5034 142.45 68.0788 142.199 67.7668 141.982C67.4634 141.765 67.2164 141.501 67.0258 141.189C66.8351 140.877 66.7398 140.496 66.7398 140.045C66.7398 139.343 66.9651 138.793 67.4158 138.394C67.8664 137.995 68.4688 137.796 69.2228 137.796C70.0288 137.796 70.6701 138.017 71.1468 138.459C71.6234 138.901 71.8618 139.486 71.8618 140.214V140.513C71.8618 140.6 71.8184 140.643 71.7318 140.643H71.0818C70.9951 140.643 70.9518 140.6 70.9518 140.513V140.227C70.9518 139.742 70.7958 139.352 70.4838 139.057C70.1718 138.754 69.7428 138.602 69.1968 138.602C68.7114 138.602 68.3301 138.728 68.0528 138.979C67.7841 139.23 67.6498 139.586 67.6498 140.045C67.6498 140.34 67.7148 140.587 67.8448 140.786C67.9748 140.985 68.1611 141.167 68.4038 141.332C68.6551 141.497 69.0364 141.718 69.5478 141.995C70.1371 142.324 70.5878 142.606 70.8998 142.84C71.2204 143.065 71.4718 143.33 71.6538 143.633C71.8444 143.928 71.9398 144.292 71.9398 144.725C71.9398 145.453 71.7058 146.034 71.2378 146.467C70.7698 146.892 70.1328 147.104 69.3268 147.104Z" fill="#3B4262" fill-opacity="0.85"/>
<path d="M240.018 142.255C239.975 142.272 239.975 142.294 240.018 142.32C240.425 142.519 240.737 142.805 240.954 143.178C241.179 143.551 241.296 144.001 241.305 144.53C241.305 145.31 241.071 145.917 240.603 146.35C240.144 146.783 239.533 147 238.77 147H236.209C236.122 147 236.079 146.957 236.079 146.87V138.03C236.079 137.943 236.122 137.9 236.209 137.9H238.666C239.463 137.9 240.087 138.108 240.538 138.524C240.989 138.931 241.214 139.516 241.214 140.279C241.214 140.764 241.11 141.172 240.902 141.501C240.703 141.83 240.408 142.082 240.018 142.255ZM237.054 138.706C237.019 138.706 237.002 138.723 237.002 138.758V141.891C237.002 141.926 237.019 141.943 237.054 141.943H238.679C239.182 141.943 239.576 141.8 239.862 141.514C240.157 141.228 240.304 140.842 240.304 140.357C240.304 139.846 240.157 139.443 239.862 139.148C239.576 138.853 239.182 138.706 238.679 138.706H237.054ZM238.744 146.181C239.247 146.181 239.645 146.025 239.94 145.713C240.235 145.401 240.382 144.976 240.382 144.439C240.382 143.893 240.23 143.464 239.927 143.152C239.632 142.84 239.229 142.684 238.718 142.684H237.054C237.019 142.684 237.002 142.701 237.002 142.736V146.129C237.002 146.164 237.019 146.181 237.054 146.181H238.744ZM248.028 138.576C248.028 138.663 247.985 138.706 247.898 138.706H243.998C243.964 138.706 243.946 138.723 243.946 138.758V141.982C243.946 142.017 243.964 142.034 243.998 142.034H246.624C246.711 142.034 246.754 142.077 246.754 142.164V142.71C246.754 142.797 246.711 142.84 246.624 142.84H243.998C243.964 142.84 243.946 142.857 243.946 142.892V146.142C243.946 146.177 243.964 146.194 243.998 146.194H247.898C247.985 146.194 248.028 146.237 248.028 146.324V146.87C248.028 146.957 247.985 147 247.898 147H243.153C243.067 147 243.023 146.957 243.023 146.87V138.03C243.023 137.943 243.067 137.9 243.153 137.9H247.898C247.985 137.9 248.028 137.943 248.028 138.03V138.576ZM254.299 147C254.221 147 254.173 146.961 254.156 146.883L253.727 145.258C253.718 145.232 253.696 145.219 253.662 145.219H250.555C250.52 145.219 250.498 145.232 250.49 145.258L250.061 146.883C250.043 146.961 249.996 147 249.918 147H249.241C249.198 147 249.164 146.987 249.138 146.961C249.12 146.935 249.116 146.9 249.125 146.857L251.556 138.017C251.573 137.939 251.621 137.9 251.699 137.9H252.531C252.609 137.9 252.656 137.939 252.674 138.017L255.105 146.857L255.118 146.896C255.118 146.965 255.074 147 254.988 147H254.299ZM250.711 144.413C250.702 144.422 250.702 144.435 250.711 144.452C250.728 144.461 250.745 144.465 250.763 144.465H253.454C253.471 144.465 253.484 144.461 253.493 144.452C253.51 144.435 253.514 144.422 253.506 144.413L252.128 139.187C252.119 139.17 252.11 139.161 252.102 139.161C252.093 139.161 252.084 139.17 252.076 139.187L250.711 144.413ZM260.425 137.9C260.512 137.9 260.555 137.943 260.555 138.03V138.576C260.555 138.663 260.512 138.706 260.425 138.706H258.306C258.272 138.706 258.254 138.723 258.254 138.758V146.87C258.254 146.957 258.211 147 258.124 147H257.461C257.375 147 257.331 146.957 257.331 146.87V138.758C257.331 138.723 257.314 138.706 257.279 138.706H255.238C255.152 138.706 255.108 138.663 255.108 138.576V138.03C255.108 137.943 255.152 137.9 255.238 137.9H260.425ZM264.327 147.104C263.512 147.104 262.862 146.892 262.377 146.467C261.9 146.034 261.662 145.457 261.662 144.738V144.387C261.662 144.3 261.705 144.257 261.792 144.257H262.429C262.515 144.257 262.559 144.3 262.559 144.387V144.686C262.559 145.171 262.723 145.561 263.053 145.856C263.382 146.151 263.82 146.298 264.366 146.298C264.877 146.298 265.28 146.159 265.575 145.882C265.869 145.605 266.017 145.241 266.017 144.79C266.017 144.495 265.947 144.24 265.809 144.023C265.67 143.806 265.466 143.607 265.198 143.425C264.929 143.243 264.543 143.013 264.041 142.736C263.503 142.45 263.079 142.199 262.767 141.982C262.463 141.765 262.216 141.501 262.026 141.189C261.835 140.877 261.74 140.496 261.74 140.045C261.74 139.343 261.965 138.793 262.416 138.394C262.866 137.995 263.469 137.796 264.223 137.796C265.029 137.796 265.67 138.017 266.147 138.459C266.623 138.901 266.862 139.486 266.862 140.214V140.513C266.862 140.6 266.818 140.643 266.732 140.643H266.082C265.995 140.643 265.952 140.6 265.952 140.513V140.227C265.952 139.742 265.796 139.352 265.484 139.057C265.172 138.754 264.743 138.602 264.197 138.602C263.711 138.602 263.33 138.728 263.053 138.979C262.784 139.23 262.65 139.586 262.65 140.045C262.65 140.34 262.715 140.587 262.845 140.786C262.975 140.985 263.161 141.167 263.404 141.332C263.655 141.497 264.036 141.718 264.548 141.995C265.137 142.324 265.588 142.606 265.9 142.84C266.22 143.065 266.472 143.33 266.654 143.633C266.844 143.928 266.94 144.292 266.94 144.725C266.94 145.453 266.706 146.034 266.238 146.467C265.77 146.892 265.133 147.104 264.327 147.104Z" fill="#3B4262" fill-opacity="0.85"/>
<path d="M129 49H175C176.105 49 177 49.8954 177 51C177 52.1046 176.105 53 175 53H129C127.895 53 127 52.1046 127 51C127 49.8954 127.895 49 129 49Z" fill="#B1B4C5"/>
<path fill-rule="evenodd" clip-rule="evenodd" d="M135.037 41.015L126.447 49.743C125.731 50.47 125.737 51.639 126.46 52.359C126.631 52.5295 126.834 52.6645 127.058 52.7562C127.282 52.8479 127.521 52.8945 127.763 52.8933C128.004 52.8921 128.243 52.8431 128.466 52.7492C128.689 52.6552 128.89 52.5182 129.06 52.346L137.65 43.618C137.994 43.2687 138.186 42.7975 138.183 42.3073C138.181 41.8171 137.984 41.3479 137.637 41.002C137.466 40.8315 137.263 40.6965 137.039 40.6048C136.815 40.5131 136.576 40.4665 136.334 40.4677C136.093 40.4689 135.854 40.5179 135.631 40.6118C135.408 40.7058 135.206 40.8428 135.037 41.015Z" fill="#B1B4C5"/>
<path fill-rule="evenodd" clip-rule="evenodd" d="M137.65 58.382L129.06 49.654C128.89 49.4818 128.689 49.3448 128.466 49.2508C128.243 49.1569 128.004 49.108 127.763 49.1067C127.521 49.1055 127.282 49.1521 127.058 49.2438C126.834 49.3355 126.631 49.4705 126.46 49.641C125.737 50.361 125.731 51.53 126.447 52.257L135.037 60.985C135.206 61.1572 135.408 61.2943 135.631 61.3882C135.854 61.4821 136.093 61.5311 136.334 61.5323C136.576 61.5335 136.815 61.4869 137.039 61.3952C137.263 61.3035 137.466 61.1685 137.637 60.998C137.984 60.6522 138.181 60.1829 138.183 59.6927C138.186 59.2025 137.994 58.7313 137.65 58.382Z" fill="#B1B4C5"/>
<path d="M107.98 157.169L81.5959 119.488C80.9623 118.583 81.1822 117.336 82.087 116.702C82.9918 116.069 84.2389 116.289 84.8725 117.194L111.257 154.875C111.891 155.779 111.671 157.026 110.766 157.66C109.861 158.294 108.614 158.074 107.98 157.169Z" fill="#B1B4C5"/>
<path fill-rule="evenodd" clip-rule="evenodd" d="M97.9767 156.804L110.053 158.834C111.06 159.003 112.014 158.328 112.189 157.323C112.23 157.085 112.224 156.841 112.171 156.605C112.118 156.369 112.019 156.147 111.879 155.949C111.74 155.752 111.562 155.584 111.358 155.456C111.153 155.327 110.925 155.241 110.687 155.201L98.6102 153.17C98.1268 153.089 97.6309 153.202 97.2308 153.485C96.8306 153.768 96.5589 154.198 96.4748 154.681C96.4333 154.919 96.4393 155.163 96.4924 155.399C96.5455 155.635 96.6448 155.858 96.7843 156.055C96.9239 156.252 97.1011 156.42 97.3058 156.548C97.5104 156.677 97.7384 156.764 97.9767 156.804Z" fill="#B1B4C5"/>
<path fill-rule="evenodd" clip-rule="evenodd" d="M110.704 144.702L108.482 156.745C108.438 156.982 108.441 157.226 108.492 157.462C108.543 157.699 108.64 157.923 108.777 158.121C108.915 158.32 109.091 158.489 109.294 158.62C109.497 158.75 109.724 158.839 109.962 158.882C110.967 159.061 111.928 158.396 112.113 157.392L114.335 145.349C114.379 145.112 114.376 144.868 114.325 144.632C114.274 144.395 114.177 144.171 114.039 143.973C113.902 143.774 113.726 143.605 113.523 143.474C113.32 143.344 113.092 143.255 112.855 143.212C112.372 143.126 111.875 143.234 111.472 143.513C111.069 143.793 110.793 144.22 110.704 144.702Z" fill="#B1B4C5"/>
<path d="M222.98 118.832L196.596 156.513C195.962 157.418 196.182 158.665 197.087 159.298C197.992 159.932 199.239 159.712 199.872 158.807L226.257 121.126C226.89 120.221 226.67 118.974 225.766 118.341C224.861 117.707 223.614 117.927 222.98 118.832Z" fill="#B1B4C5"/>
<path fill-rule="evenodd" clip-rule="evenodd" d="M212.977 119.197L225.053 117.167C226.059 116.997 227.013 117.673 227.189 118.678C227.23 118.916 227.224 119.16 227.171 119.395C227.118 119.631 227.019 119.854 226.879 120.051C226.739 120.249 226.562 120.416 226.358 120.545C226.153 120.673 225.925 120.76 225.687 120.8L213.61 122.83C213.127 122.912 212.631 122.799 212.231 122.515C211.83 122.232 211.559 121.802 211.475 121.319C211.433 121.081 211.439 120.837 211.492 120.602C211.545 120.366 211.645 120.143 211.784 119.946C211.924 119.749 212.101 119.581 212.306 119.452C212.51 119.324 212.738 119.237 212.977 119.197Z" fill="#B1B4C5"/>
<path fill-rule="evenodd" clip-rule="evenodd" d="M225.704 131.299L223.481 119.256C223.438 119.018 223.441 118.774 223.492 118.538C223.543 118.302 223.64 118.078 223.777 117.879C223.915 117.681 224.09 117.511 224.294 117.381C224.497 117.25 224.724 117.161 224.962 117.119C225.967 116.939 226.928 117.605 227.112 118.609L229.335 130.651C229.379 130.889 229.375 131.133 229.325 131.369C229.274 131.605 229.177 131.829 229.039 132.028C228.902 132.226 228.726 132.396 228.523 132.527C228.319 132.657 228.092 132.746 227.854 132.789C227.372 132.875 226.875 132.766 226.472 132.487C226.069 132.208 225.793 131.781 225.704 131.299Z" fill="#B1B4C5"/>
<mask id="mask0" mask-type="alpha" maskUnits="userSpaceOnUse" x="227" y="27" width="46" height="54">
<path d="M253.623 59.9373C254.519 59.6817 255.298 59.0802 255.77 58.2312L256.096 57.6457L254.925 56.9946L254.6 57.5801C254.16 58.3707 253.296 58.8186 252.398 58.7212L251.733 58.6491L251.588 59.981L252.254 60.0531C252.724 60.1041 253.188 60.0617 253.623 59.9373Z" fill="#666666"/>
<path d="M266.499 52.8268C266.86 52.3967 266.754 51.7404 266.27 51.4553C264.787 50.5821 262.999 50.3427 261.312 50.8241L261.813 52.5807C263.017 52.2372 264.293 52.4089 265.35 53.0338C265.729 53.2577 266.216 53.1632 266.499 52.8268Z" fill="#808080"/>
<path d="M233.074 35.1669L234.164 33.3671C234.486 32.8343 234.508 32.172 234.221 31.619C233.994 31.1804 233.374 31.1594 233.117 31.5815L231.513 34.2175L233.074 35.1669Z" fill="#666666"/>
<path d="M228.803 35.8621L249.732 47.5008L251.937 43.536L231.008 31.8984L228.803 35.8621Z" fill="#808080"/>
<path d="M228.803 35.8621L249.732 47.5008L250.453 46.2047L229.524 34.5673" fill="#666666"/>
<path d="M248.809 50.8043L249.253 50.0052C249.371 49.7934 249.4 49.5437 249.333 49.3108C249.267 49.0779 249.111 48.8808 248.899 48.7632L235.007 41.0379L234.119 42.6346L248.809 50.8043Z" fill="#666666"/>
<path d="M255.613 62.0189C255.613 62.0189 255.843 62.0456 256.185 62.1102L256.22 62.0608C260.118 61.9608 264.771 63.1021 266.907 58.1788L266.997 58.1746C267.006 58.1164 267.016 58.0579 267.03 58.0007C266.343 57.8168 265.688 57.4033 265.688 57.4033C264.167 56.5578 263.132 55.1751 262.689 53.6233C262.247 52.0726 262.397 50.353 263.242 48.8315L251.557 42.3333C251.139 42.1008 250.611 42.2513 250.379 42.6694L248.174 46.6342L246.997 48.7506L245.39 51.6406C245.157 52.0587 245.308 52.5863 245.726 52.8188L247.713 53.9237C248.618 54.4268 248.992 55.5129 248.631 56.452C249.309 55.5225 250.59 55.2065 251.64 55.7696L254.278 57.1864C255.131 57.6448 255.716 58.4126 255.963 59.2781C256.189 60.071 256.133 60.9456 255.743 61.7407C255.698 61.8336 255.648 61.921 255.594 62.0064L255.613 62.0189Z" fill="#B3B3B3"/>
<path d="M252.31 45.5888L249.025 51.4954L255.943 55.3425L259.227 49.4363L252.31 45.5888Z" fill="#808080"/>
<path d="M255.783 72.7454C255.331 73.3277 255.501 74.1756 256.146 74.5327L262.844 78.2577C263.642 78.7013 264.647 78.4005 265.074 77.5923C268.654 70.8073 269.671 66.6991 268.519 62.7784C268.145 61.5073 266.781 59.6608 266.997 58.1746L266.907 58.1787C262.936 56.6456 258.349 58.2329 256.22 62.0608L256.185 62.1102C256.935 62.2507 258.218 62.57 258.749 63.1708C260.832 65.631 257.48 70.5578 255.783 72.7454Z" fill="#FCBB29"/>
<path d="M254.218 63.6771C254.952 63.4676 255.614 62.9969 256.056 62.3004C256.123 62.1963 256.181 62.0924 256.235 61.9832C256.671 61.0938 256.762 60.0802 256.49 59.128C256.192 58.0811 255.498 57.2202 254.538 56.704L251.899 55.2871C250.632 54.6069 249.037 54.9681 248.19 56.1272C248.095 56.2552 248.008 56.3963 247.933 56.5466C246.934 58.5464 247.662 60.9966 249.592 62.1247L251.688 63.3525C252.486 63.8193 253.397 63.9111 254.218 63.6771ZM250.031 56.1097C250.47 55.9844 250.955 56.0243 251.381 56.2526L254.019 57.6693C254.716 58.0441 255.219 58.6688 255.436 59.4285C255.633 60.1194 255.567 60.8549 255.251 61.4993C255.216 61.5714 255.176 61.6412 255.131 61.7118C254.512 62.6869 253.243 62.9917 252.241 62.4065L250.145 61.1784C248.712 60.3406 248.171 58.5212 248.913 57.0362C248.96 56.9427 249.013 56.8563 249.07 56.7796C249.071 56.7782 249.072 56.7767 249.073 56.7753C249.316 56.4434 249.657 56.2165 250.031 56.1097Z" fill="#B3B3B3"/>
</mask>
<g mask="url(#mask0)">
<rect width="32" height="54.08" transform="matrix(-0.961637 0.274325 0.274325 0.961637 258.608 23.6923)" fill="#8A90AC"/>
</g>
<g clip-path="url(#clip0)">
<path d="M53.3147 32.9836C53.2161 33.3296 52.8132 34.7332 52.4211 36.1036C51.0314 40.9593 50.995 41.0868 51.01 41.0814C51.0186 41.0782 51.5822 40.7032 52.2625 40.2479L53.5 39.4207L54.7375 40.2479C55.4179 40.7032 55.9814 41.0782 55.99 41.0814C56.005 41.0868 55.9643 40.9432 54.5789 36.1036C54.1868 34.7332 53.7839 33.3296 53.6854 32.9836C53.5868 32.6375 53.5032 32.3536 53.5 32.3536C53.4968 32.3536 53.4132 32.6375 53.3147 32.9836Z" fill="#8A90AC"/>
<path d="M46.8657 35.5175C45.5104 37.0293 44.4764 38.6675 43.8175 40.3464C43.3664 41.4982 43.1082 42.6168 43.0375 43.7375C43.0214 44 43.0204 44.0889 43.0343 44.0782C43.4275 43.7611 45.1922 42.4571 45.2286 42.4571C45.235 42.4571 45.3647 42.5332 45.5157 42.6264C46.0847 42.9778 46.6472 43.31 47.2 43.6228C47.5879 43.8414 48.0293 44.0846 48.0336 44.0814C48.0347 44.0793 48.0111 44.0353 47.9811 43.9828C47.8022 43.6732 47.5354 43.1311 47.3875 42.7732C46.9482 41.7146 46.675 40.6164 46.5786 39.5214C46.5722 39.4475 46.5647 39.3703 46.5625 39.35C46.5347 39.0918 46.5347 38 46.5625 37.775C46.5636 37.76 46.5689 37.7021 46.5732 37.6464C46.5839 37.4975 46.6279 37.1321 46.66 36.9286C46.7307 36.4711 46.8411 35.9825 46.9772 35.5325C47.0061 35.4328 47.0286 35.3503 47.0264 35.3482C47.0243 35.345 46.9514 35.4211 46.8657 35.5175Z" fill="#8A90AC"/>
<path d="M59.9714 35.3493C59.9714 35.3568 59.9907 35.4243 60.0132 35.4993C60.2136 36.1507 60.3657 36.9307 60.4214 37.5875C60.4279 37.6635 60.4354 37.746 60.4375 37.7696C60.4654 38.0321 60.4654 39.0885 60.4375 39.35C60.4354 39.3703 60.4279 39.4475 60.4214 39.5214C60.325 40.6164 60.0518 41.7146 59.6125 42.7732C59.4646 43.131 59.1979 43.6732 59.0189 43.9828C58.9889 44.0353 58.9654 44.0793 58.9664 44.0814C58.9707 44.0846 59.4132 43.8414 59.8 43.6228C60.3507 43.311 60.8286 43.0293 61.3879 42.6853C61.5925 42.56 61.7661 42.4571 61.7725 42.4571C61.8079 42.4571 63.5918 43.776 63.9657 44.0782C63.9796 44.0889 63.9786 44 63.9625 43.7375C63.8768 42.3821 63.5146 41.016 62.8675 39.6082C62.23 38.2207 61.2764 36.7882 60.1707 35.5582C60.0989 35.4789 60.0261 35.3975 60.0068 35.376C59.9875 35.3546 59.9725 35.3428 59.9714 35.3493Z" fill="#8A90AC"/>
<path d="M39.7654 42.0125C38.6146 43.2929 37.7039 44.6364 37.0557 46.0089C36.5339 47.1157 36.1868 48.1989 36.0089 49.2714C35.9725 49.4943 35.9243 49.8768 35.9125 50.0429C35.9082 50.0932 35.9039 50.1532 35.9007 50.1768C35.8986 50.2004 35.8932 50.3107 35.8889 50.4232C35.8836 50.5979 35.8846 50.6246 35.8975 50.615C36.25 50.3354 37.1993 49.6293 37.8186 49.1836L38.0854 48.9907L38.1614 49.0379C38.7164 49.3818 38.9725 49.5361 39.4964 49.8425C39.9668 50.1189 40.8775 50.6257 40.8861 50.6171C40.8882 50.615 40.8754 50.5871 40.8561 50.5561C40.7789 50.4254 40.6236 50.1318 40.525 49.9304C39.8854 48.6211 39.5211 47.2754 39.4171 45.8268C39.3807 45.32 39.3893 44.6536 39.4386 44.1179C39.5018 43.4257 39.6411 42.71 39.8382 42.0607C39.8671 41.9643 39.8907 41.8829 39.8886 41.8818C39.8875 41.8796 39.8318 41.9386 39.7654 42.0125Z" fill="#8A90AC"/>
<path d="M67.1114 41.8914C67.4822 43.0796 67.6364 44.2068 67.6011 45.4786C67.5679 46.6861 67.2711 48.0618 66.7911 49.2286C66.6111 49.6668 66.3347 50.2336 66.1439 50.5561C66.1247 50.5871 66.1118 50.615 66.1139 50.6171C66.1225 50.6268 67.0204 50.1254 67.5464 49.8179C67.8711 49.6282 68.3286 49.3539 68.5943 49.1889C68.7046 49.1204 68.8214 49.0486 68.8546 49.0282L68.9157 48.9918L69.1814 49.1836C69.8007 49.6293 70.75 50.3364 71.1025 50.615C71.1154 50.6246 71.1164 50.5979 71.1111 50.4232C71.1068 50.3107 71.1014 50.2004 71.0993 50.1768C71.0961 50.1532 71.0918 50.0932 71.0875 50.0429C71.0757 49.8768 71.0275 49.4943 70.9911 49.2714C70.6589 47.2625 69.7139 45.1786 68.2664 43.2607C67.9686 42.8664 67.6621 42.4925 67.345 42.1368C67.1393 41.9054 67.1039 41.87 67.1114 41.8914Z" fill="#8A90AC"/>
<path d="M53.3071 42.2289C52.3268 42.3071 51.4375 42.8793 50.7904 43.8468C50.2868 44.6011 49.9846 45.5386 49.9096 46.58C49.8936 46.8061 49.9032 47.3868 49.9268 47.6053C50.0404 48.6682 50.3929 49.6111 50.9575 50.3557C51.0711 50.5057 51.1482 50.5946 51.3036 50.7543C52.1403 51.6125 53.2268 51.9339 54.2725 51.6339C54.9325 51.4443 55.5646 50.9878 56.0414 50.3578C56.6071 49.61 56.9596 48.6693 57.0732 47.6053C57.0968 47.3868 57.1064 46.8061 57.0903 46.58C57.0325 45.7764 56.8482 45.0628 56.531 44.4125C56.1186 43.5661 55.5164 42.9146 54.8125 42.5525C54.4975 42.3896 54.2178 42.2996 53.8696 42.2482C53.7593 42.2321 53.4164 42.2193 53.3071 42.2289Z" fill="#8A90AC"/>
<path d="M45.3775 45.215C45.3753 45.2171 45.3271 45.2225 45.2714 45.2268C44.8053 45.2611 44.2686 45.4646 43.8357 45.7711C42.8864 46.445 42.2104 47.6428 41.9993 49.025C41.9843 49.1225 41.9671 49.2596 41.9607 49.3303C41.9543 49.4011 41.9468 49.4782 41.9436 49.5018C41.9329 49.5832 41.9307 50.2625 41.9393 50.3911C42.0271 51.5771 42.415 52.6303 43.0621 53.4414C43.2678 53.6996 43.6075 54.02 43.8571 54.1903C44.3136 54.5043 44.7946 54.68 45.3196 54.726C45.4536 54.7368 45.7139 54.7346 45.8125 54.7196C46.0182 54.6907 46.1007 54.6746 46.2196 54.6446C46.6439 54.5353 47.0232 54.3425 47.4036 54.0403C47.5503 53.9246 47.8739 53.5968 48.0078 53.4285C48.6057 52.6785 48.9764 51.7239 49.1028 50.6107C49.1296 50.3718 49.1361 49.7407 49.1136 49.475C49.0032 48.1668 48.5178 47.015 47.7411 46.2189C47.5236 45.9961 47.3478 45.8503 47.1196 45.7003C46.7446 45.4561 46.3332 45.2996 45.8961 45.2364C45.7932 45.2214 45.3893 45.2043 45.3775 45.215Z" fill="#8A90AC"/>
<path d="M61.2271 45.2214C60.8393 45.2589 60.43 45.3864 60.0871 45.576C59.7861 45.7421 59.5311 45.9403 59.2589 46.2189C58.48 47.016 57.9925 48.1764 57.8864 49.4803C57.865 49.746 57.8714 50.3814 57.8971 50.6107C58.0257 51.7314 58.3932 52.6775 58.9921 53.4285C59.1261 53.5968 59.4486 53.9235 59.5964 54.0414C60.055 54.4046 60.5586 54.6318 61.0696 54.7035C61.1168 54.71 61.1704 54.7175 61.1875 54.7196C61.2882 54.7346 61.5464 54.7368 61.6804 54.726C62.2943 54.6725 62.8364 54.4464 63.3625 54.0253C63.5136 53.9032 63.8039 53.6096 63.9379 53.4414C64.585 52.6303 64.9729 51.576 65.0607 50.391C65.0746 50.1928 65.0661 49.5843 65.0457 49.3785C64.8904 47.8314 64.1993 46.506 63.1643 45.771C62.7464 45.4753 62.2418 45.2793 61.7661 45.2278C61.6579 45.216 61.3236 45.2128 61.2271 45.2214Z" fill="#8A90AC"/>
<path d="M38.0682 51.7732C37.2197 51.8761 36.4375 52.3614 35.8364 53.1564C35.29 53.8786 34.9289 54.8364 34.8197 55.8511C34.7618 56.3868 34.78 57.0125 34.8689 57.5375C35.0532 58.6314 35.5118 59.5893 36.1804 60.2739C36.7418 60.8493 37.3782 61.1782 38.0929 61.2607C38.3072 61.2853 38.6361 61.2746 38.8697 61.2339C39.3411 61.1514 39.8404 60.9189 40.2518 60.59C40.3932 60.4775 40.6321 60.245 40.7596 60.0982C41.3307 59.4382 41.7368 58.5393 41.9007 57.575C41.9307 57.4003 41.9318 57.3928 41.9543 57.1839C41.9811 56.9353 41.9821 56.9161 41.9875 56.6161C42.0046 55.6357 41.8043 54.7164 41.3961 53.9C40.8336 52.7718 39.9379 52.0111 38.9361 51.8107C38.6736 51.7582 38.3211 51.7432 38.0682 51.7732Z" fill="#8A90AC"/>
<path d="M68.2943 51.7732C66.6046 51.9789 65.2632 53.6803 65.0393 55.8982C65.0157 56.1382 65.0082 56.3343 65.0125 56.6107C65.0179 56.9118 65.0179 56.9268 65.0511 57.2268C65.17 58.3218 65.5964 59.3514 66.2393 60.0971C66.3657 60.2439 66.6057 60.4753 66.7482 60.59C67.1596 60.9189 67.66 61.1514 68.1304 61.2339C68.3639 61.2746 68.6929 61.2853 68.9071 61.2607C69.6218 61.1782 70.2582 60.8493 70.8196 60.2739C71.2889 59.7928 71.6596 59.1703 71.8986 58.4653C72.0571 57.9939 72.1514 57.5353 72.1964 57.0018C72.2211 56.7178 72.2157 56.165 72.1868 55.9143C72.1804 55.8639 72.1729 55.7943 72.1696 55.7589C72.1504 55.5714 72.0893 55.2468 72.025 54.9928C71.6286 53.4211 70.6054 52.2114 69.3786 51.8643C69.0304 51.7657 68.6329 51.7325 68.2943 51.7732Z" fill="#8A90AC"/>
<path d="M52.9643 54.1154C52.4468 54.1443 51.9625 54.2364 51.5339 54.3875C51.3046 54.4679 51.25 54.4861 50.9875 54.5696C46.9375 55.8575 42.5596 59.7007 39.9979 64.2179C38.8268 66.2814 38.1004 68.4221 37.9547 70.2339C37.9482 70.31 37.9407 70.4064 37.9375 70.4482C37.9268 70.5779 37.9236 71.2454 37.9322 71.4018C38.0072 72.6168 38.3511 73.6229 38.95 74.375C39.1879 74.6729 39.415 74.8496 39.7289 74.9814C40.0664 75.1229 40.4114 75.1871 40.8947 75.1968C41.6007 75.2118 42.4075 75.0832 43.3954 74.7982C44.3286 74.5304 45.4793 74.0975 46.525 73.6218C46.5571 73.6068 46.6632 73.5586 46.7607 73.5146C46.8582 73.4707 46.9996 73.4054 47.0757 73.3689C47.1507 73.3325 47.215 73.3036 47.2171 73.3036C47.2182 73.3036 47.4121 73.2104 47.6468 73.0957C48.4493 72.7057 49.1843 72.32 50.1839 71.7661C50.3318 71.6836 50.5461 71.5732 50.6607 71.5186C51.8018 70.9807 53.0329 70.7761 54.2661 70.9207C55.1564 71.0246 55.9632 71.2925 56.8161 71.7661C57.6871 72.2493 58.6418 72.7529 59.1196 72.9821C59.2021 73.0218 59.3843 73.1107 59.5246 73.1793C59.665 73.2479 59.7818 73.3036 59.7839 73.3036C59.785 73.3036 59.8482 73.3325 59.9232 73.3679C61.1971 73.9721 62.5236 74.4875 63.6046 74.7982C64.5925 75.0832 65.3993 75.2118 66.1054 75.1968C66.5886 75.1871 66.9336 75.1229 67.2711 74.9814C67.585 74.8496 67.8121 74.6729 68.05 74.375C68.5461 73.7525 68.8729 72.9414 69.0079 71.9964C69.0582 71.6439 69.0754 71.3771 69.0754 70.9679C69.0754 70.6304 69.0657 70.4289 69.0357 70.1321C69.0057 69.8354 69.0057 69.8343 68.9704 69.5911C68.7261 67.925 68.035 66.0393 67.0021 64.2179C65.8236 62.1393 64.2218 60.1443 62.395 58.4771C60.3518 56.6129 58.1018 55.2339 56.0286 54.575C55.7704 54.4925 55.6836 54.4636 55.4661 54.3875C55.0332 54.2354 54.5596 54.1454 54.025 54.1143C53.8471 54.1046 53.1475 54.1046 52.9643 54.1154Z" fill="#8A90AC"/>
</g>
<path d="M141.608 211.157L143.329 210C151.84 221.875 165.384 236.008 167.89 237.517C170.457 239.062 177.308 238.108 177.308 238.108C163.382 226.761 151.765 211.018 148.552 206.489L149.646 205.753C150.231 205.36 150.386 204.568 149.992 203.983C149.599 203.399 148.808 203.245 148.224 203.638L147.09 204.4L138.873 192.653C137.608 190.853 136.004 191.111 134.582 191.872C132.967 192.736 132.373 194.601 133.79 196.619L141.85 207.923L140.186 209.042C139.601 209.435 139.446 210.227 139.839 210.811C140.232 211.396 141.024 211.551 141.608 211.157ZM137.342 195.94L140.393 195.97L139.385 198.85L136.335 198.82L137.342 195.94ZM139.76 199.384L142.812 199.414L141.804 202.294L138.753 202.265L139.76 199.384ZM142.179 202.828L145.23 202.858L144.223 205.738L141.172 205.709L142.179 202.828ZM145.976 208.382C145.976 208.382 146.833 210.828 148.79 213.358C149.587 214.387 151.165 215 152.127 216.228C153.099 217.469 153.241 218.755 154.289 220.069C155.309 221.348 157.094 222.001 158.873 223.756C160.584 225.446 160.821 227.653 162.05 229.03C163.61 230.778 165.277 230.891 166.409 231.883C168.111 233.374 167.399 234.13 168.727 235.411C169.696 236.345 173.238 237.487 173.6 237.591C173.961 237.695 169.957 237.597 168.779 237.139C167.6 236.68 161.842 231.552 155.927 224.658C150.277 218.072 143.948 209.807 143.948 209.807L145.976 208.382Z" fill="#8A90AC"/>
<path d="M165.392 211.157L163.671 210C155.16 221.875 141.616 236.008 139.11 237.517C136.543 239.062 129.692 238.108 129.692 238.108C143.618 226.761 155.235 211.018 158.448 206.489L157.354 205.753C156.769 205.36 156.614 204.568 157.008 203.983C157.401 203.399 158.192 203.245 158.776 203.638L159.91 204.4L168.127 192.653C169.392 190.853 170.996 191.111 172.418 191.872C174.033 192.736 174.627 194.601 173.21 196.619L165.15 207.923L166.814 209.042C167.399 209.435 167.554 210.227 167.161 210.811C166.768 211.396 165.976 211.551 165.392 211.157ZM169.658 195.94L166.607 195.97L167.615 198.85L170.665 198.82L169.658 195.94ZM167.24 199.384L164.188 199.414L165.196 202.294L168.247 202.265L167.24 199.384ZM164.821 202.828L161.77 202.858L162.777 205.738L165.828 205.709L164.821 202.828ZM161.024 208.382C161.024 208.382 160.167 210.828 158.21 213.358C157.413 214.387 155.835 215 154.873 216.228C153.901 217.469 153.759 218.755 152.711 220.069C151.691 221.348 149.906 222.001 148.127 223.756C146.416 225.446 146.179 227.653 144.95 229.03C143.39 230.778 141.723 230.891 140.591 231.883C138.889 233.374 139.601 234.13 138.273 235.411C137.304 236.345 133.762 237.487 133.4 237.591C133.039 237.695 137.043 237.597 138.221 237.139C139.4 236.68 145.158 231.552 151.073 224.658C156.723 218.072 163.052 209.807 163.052 209.807L161.024 208.382Z" fill="#8A90AC"/>
<defs>
<clipPath id="clip0">
<rect width="39" height="43.5536" fill="white" transform="translate(34 32)"/>
</clipPath>
</defs>
</svg>