<svg width="50" height="68" viewBox="0 0 50 68" fill="none" xmlns="http://www.w3.org/2000/svg">
<mask id="mask0" mask-type="alpha" maskUnits="userSpaceOnUse" x="0" y="0" width="50" height="68">
<path d="M44.5551 1.47591C42.0341 0.0120641 39.0961 -0.379163 36.2824 0.375211C33.4603 1.13134 31.1029 2.94722 29.6443 5.48823C27.4474 9.31524 27.8218 13.9354 30.2202 17.3216L27.9612 21.2568L35.7142 25.7588L37.9534 21.8582C38.3262 21.8974 38.701 21.918 39.077 21.918C40.0207 21.918 40.9707 21.7939 41.9069 21.5432C44.729 20.7869 47.0865 18.971 48.5453 16.43C51.5451 11.2039 49.7553 4.4956 44.5551 1.47591ZM43.4715 13.5174C42.7935 14.6984 41.7002 15.5418 40.3927 15.8921C39.0936 16.2399 37.7366 16.0593 36.5719 15.3828C34.1476 13.9752 33.3158 10.843 34.718 8.40057C35.3959 7.21957 36.4891 6.37628 37.7966 6.026C38.2286 5.91017 38.6668 5.85284 39.1025 5.85284C39.9769 5.85284 40.84 6.08362 41.6175 6.53511C44.0419 7.94279 44.8736 11.0751 43.4715 13.5174Z" fill="#ABCB57"/>
<path d="M20.8995 51.5668L35.7208 25.7477L27.9678 21.2457L16.5609 41.1167C15.566 42.8499 3.85796 62.6223 11.8794 67.2802L20.8995 51.5668Z" fill="#D8D9DD"/>
<path opacity="0.3" d="M44.5551 1.47605C42.0343 0.0123485 39.0964 -0.378733 36.2827 0.375057C33.4606 1.13119 31.103 2.94707 29.6442 5.48836C27.4474 9.31537 27.822 13.9352 30.2204 17.3214L27.9614 21.2568L16.5611 41.1165C15.5661 42.8498 3.85809 62.6222 11.8795 67.2801L20.8997 51.5668L35.721 25.7475L37.9535 21.8582C38.3262 21.8974 38.701 21.918 39.077 21.918C40.0207 21.918 40.9707 21.7938 41.9069 21.5432C44.729 20.787 47.0866 18.9712 48.5455 16.43C51.5451 11.2038 49.7553 4.4956 44.5551 1.47605ZM43.4715 13.5174C42.7935 14.6985 41.7001 15.542 40.3926 15.8922C39.0934 16.2402 37.7366 16.0594 36.5719 15.383C34.1477 13.9753 33.3158 10.8431 34.7178 8.40085C35.3959 7.21971 36.4892 6.37627 37.7967 6.02599C38.2286 5.9103 38.667 5.85297 39.1025 5.85297C39.9769 5.85297 40.84 6.08361 41.6175 6.53524C44.0419 7.94293 44.8735 11.0752 43.4715 13.5174Z" fill="#5B5B5F"/>
<path d="M22.0385 21.2574L19.7795 17.322C22.1781 13.9359 22.5525 9.31579 20.3556 5.48878C18.8969 2.94778 16.5394 1.1319 13.7173 0.375623C10.9038 -0.37802 7.96577 0.0129145 5.4448 1.47647C0.244617 4.49616 -1.54523 11.2045 1.45472 16.4304C2.91345 18.9714 5.2709 20.7873 8.09301 21.5436C9.02932 21.7944 9.97894 21.9184 10.9229 21.9184C11.2989 21.9184 11.6737 21.8978 12.0465 21.8586L14.2857 25.7592L22.0385 21.2574ZM9.60717 15.8928C8.29981 15.5425 7.20627 14.6992 6.52839 13.5181C5.1264 11.0758 5.95815 7.9435 8.38244 6.53581C9.15992 6.08433 10.0231 5.85354 10.8974 5.85354C11.333 5.85354 11.7714 5.91087 12.2033 6.0267C13.5107 6.37698 14.6042 7.22028 15.2821 8.40142C16.6841 10.8437 15.8523 13.9759 13.4279 15.3835C12.2628 16.0598 10.9059 16.2406 9.60717 15.8928Z" fill="#ABCB57"/>
<path d="M29.1004 51.5668L14.2791 25.7477L22.0321 21.2457L33.439 41.1168C34.434 42.8501 46.142 62.6225 38.1206 67.2804L29.1004 51.5668Z" fill="#D8D9DD"/>
</mask>
<g mask="url(#mask0)">
<rect y="-4.33333" width="50" height="71.6667" fill="#8A90AC"/>
</g>
</svg>