<svg width="50" height="49" viewBox="0 0 50 49" fill="none" xmlns="http://www.w3.org/2000/svg">
<path d="M5.13671 0.0781279C4.35155 0.257815 3.40233 0.664065 2.6953 1.125C0.921858 2.27735 -0.00392446 4.02344 -1.82072e-05 6.21875C0.00388805 7.30469 0.21092 8.37891 0.74217 10.0195C1.53123 12.457 2.14452 14.6016 2.30858 15.5156L2.35545 15.7734L2.09764 16.3555C1.12498 18.5352 0.664045 20.4883 0.664045 22.4414C0.664045 23.6602 0.874983 24.9883 1.39061 27.0508C2.17577 30.1875 3.43358 33.0898 4.68358 34.6484C5.13671 35.2109 6.87499 36.7344 8.16405 37.6953C9.69921 38.8398 10.9883 39.5273 12.1055 39.8086C12.8242 39.9922 13.1836 40.1289 13.6328 40.3984C14.8594 41.1445 16.2227 42.8047 17.2266 44.7812C18.168 46.6289 20.0977 48.1211 22.082 48.5312C22.8477 48.6914 23.8438 48.707 24.6289 48.5781C24.9414 48.5234 25.0195 48.5234 25.332 48.5781C26.1172 48.707 27.1133 48.6914 27.8828 48.5312C29.8555 48.125 31.793 46.6328 32.7305 44.793C33.8672 42.5742 35.3203 40.8945 36.6992 40.207C37.0625 40.0234 37.2383 39.9648 37.8555 39.8086C38.6602 39.6094 39.418 39.2617 40.4297 38.6289C42.086 37.6016 44.6836 35.4375 45.3868 34.5039C46.9141 32.4727 48.2539 28.9766 49.0157 25.0391C49.2618 23.7813 49.2774 23.6094 49.2735 22.4023C49.2735 21.4727 49.2579 21.2227 49.1836 20.7422C48.9532 19.2266 48.5586 17.9141 47.8907 16.418L47.625 15.8242L47.6993 15.4609C47.9336 14.3242 48.4649 12.4609 49.2422 10.0586C49.7891 8.37891 49.9961 7.31641 50 6.21875C50.0039 3.38282 48.4414 1.28907 45.5664 0.285159C44.7578 0.00390915 44.3086 -0.0468721 43.3008 0.0390654C41.1289 0.226565 38.5703 0.906253 35.7696 2.03907L34.9922 2.35157L34.4414 2.13672C32.293 1.30078 30.0352 0.996097 27.4375 1.19922C26.2031 1.29297 23.8203 1.29297 22.5 1.19532C19.9141 1.00391 17.6133 1.31641 15.5313 2.13282L14.9883 2.34375L14.2187 2.03125C11.4687 0.917972 8.85546 0.226565 6.69921 0.0429716C6.02343 -0.0156221 5.49999 -0.00390335 5.13671 0.0781279Z" fill="#8A90AC"/>
</svg>