<svg width="56" height="56" viewBox="0 0 56 56" fill="none" xmlns="http://www.w3.org/2000/svg">
<path d="M28 3C41.8071 3 53 14.1929 53 28C53 41.8071 41.8071 53 28 53C14.1929 53 3 41.8071 3 28C3 14.1929 14.1929 3 28 3Z" stroke="#5671F5" stroke-width="6"/>
<path d="M18.5684 18.0385C18.1758 18.1284 17.7012 18.3315 17.3477 18.562C16.4609 19.1381 15.9981 20.0112 16 21.1088C16.002 21.6518 16.1055 22.1889 16.3711 23.0092C16.7656 24.228 17.0723 25.3003 17.1543 25.7573L17.1777 25.8862L17.0488 26.1772C16.5625 27.267 16.332 28.2436 16.332 29.2202C16.332 29.8295 16.4375 30.4936 16.6953 31.5249C17.0879 33.0932 17.7168 34.5444 18.3418 35.3237C18.5684 35.6049 19.4375 36.3667 20.082 36.8471C20.8496 37.4194 21.4942 37.7631 22.0528 37.9038C22.4121 37.9955 22.5918 38.0639 22.8164 38.1987C23.4297 38.5717 24.1114 39.4018 24.6133 40.39C25.084 41.3139 26.0488 42.06 27.041 42.265C27.4238 42.3452 27.9219 42.3529 28.3145 42.2885C28.4707 42.2612 28.5097 42.2612 28.666 42.2885C29.0586 42.3529 29.5567 42.3452 29.9414 42.265C30.9277 42.0619 31.8965 41.3159 32.3652 40.3959C32.9336 39.2865 33.6602 38.4467 34.3496 38.1029C34.5312 38.0112 34.6192 37.9819 34.9277 37.9038C35.3301 37.8042 35.709 37.6303 36.2148 37.3139C37.043 36.8003 38.3418 35.7182 38.6934 35.2514C39.4571 34.2358 40.127 32.4878 40.5078 30.519C40.6309 29.8901 40.6387 29.8042 40.6367 29.2006C40.6367 28.7358 40.629 28.6108 40.5918 28.3705C40.4766 27.6128 40.2793 26.9565 39.9453 26.2085L39.8125 25.9116L39.8497 25.7299C39.9668 25.1616 40.2325 24.2299 40.6211 23.0288C40.8946 22.1889 40.9981 21.6577 41 21.1088C41.002 19.6909 40.2207 18.644 38.7832 18.142C38.3789 18.0014 38.1543 17.976 37.6504 18.019C36.5645 18.1127 35.2852 18.4526 33.8848 19.019L33.4961 19.1753L33.2207 19.0678C32.1465 18.6499 31.0176 18.4975 29.7187 18.5991C29.1016 18.6459 27.9102 18.6459 27.25 18.5971C25.9571 18.5014 24.8067 18.6577 23.7657 19.0659L23.4942 19.1713L23.1094 19.0151C21.7344 18.4584 20.4277 18.1127 19.3496 18.0209C19.0117 17.9917 18.75 17.9975 18.5684 18.0385Z" fill="#8A90AC" fill-opacity="0.85"/>
</svg>